<svg width="20" height="11" viewBox="0 0 20 11" fill="none" xmlns="http://www.w3.org/2000/svg">
<path d="M19.3536 4.85355C19.5488 4.65829 19.5488 4.34171 19.3536 4.14645L16.1716 0.964466C15.9763 0.769204 15.6597 0.769204 15.4645 0.964466C15.2692 1.15973 15.2692 1.47631 15.4645 1.67157L18.2929 4.5L15.4645 7.32843C15.2692 7.52369 15.2692 7.84027 15.4645 8.03553C15.6597 8.2308 15.9763 8.2308 16.1716 8.03553L19.3536 4.85355ZM5 5H19V4H5V5ZM0.5 8.5V10.5H1.5V8.5H0.5ZM5 4C2.51472 4 0.5 6.01472 0.5 8.5H1.5C1.5 6.567 3.067 5 5 5V4Z" fill="#EFEFDF"/>
</svg>
