<svg width="46" height="39" viewBox="0 0 46 39" fill="none" xmlns="http://www.w3.org/2000/svg">
<path d="M40.4156 28.2902L9.89778 28.3949L9.64864 28.3958L9.64864 28.6449L9.64864 30.8682L9.64864 31.119L9.8995 31.1182L40.3968 31.0135L35.6336 35.7414C35.0999 36.2711 35.0967 37.1333 35.6265 37.667C36.1563 38.2007 37.0184 38.2039 37.5521 37.6741L44.6527 30.6261C45.1864 30.0964 45.1896 29.2342 44.6599 28.7005L37.6119 21.5999C37.0821 21.0662 36.22 21.063 35.6863 21.5928C35.1525 22.1225 35.1493 22.9847 35.6791 23.5184L40.4156 28.2902Z" fill="#9C5849" stroke="#9C5849" stroke-width="0.5"/>
<path d="M9.91831 31.1077H10.1683V30.8577V28.6636V28.4136H9.91831H8.72306C5.78878 28.4136 3.38579 26.0923 3.38579 23.1689V1.38379V1.13379H3.13579H1H0.75V1.38379V23.1689C0.75 27.5534 4.30435 31.1077 8.68886 31.1077H9.91831Z" fill="#9C5849" stroke="#9C5849" stroke-width="0.5"/>
</svg>
