<svg width="1729" height="1296" viewBox="0 0 1729 1296" fill="none" xmlns="http://www.w3.org/2000/svg">
<g opacity="0.2">
<mask id="mask0_817_16838" style="mask-type:luminance" maskUnits="userSpaceOnUse" x="0" y="0" width="865" height="1296">
<path d="M0.501215 0.716525L863.676 0.500125L864.001 1295.01L0.826128 1295.23L0.501215 0.716525Z" fill="white" stroke="white"/>
</mask>
<g mask="url(#mask0_817_16838)">
<path d="M956.585 107.954C956.585 107.954 914.091 130.749 842.772 101.419C772.697 72.5893 784.599 117.601 741.256 130.032C694.231 143.517 672.912 111.428 636.338 104.044C602.184 97.1432 598.315 176.188 520.379 154.322C446.694 133.647 423.866 79.0679 333.569 117.749C242.841 156.602 228.083 166.59 111.51 113.866C-4.14712 61.556 -46.6809 65.125 -137.482 160.74" stroke="#9C5849" stroke-linecap="round" stroke-linejoin="round"/>
<path d="M953.323 127.734C953.323 127.734 905.088 139.561 833.874 114.653C765.27 90.6598 773.767 133.911 731.702 148.725C684.194 165.44 662.307 140.554 623.883 130.718C590.368 122.141 582.33 182.912 505.847 169.078C432.043 155.709 409.182 108.368 319.575 138.084C228.982 168.128 211.026 172.295 97.5483 127.913C-13.9066 84.3255 -50.7894 85.0256 -145.512 186.203" stroke="#9C5849" stroke-linecap="round" stroke-linejoin="round"/>
<path d="M950.062 147.512C950.062 147.512 896.206 148.32 824.959 127.869C757.928 108.626 762.917 150.34 722.132 167.382C674.106 187.449 653.619 164.065 613.311 151.656C580.435 141.524 566.102 189.756 491.28 183.763C417.167 177.822 394.395 137.546 305.563 158.349C215.037 179.549 194.072 177.913 83.5866 141.908C-23.5798 106.973 -54.898 104.891 -153.525 211.614" stroke="#9C5849" stroke-linecap="round" stroke-linejoin="round"/>
<path d="M946.798 167.293C946.798 167.293 887.375 157.013 816.042 141.104C750.655 126.507 752.082 166.91 712.56 186.059C664.034 209.58 642.993 183.934 600.835 168.848C568.564 157.3 549.752 196.861 476.712 198.486C402.117 200.145 379.519 166.692 291.532 178.65C201.004 190.954 177.22 183.515 69.6062 155.922C-33.1508 129.571 -59.0082 124.758 -161.575 237.045" stroke="#9C5849" stroke-linecap="round" stroke-linejoin="round"/>
<path d="M943.536 187.071C943.536 187.071 878.648 165.599 807.144 154.32C743.469 144.266 741.284 183.564 703.006 204.716C653.997 231.813 624.73 209.572 580.722 191.688C549.055 178.81 533.316 204.189 462.163 213.189C386.999 222.691 364.627 195.732 277.537 198.932C186.937 202.254 160.525 189.012 55.6611 169.934C-42.5828 152.063 -63.1002 144.64 -169.572 262.473" stroke="#9C5849" stroke-linecap="round" stroke-linejoin="round"/>
<path d="M940.276 206.85C940.276 206.85 869.958 174.065 798.23 167.536C736.319 161.903 730.521 200.304 693.437 223.39C643.979 254.184 614.057 235.346 568.25 214.543C537.136 200.421 516.849 211.809 447.615 227.908C371.848 245.512 349.703 224.703 263.526 219.231C172.838 213.485 143.918 194.37 41.7009 183.945C-51.909 174.399 -67.2073 164.505 -177.583 287.918" stroke="#9C5849" stroke-linecap="round" stroke-linejoin="round"/>
<path d="M937.013 226.629C937.013 226.629 861.318 182.393 789.314 180.77C729.185 179.421 719.792 217.131 683.866 242.066C634.046 276.643 603.347 261.208 555.777 237.4C525.198 222.103 500.431 219.691 433.065 242.63C356.765 268.611 334.777 253.571 249.531 239.549C158.754 224.613 127.413 199.574 27.7561 197.975C-61.1679 196.564 -71.299 184.389 -185.597 313.364" stroke="#9C5849" stroke-linecap="round" stroke-linejoin="round"/>
<path d="M933.753 246.408C933.753 246.408 852.68 190.531 780.418 193.987C722.087 196.765 709.151 234.01 674.314 260.724C624.202 299.17 592.57 287.155 543.305 260.238C513.228 243.819 484.136 227.727 418.501 257.316C341.788 291.899 319.87 282.301 235.504 259.814C144.673 235.585 110.91 204.484 13.7788 211.97C-70.4075 218.452 -75.4233 204.254 -193.626 338.775" stroke="#9C5849" stroke-linecap="round" stroke-linejoin="round"/>
<path d="M930.492 266.186C930.492 266.186 844.005 198.496 771.503 207.202C714.953 213.988 698.526 250.923 664.744 279.381C552.183 374.206 523.415 204.656 403.951 272.036C327.016 315.429 305.013 310.995 221.509 280.113C130.658 246.505 94.4226 209.134 -0.165792 225.982C-79.6318 240.132 -79.4975 224.119 -201.639 364.203" stroke="#9C5849" stroke-linecap="round" stroke-linejoin="round"/>
<path d="M927.232 285.965C927.232 285.965 835.281 206.288 762.59 220.436C707.752 231.107 687.972 267.888 655.175 298.073C535.48 408.204 500.812 211.036 389.387 286.773C312.419 339.097 290.21 339.655 207.481 300.431C116.698 257.39 77.7815 213.525 -14.16 240.029C-89.0094 261.605 -83.6387 244.036 -209.685 389.666" stroke="#9C5849" stroke-linecap="round" stroke-linejoin="round"/>
<path d="M923.968 305.744C923.968 305.744 826.431 213.907 753.69 233.652C700.512 248.089 677.466 284.87 645.62 316.73C519.862 442.547 479.795 217.673 374.853 301.459C298.043 362.782 275.507 368.229 193.502 320.695C102.854 268.172 60.9808 217.554 -28.0892 254.006C-98.4949 282.819 -87.7148 263.867 -217.666 415.06" stroke="#9C5849" stroke-linecap="round" stroke-linejoin="round"/>
<path d="M920.704 325.523C920.704 325.523 817.461 221.355 744.773 246.886C693.135 265.019 667.011 301.852 636.048 335.405C505.161 477.219 461.699 224.76 360.285 318.08C283.823 388.437 260.838 396.82 179.471 341.013C89.0454 278.989 43.8346 221.428 -42.0699 268.053C-108.257 303.981 -91.8424 283.784 -225.716 440.541" stroke="#9C5849" stroke-linecap="round" stroke-linejoin="round"/>
<path d="M917.445 345.285C917.445 345.285 808.322 228.682 735.86 260.086C685.64 281.846 656.595 318.818 626.479 354.047C497.755 504.618 446.389 231.381 347.571 334.649C271.612 414.023 246.243 425.378 165.461 361.279C75.3096 289.737 26.3637 225.129 -56.0297 282.031C-118.274 325.006 -95.9491 303.616 -233.727 465.935" stroke="#9C5849" stroke-linecap="round" stroke-linejoin="round"/>
<path d="M919.193 357.998C919.193 357.998 816.278 251.533 743.625 278.152C692.263 296.976 665.414 335.105 634.623 368.969C505.344 511.111 454.586 252.003 354.763 346.186C278.388 418.236 253.417 431.647 172.17 374.284C81.7787 310.464 35.3894 240.345 -49.8925 288.87C-115.318 326.111 -102.236 320.39 -236.835 478.183" stroke="#9C5849" stroke-linecap="round" stroke-linejoin="round"/>
<path d="M920.96 370.711C920.96 370.711 824.131 274.314 751.39 296.201C698.8 312.036 674.268 351.357 642.751 383.857C515.301 515.306 466.052 275.164 363.772 361.454C287.084 426.162 260.609 437.88 178.845 387.237C88.2656 331.138 44.1405 261.157 -43.7705 301.392C-112.568 332.882 -108.54 337.13 -239.977 490.396" stroke="#9C5849" stroke-linecap="round" stroke-linejoin="round"/>
<path d="M922.708 383.424C922.708 383.424 831.878 296.993 759.137 314.267C705.25 327.063 683.12 367.644 650.877 398.779C529.092 516.304 478.137 298.17 372.797 376.773C295.9 434.158 267.851 444.149 185.536 400.243C94.8203 351.866 52.7188 287.619 -37.6486 319.701C-109.974 345.37 -114.863 353.905 -243.103 502.662" stroke="#9C5849" stroke-linecap="round" stroke-linejoin="round"/>
<path d="M924.456 396.137C924.456 396.137 839.54 319.567 766.884 332.316C711.631 342.02 692.024 383.914 658.986 413.667C542.781 518.305 491.036 320.985 381.788 392.041C304.802 442.119 275.111 450.348 192.193 413.214C101.393 372.54 61.0724 311.989 -31.5438 336.057C-107.534 355.803 -121.185 370.644 -246.246 514.892" stroke="#9C5849" stroke-linecap="round" stroke-linejoin="round"/>
<path d="M926.224 408.85C926.224 408.85 847.152 342.004 774.667 350.382C718.014 356.926 701 400.235 667.149 428.589C557.37 520.547 505.233 343.661 390.833 407.36C313.897 450.201 282.46 456.582 198.904 426.219C108.054 393.198 69.3598 340.005 -25.4015 356.266C-105.161 369.949 -127.47 387.418 -249.37 527.157" stroke="#9C5849" stroke-linecap="round" stroke-linejoin="round"/>
<path d="M927.972 421.562C927.972 421.562 854.711 364.336 782.415 368.448C724.308 371.745 709.957 416.556 675.259 443.494C572.044 523.634 521.952 365.888 399.841 422.645C323.094 458.316 289.824 462.747 205.578 439.19C114.73 413.786 77.5401 362.061 -19.2971 370.704C-102.878 378.17 -133.809 404.157 -252.513 539.37" stroke="#9C5849" stroke-linecap="round" stroke-linejoin="round"/>
<path d="M929.721 434.259C929.721 434.259 862.252 386.531 790.162 386.48C730.603 386.426 718.966 432.878 683.385 458.365C587.324 527.207 541.764 388.097 408.849 437.913C332.411 466.554 297.206 468.826 212.253 452.144C121.458 434.305 85.687 387.745 -13.1743 388.962C-100.611 390.037 -140.114 420.88 -255.638 551.584" stroke="#9C5849" stroke-linecap="round" stroke-linejoin="round"/>
<path d="M931.487 446.97C931.487 446.97 869.793 408.638 797.927 404.545C736.898 401.071 728.027 449.267 691.513 473.286C601.031 532.833 568.836 410.009 417.858 453.214C341.816 474.98 304.622 474.903 218.928 465.13C128.204 454.789 93.8682 411.372 -7.06893 405.334C-98.3445 399.881 -146.452 437.636 -258.781 563.83" stroke="#9C5849" stroke-linecap="round" stroke-linejoin="round"/>
<path d="M933.236 459.684C933.236 459.684 877.351 430.627 805.692 422.595C743.21 415.598 737.104 465.693 699.657 488.175C650.337 517.794 622.626 493.48 576.578 475.648C524.515 455.486 496.723 454.594 426.884 468.5C351.307 483.547 312.073 480.879 225.62 478.12C134.967 475.223 102.102 440.581 -0.927751 427.444C-95.99 415.307 -152.739 454.411 -261.906 576.079" stroke="#9C5849" stroke-linecap="round" stroke-linejoin="round"/>
<path d="M934.985 472.396C934.985 472.396 884.91 452.527 813.439 440.661C749.54 430.053 746.2 482.168 707.766 503.096C658.809 529.744 631.615 502.649 587.193 486.907C532.174 467.419 507.271 475.716 435.892 483.801C360.798 492.301 319.489 486.818 232.294 491.107C141.713 495.569 110.37 465.866 5.17773 445.717C-93.6368 426.792 -159.061 471.15 -265.049 588.309" stroke="#9C5849" stroke-linecap="round" stroke-linejoin="round"/>
<path d="M936.75 485.109C936.75 485.109 892.553 474.359 821.203 458.727C755.92 444.423 755.346 498.714 715.909 518.001C667.349 541.747 640.604 511.888 597.824 498.149C539.798 479.508 517.835 496.994 444.917 499.103C370.287 501.246 326.903 492.689 238.985 504.095C30.3455 531.163 -16.6138 324.911 -268.175 600.556" stroke="#9C5849" stroke-linecap="round" stroke-linejoin="round"/>
<path d="M938.497 497.822C938.497 497.822 900.214 496.105 828.949 476.776C762.317 458.707 764.492 515.312 724.018 532.907C675.871 553.82 649.558 521.231 608.437 509.392C547.388 491.805 528.313 518.463 453.924 514.388C379.708 510.33 334.284 498.475 245.659 517.066C32.9791 561.668 -9.78688 328.935 -271.319 612.77" stroke="#9C5849" stroke-linecap="round" stroke-linejoin="round"/>
<path d="M940.247 510.534C940.247 510.534 907.929 517.814 836.715 494.841C768.786 472.938 773.657 532.012 732.163 547.811C684.431 565.977 658.549 530.659 619.071 520.633C554.945 504.343 538.742 540.069 462.951 529.689C389.044 519.551 341.614 504.241 252.352 530.053C39.4344 591.617 -2.31841 332.68 -274.425 625.016" stroke="#9C5849" stroke-linecap="round" stroke-linejoin="round"/>
<path d="M942.015 523.248C942.015 523.248 915.73 539.475 844.481 512.891C775.323 487.084 782.84 548.784 740.309 562.7C692.99 578.206 667.574 540.141 629.721 531.859C562.502 517.142 549.049 561.797 471.995 544.958C398.26 528.843 348.928 509.94 259.062 543.025C168.436 576.368 144.321 558.686 29.702 511.178C-83.3439 464.326 -184.278 538.144 -277.532 637.248" stroke="#9C5849" stroke-linecap="round" stroke-linejoin="round"/>
<path d="M943.762 535.943C943.762 535.943 923.564 561.099 852.228 530.94C781.876 501.195 792.003 565.623 748.417 577.604C701.496 590.502 676.615 549.708 640.318 543.102C570.005 530.285 559.165 583.628 480.986 560.26C407.3 538.22 356.136 515.656 265.719 556.012C174.956 596.507 152.95 581.83 35.7892 527.551C-80.646 473.601 -190.618 554.917 -280.693 649.478" stroke="#9C5849" stroke-linecap="round" stroke-linejoin="round"/>
<path d="M945.512 548.657C945.512 548.657 931.452 582.707 859.976 548.989C788.501 515.272 801.134 582.566 756.545 592.493C709.986 602.868 685.727 559.328 650.951 554.327C577.545 543.757 569.196 605.512 489.995 575.528C416.222 547.598 363.328 521.32 272.377 568.966C181.443 616.612 161.651 604.94 41.8778 543.891C-77.8949 482.842 -196.973 571.64 -283.869 661.692" stroke="#9C5849" stroke-linecap="round" stroke-linejoin="round"/>
<path d="M948.352 564.722C948.352 564.722 928.154 589.877 856.818 559.718C786.466 529.973 796.593 594.401 753.007 606.383C706.086 619.28 681.205 578.487 644.908 571.88C574.595 559.063 563.755 612.407 485.575 589.038C411.89 566.998 360.726 544.434 270.308 584.791C179.546 625.285 157.54 610.608 40.3789 556.33C-76.0563 502.379 -186.028 583.696 -276.103 678.256" stroke="#9C5849" stroke-linecap="round" stroke-linejoin="round"/>
<path d="M951.206 580.766C951.206 580.766 924.922 596.992 853.673 570.409C784.515 544.602 792.031 606.284 749.5 620.217C702.182 635.723 676.766 597.659 638.913 589.377C571.693 574.66 558.241 619.315 481.187 602.475C407.451 586.36 358.119 567.458 268.253 600.542C177.627 633.885 153.512 616.203 38.8935 568.695C-74.1524 521.843 -175.087 595.661 -268.341 694.766" stroke="#9C5849" stroke-linecap="round" stroke-linejoin="round"/>
<path d="M954.044 596.83C954.044 596.83 921.726 604.11 850.512 581.137C782.582 559.234 787.454 618.308 745.96 634.107C698.228 652.273 672.345 616.955 632.867 606.929C568.742 590.639 552.539 626.365 476.748 615.985C402.841 605.847 355.411 590.537 266.149 616.349C53.2313 677.913 11.4785 418.976 -260.629 711.312" stroke="#9C5849" stroke-linecap="round" stroke-linejoin="round"/>
<path d="M956.884 612.895C956.884 612.895 918.601 611.177 847.336 591.848C780.704 573.78 782.878 630.402 742.422 647.979C694.275 668.909 667.962 636.304 626.841 624.464C565.792 606.878 546.717 633.536 472.328 629.46C398.112 625.402 352.688 613.547 264.063 632.138C51.3832 676.74 8.61714 444.007 -252.915 727.842" stroke="#9C5849" stroke-linecap="round" stroke-linejoin="round"/>
<path d="M959.722 628.939C959.722 628.939 915.526 618.189 844.176 602.557C778.892 588.253 778.318 642.544 738.882 661.831C690.321 685.577 663.576 655.718 620.796 641.979C562.771 623.338 540.808 640.824 467.889 642.933C393.26 645.076 349.876 636.519 261.958 647.925C53.3181 674.993 6.35886 468.741 -245.202 744.386" stroke="#9C5849" stroke-linecap="round" stroke-linejoin="round"/>
<path d="M962.561 645.005C962.561 645.005 912.486 625.135 841.016 613.269C777.116 602.662 773.776 654.777 735.343 675.705C686.385 702.353 659.191 675.257 614.769 659.515C559.751 640.01 534.847 648.325 463.468 656.409C388.374 664.909 347.065 659.427 259.871 663.715C169.289 668.177 137.946 638.474 32.7539 618.325C-66.0606 599.401 -131.485 643.758 -237.472 760.917" stroke="#9C5849" stroke-linecap="round" stroke-linejoin="round"/>
<path d="M965.398 661.067C965.398 661.067 909.513 632.01 837.854 623.978C775.372 616.981 769.267 667.076 731.819 689.558C682.499 719.177 654.788 694.863 608.74 677.031C556.677 656.868 528.885 655.977 459.046 669.883C383.469 684.929 344.235 682.262 257.782 679.502C167.129 676.606 134.265 643.881 31.2348 630.727C-63.8274 618.59 -120.577 655.777 -229.744 777.445" stroke="#9C5849" stroke-linecap="round" stroke-linejoin="round"/>
<path d="M968.237 677.114C968.237 677.114 906.543 638.782 834.677 634.689C773.648 631.215 764.777 679.41 728.263 703.43C637.781 762.977 605.586 640.153 454.608 683.357C378.566 705.124 341.372 705.047 255.678 695.274C164.954 684.932 130.62 649.15 29.6829 643.113C-61.5926 637.66 -109.702 667.78 -222.031 793.956" stroke="#9C5849" stroke-linecap="round" stroke-linejoin="round"/>
<path d="M971.076 693.177C971.076 693.177 903.607 645.45 831.518 645.399C771.959 645.362 760.321 691.797 724.741 717.284C628.679 786.126 583.119 647.016 450.205 696.832C373.767 725.473 338.561 727.745 253.608 711.062C162.814 693.224 127.044 654.299 28.183 655.515C-59.254 656.591 -98.7581 679.799 -214.283 810.502" stroke="#9C5849" stroke-linecap="round" stroke-linejoin="round"/>
<path d="M973.914 709.224C973.914 709.224 900.652 651.997 828.356 656.109C770.25 659.406 755.899 704.217 721.2 731.155C617.986 811.296 567.893 653.549 445.782 710.306C369.035 745.978 335.766 750.408 251.52 726.851C160.672 701.447 123.484 659.274 26.6468 667.918C-56.9343 675.384 -87.8677 691.819 -206.571 827.031" stroke="#9C5849" stroke-linecap="round" stroke-linejoin="round"/>
<path d="M976.753 725.287C976.753 725.287 897.682 658.441 825.197 666.82C768.543 673.364 751.53 716.673 717.678 745.027C607.9 836.984 555.763 660.099 441.362 723.798C364.426 766.638 332.989 773.02 249.433 742.657C158.583 709.635 119.891 664.095 25.1297 680.338C-54.6302 694.021 -76.9407 703.856 -198.823 843.577" stroke="#9C5849" stroke-linecap="round" stroke-linejoin="round"/>
<path d="M979.593 741.351C979.593 741.351 894.677 664.781 822.02 677.53C766.767 687.234 747.161 729.127 714.122 758.881C597.917 863.518 546.173 666.198 436.924 737.254C359.939 787.332 330.248 795.562 247.33 758.427C156.529 717.754 116.212 668.655 23.5957 692.723C-52.3949 712.468 -66.048 715.857 -191.11 860.106" stroke="#9C5849" stroke-linecap="round" stroke-linejoin="round"/>
<path d="M982.43 757.398C982.43 757.398 891.601 670.967 818.859 688.242C764.972 701.038 742.842 741.619 710.599 772.754C588.815 890.279 537.86 672.144 432.519 750.748C355.622 808.132 327.574 818.123 245.259 774.217C154.543 725.84 112.444 673.062 22.0767 705.127C-50.2483 730.797 -55.1402 727.879 -183.381 876.636" stroke="#9C5849" stroke-linecap="round" stroke-linejoin="round"/>
<path d="M985.268 773.462C985.268 773.462 888.438 677.065 815.698 698.952C763.108 714.787 738.575 754.108 707.058 786.607C579.608 918.056 530.359 677.915 428.08 764.204C351.392 828.913 324.917 840.631 243.153 789.988C152.573 733.889 108.452 677.278 20.5405 717.513C-48.2572 749.002 -44.2325 739.863 -175.67 893.147" stroke="#9C5849" stroke-linecap="round" stroke-linejoin="round"/>
<path d="M988.107 789.508C988.107 789.508 885.192 683.042 812.539 709.662C761.177 728.486 734.328 766.615 703.537 800.479C571.787 945.35 523.206 683.79 423.677 777.696C347.302 849.746 322.331 863.156 241.084 805.794C150.692 741.974 104.306 681.407 19.0237 729.932C-46.4023 767.173 -33.3225 751.9 -167.921 909.693" stroke="#9C5849" stroke-linecap="round" stroke-linejoin="round"/>
<path d="M990.945 805.571C990.945 805.571 881.822 688.968 809.36 720.372C759.14 742.132 730.095 779.105 699.979 814.333C563.963 973.439 516.276 689.716 419.22 791.153C343.262 870.527 319.743 885.664 238.961 821.565C148.81 750.023 99.8638 685.415 17.4704 742.318C-44.774 785.292 -22.4491 763.902 -160.227 926.222" stroke="#9C5849" stroke-linecap="round" stroke-linejoin="round"/>
<path d="M990.05 821.394C990.05 821.394 885.718 714.912 813.065 741.514C761.703 760.338 735.009 797.189 704.218 831.053C570.568 977.997 522.262 709.562 425.292 810.912C349.334 890.286 324.535 901.296 243.736 837.196C153.584 765.655 105.729 707.006 21.6075 765.221C-40.6023 808.248 -20.8691 790.175 -157.233 937.449" stroke="#9C5849" stroke-linecap="round" stroke-linejoin="round"/>
<path d="M989.137 837.216C989.137 837.216 889.473 740.769 816.732 762.672C764.143 778.508 739.921 815.29 708.421 847.789C577.1 983.212 528.781 728.819 431.31 830.688C355.352 910.062 329.256 916.961 248.474 852.844C90.0735 727.15 90.2418 709.047 -154.294 948.675" stroke="#9C5849" stroke-linecap="round" stroke-linejoin="round"/>
<path d="M988.243 853.023C988.243 853.023 893.162 766.523 820.437 783.798C766.55 796.594 744.903 833.357 712.66 864.492C583.152 989.464 535.872 747.474 437.382 850.414C361.441 929.788 334.048 932.558 253.248 868.459C94.6061 742.575 97.475 741.503 -151.318 959.886" stroke="#9C5849" stroke-linecap="round" stroke-linejoin="round"/>
<path d="M987.333 868.846C987.333 868.846 896.748 792.191 824.109 804.957C768.856 814.662 749.888 851.476 716.867 881.23C592.125 993.556 541.03 768.184 443.404 870.191C367.446 949.565 338.772 948.225 257.99 884.108C100.576 759.191 108.598 772.386 -148.375 971.113" stroke="#9C5849" stroke-linecap="round" stroke-linejoin="round"/>
<path d="M986.437 884.669C986.437 884.669 900.297 817.738 827.812 826.099C771.158 832.643 754.938 869.595 721.087 897.95C600.007 999.376 547.239 787.753 449.458 889.951C373.517 969.325 343.546 963.856 262.747 899.757C102.618 772.699 118.268 806.551 -145.4 982.358" stroke="#9C5849" stroke-linecap="round" stroke-linejoin="round"/>
<path d="M985.526 900.49C985.526 900.49 903.778 843.145 831.482 847.257C773.376 850.553 759.99 887.729 725.292 914.685C608.254 1005.56 553.623 807.148 455.495 909.726C379.554 989.099 348.286 979.503 267.504 915.404C177.353 843.862 134.966 814.991 42.1529 879.739C-19.9185 922.973 -13.2129 921.52 -142.441 993.6" stroke="#9C5849" stroke-linecap="round" stroke-linejoin="round"/>
<path d="M984.615 916.315C984.615 916.315 907.242 868.452 835.152 868.401C775.594 868.364 765.077 905.902 729.497 931.389C616.933 1012.05 560.179 826.34 461.516 929.453C385.558 1008.83 353.027 995.119 272.227 931.02C182.076 859.479 140.78 836.55 46.2386 902.61C-15.8156 945.896 -11.7016 947.743 -139.516 1004.8" stroke="#9C5849" stroke-linecap="round" stroke-linejoin="round"/>
<path d="M983.717 932.119C983.717 932.119 910.72 893.635 838.854 889.542C777.825 886.068 770.23 924.089 733.733 948.108C626.092 1018.94 566.939 845.372 467.585 949.211C391.626 1028.58 357.798 1010.75 277.016 946.651C186.865 875.109 146.659 858.139 50.3897 925.513C-11.6299 968.833 -10.125 974.015 -136.509 1016.02" stroke="#9C5849" stroke-linecap="round" stroke-linejoin="round"/>
<path d="M982.806 947.942C982.806 947.942 914.184 918.715 842.524 910.683C780.043 903.686 775.386 942.328 737.938 964.827C635.601 1026.29 573.892 864.146 473.605 968.97C397.647 1048.34 362.539 1026.4 281.739 962.281C191.588 890.74 152.473 879.729 54.4753 948.399C-7.5097 991.771 -8.6137 1000.27 -133.567 1027.23" stroke="#9C5849" stroke-linecap="round" stroke-linejoin="round"/>
<path d="M981.913 963.765C761.445 894.881 800.865 949.594 742.161 981.547C646.804 1033.46 580.656 883.163 479.661 988.73C403.703 1068.1 367.297 1042.03 286.515 977.931C196.364 906.389 158.339 901.337 58.5959 971.32C-3.37178 1014.73 -7.06744 1026.54 -130.607 1038.48" stroke="#9C5849" stroke-linecap="round" stroke-linejoin="round"/>
<path d="M980.998 979.587C980.998 979.587 921.246 968.616 849.896 952.985C784.613 938.681 785.815 978.997 746.379 998.284C657.38 1041.8 588.366 901.195 485.695 1008.49C409.737 1087.86 372.051 1057.66 291.252 993.562C201.1 922.02 164.183 922.91 62.695 994.206C0.761834 1037.66 -5.54286 1052.8 -127.652 1049.68" stroke="#9C5849" stroke-linecap="round" stroke-linejoin="round"/>
<path d="M980.087 995.392C980.087 995.392 924.832 993.437 853.567 974.108C786.934 956.039 791.041 997.409 750.585 1014.99C667.063 1051.28 597.187 918.016 491.733 1028.23C415.775 1107.6 376.792 1073.29 296.01 1009.19C205.859 937.65 170.032 944.5 66.8156 1017.09C4.89973 1060.58 -3.99661 1079.05 -124.675 1060.91" stroke="#9C5849" stroke-linecap="round" stroke-linejoin="round"/>
<path d="M979.192 1011.22C979.192 1011.22 928.484 1018.24 857.27 995.268C789.341 973.365 796.317 1015.93 754.823 1031.71C707.09 1049.87 679.239 1018.91 640.003 1007.95C606.764 998.665 556.95 986.154 497.804 1047.97C421.846 1127.35 381.583 1088.91 300.784 1024.81C210.632 953.265 175.896 966.074 70.9516 1039.98C9.07036 1083.52 -2.43503 1105.31 -121.7 1072.12" stroke="#9C5849" stroke-linecap="round" stroke-linejoin="round"/>
<path d="M978.281 1027.04C978.281 1027.04 932.19 1042.99 860.941 1016.41C791.783 990.603 801.56 1034.49 759.011 1048.43C711.693 1063.93 684.273 1030.19 646.541 1021.28C612.784 1013.31 562.954 1005.91 503.79 1067.75C427.832 1147.12 386.272 1104.57 305.49 1040.47C215.339 968.931 181.692 987.681 75.003 1062.9C13.1563 1106.48 -0.940724 1131.58 -118.792 1083.37" stroke="#9C5849" stroke-linecap="round" stroke-linejoin="round"/>
<path d="M977.386 1042.86C977.386 1042.86 935.964 1067.71 864.645 1037.57C794.293 1007.82 806.835 1053.18 763.249 1065.16C716.328 1078.06 689.374 1041.55 653.146 1034.62C618.888 1028.06 569.025 1025.69 509.862 1087.51C433.903 1166.88 391.063 1120.2 310.264 1056.1C220.112 984.562 187.557 1009.27 79.1393 1085.8C17.3099 1129.42 0.603893 1157.85 -115.799 1094.59" stroke="#9C5849" stroke-linecap="round" stroke-linejoin="round"/>
<path d="M976.476 1058.68C976.476 1058.68 939.791 1092.43 868.316 1058.71C796.84 1024.99 812.061 1071.96 767.455 1081.88C720.896 1092.26 694.477 1052.97 659.718 1047.93C624.943 1042.9 575.063 1045.43 515.9 1107.27C439.942 1186.64 395.804 1135.85 315.022 1071.74C224.871 1000.19 193.405 1030.86 83.2598 1108.69C21.465 1152.36 2.14999 1184.11 -112.84 1105.8" stroke="#9C5849" stroke-linecap="round" stroke-linejoin="round"/>
<path d="M974.404 1077.13C974.404 1077.13 937.72 1110.88 866.244 1077.16C794.768 1043.44 809.989 1090.39 765.383 1100.33C718.824 1110.71 692.405 1071.42 657.647 1066.38C622.871 1061.34 576.035 1069.3 516.058 1125.89C439.683 1197.94 397.274 1147.32 316.027 1089.94C225.636 1026.12 196.987 1057.96 84.8689 1124.74C20.221 1163.24 -1.66996 1192.02 -114.911 1124.25" stroke="#9C5849" stroke-linecap="round" stroke-linejoin="round"/>
<path d="M972.352 1095.56C972.352 1095.56 935.667 1129.31 864.192 1095.59C792.716 1061.87 807.937 1108.84 763.331 1118.76C684.021 1136.44 672.652 1012.52 516.235 1144.51C439.547 1209.22 398.815 1158.79 317.051 1108.15C226.472 1052.05 200.088 1084.89 86.4975 1140.78C18.6854 1174.14 -5.47048 1199.95 -116.946 1142.7" stroke="#9C5849" stroke-linecap="round" stroke-linejoin="round"/>
<path d="M970.282 1114.01C970.282 1114.01 933.598 1147.76 862.122 1114.04C790.646 1080.32 805.868 1127.28 761.262 1137.21C673.743 1156.7 691.496 1032.48 516.395 1163.13C439.498 1220.52 400.373 1170.26 318.058 1126.35C227.342 1077.98 202.704 1111.54 88.1087 1156.83C16.8559 1184.99 -9.28829 1207.86 -119.016 1161.13" stroke="#9C5849" stroke-linecap="round" stroke-linejoin="round"/>
<path d="M968.214 1132.46C968.214 1132.46 931.53 1166.21 860.054 1132.49C788.578 1098.77 803.799 1145.73 759.193 1155.66C712.634 1166.04 686.215 1126.75 651.457 1121.71C616.698 1116.67 579.493 1140.82 516.557 1181.77C439.571 1231.85 401.967 1181.73 319.066 1144.58C228.266 1103.9 204.89 1137.82 89.7211 1172.89C14.7856 1195.71 -13.1222 1215.81 -121.084 1179.6" stroke="#9C5849" stroke-linecap="round" stroke-linejoin="round"/>
<path d="M966.161 1150.91C966.161 1150.91 929.477 1184.65 858.001 1150.94C786.525 1117.22 801.747 1164.18 757.14 1174.11C710.581 1184.48 684.162 1145.19 649.404 1140.16C614.645 1135.12 580.864 1164.69 516.734 1200.39C439.798 1243.23 403.629 1193.16 320.073 1162.78C229.222 1129.76 206.745 1163.64 91.332 1188.94C12.4891 1206.22 -16.9404 1223.72 -123.154 1198.05" stroke="#9C5849" stroke-linecap="round" stroke-linejoin="round"/>
<path d="M964.091 1169.36C964.091 1169.36 927.407 1203.1 855.931 1169.39C784.455 1135.67 799.676 1182.61 755.07 1192.56C708.511 1202.93 682.092 1163.64 647.334 1158.61C612.558 1153.57 582.321 1188.59 516.893 1219.01C440.146 1254.68 405.324 1204.55 321.079 1180.99C230.23 1155.59 208.375 1189 92.9425 1204.99C10.0538 1216.48 -20.759 1231.65 -125.224 1216.48" stroke="#9C5849" stroke-linecap="round" stroke-linejoin="round"/>
<path d="M962.023 1187.81C962.023 1187.81 925.338 1221.55 853.862 1187.83C782.387 1154.12 797.608 1201.08 753.002 1211.01C706.443 1221.38 680.024 1182.09 645.265 1177.06C610.49 1172.02 583.866 1212.6 517.054 1237.65C440.617 1266.29 407.057 1215.91 322.087 1199.21C231.292 1181.38 209.903 1213.91 94.5377 1221.05C7.51662 1226.45 -24.6101 1239.58 -127.31 1234.94" stroke="#9C5849" stroke-linecap="round" stroke-linejoin="round"/>
<path d="M959.972 1206.26C959.972 1206.26 923.287 1240 851.812 1206.28C780.336 1172.57 795.557 1219.53 750.951 1229.46C704.392 1239.83 677.973 1200.54 643.214 1195.5C608.439 1190.47 585.532 1236.73 517.233 1256.27C441.191 1278.04 408.824 1227.19 323.112 1217.42C232.389 1207.08 211.414 1238.4 96.1676 1237.1C4.99691 1236.07 -28.4092 1247.49 -129.343 1253.37" stroke="#9C5849" stroke-linecap="round" stroke-linejoin="round"/>
<path d="M957.9 1224.7C957.9 1224.7 921.215 1258.45 849.739 1224.73C778.264 1191.01 793.485 1237.98 748.879 1247.9C702.32 1258.28 675.901 1218.99 641.142 1213.95C606.384 1208.92 587.212 1261 517.39 1274.91C441.813 1289.95 410.569 1238.42 324.116 1235.64C233.464 1232.74 212.973 1262.55 97.7762 1253.16C2.50761 1245.39 -32.2297 1255.44 -131.416 1271.84" stroke="#9C5849" stroke-linecap="round" stroke-linejoin="round"/>
<path d="M955.831 1243.15C955.831 1243.15 919.147 1276.9 847.671 1243.18C776.195 1209.46 791.417 1256.42 746.81 1266.35C700.251 1276.73 673.832 1237.44 639.074 1232.4C604.298 1227.37 588.93 1285.44 517.552 1293.53C442.457 1302.03 412.336 1249.56 325.124 1253.85C234.543 1258.31 214.674 1286.38 99.3886 1269.21C0.143022 1254.43 -36.0463 1263.35 -133.484 1290.29" stroke="#9C5849" stroke-linecap="round" stroke-linejoin="round"/>
<path d="M953.761 1261.6C953.761 1261.6 917.076 1295.35 845.601 1261.63C774.125 1227.91 789.346 1274.87 744.74 1284.8C698.181 1295.18 671.762 1255.88 637.004 1250.85C602.228 1245.81 590.629 1310.06 517.711 1312.15C443.081 1314.29 414.066 1260.65 326.131 1272.05C235.603 1283.8 216.528 1309.98 100.999 1285.25C-2.10256 1263.19 -39.8823 1271.28 -135.554 1308.72" stroke="#9C5849" stroke-linecap="round" stroke-linejoin="round"/>
<path d="M951.71 1280.05C951.71 1280.05 915.026 1313.79 843.55 1280.08C772.074 1246.36 787.295 1293.32 742.689 1303.25C696.13 1313.62 669.711 1274.33 634.953 1269.3C600.194 1264.26 592.279 1334.85 517.89 1330.79C443.673 1326.73 415.781 1271.69 327.156 1290.28C236.63 1309.27 218.609 1333.45 102.629 1301.32C-4.15582 1271.72 -43.6814 1279.21 -137.605 1327.19" stroke="#9C5849" stroke-linecap="round" stroke-linejoin="round"/>
<path d="M949.642 1298.5C949.642 1298.5 912.957 1332.24 841.482 1298.53C770.006 1264.81 785.227 1311.77 740.621 1321.7C694.062 1332.07 667.643 1292.78 632.884 1287.75C598.126 1282.71 593.842 1359.81 518.051 1349.41C444.144 1339.27 417.427 1282.67 328.164 1308.48C237.623 1334.66 220.88 1356.79 104.241 1317.37C-6.05393 1280.08 -47.498 1287.14 -139.673 1345.64" stroke="#9C5849" stroke-linecap="round" stroke-linejoin="round"/>
<path d="M959.845 88.1761C959.845 88.1761 923.161 121.921 851.685 88.2031C780.209 54.4858 795.431 101.449 750.824 111.375C704.265 121.751 677.846 82.46 643.088 77.4248C608.312 72.3897 614.143 165.821 534.942 135.837C461.169 107.906 438.513 49.8211 347.58 97.4498C256.646 145.096 245.225 160.887 125.47 99.8374C5.6972 38.788 -42.574 45.2259 -129.47 135.295" stroke="#9C5849" stroke-linecap="round" stroke-linejoin="round"/>
<path d="M964.093 75.5309C964.093 75.5309 928.204 110.363 856.728 76.646C785.252 42.9286 798.122 87.4221 753.533 97.3655C706.974 107.741 682.111 69.8148 647.353 64.7796C612.594 59.7445 614.934 154.109 535.733 124.125C461.96 96.1949 439.356 35.7776 348.422 83.4063C257.488 131.052 240.381 143.684 125.275 86.226C10.0664 28.7511 -41.8344 35.2071 -125.205 122.65" stroke="#9C5849" stroke-linecap="round" stroke-linejoin="round"/>
<path d="M968.36 62.8689C968.36 62.8689 933.249 98.8067 861.79 65.0893C790.315 31.3719 800.851 73.4132 756.245 83.3566C709.685 93.7324 686.378 57.1701 651.602 52.1349C616.827 47.0998 615.726 138.615 536.526 108.631C462.753 80.7009 440.2 21.7346 349.267 69.3633C258.333 116.992 235.521 126.464 125.066 72.6151C14.4207 18.732 -41.0923 25.1889 -120.955 110.005" stroke="#9C5849" stroke-linecap="round" stroke-linejoin="round"/>
<path d="M972.609 50.222C972.609 50.222 938.294 87.2479 866.835 53.5305C795.359 19.8131 803.545 59.4021 758.938 69.3283C712.379 79.7041 690.628 44.4887 655.852 39.4535C621.094 34.4183 616.501 123.085 537.301 93.1004C463.528 65.1702 441.027 7.65483 350.094 55.3009C259.16 102.947 230.661 109.224 124.856 58.9847C18.7573 8.67607 -40.3678 15.1512 -116.706 97.3407" stroke="#9C5849" stroke-linecap="round" stroke-linejoin="round"/>
<path d="M976.857 37.5607C976.857 37.5607 943.337 75.6919 871.861 41.9745C800.385 8.25706 806.219 45.3938 761.63 55.32C715.071 65.6958 694.858 31.8446 660.1 26.8095C625.324 21.7743 617.274 107.574 538.091 77.6071C464.318 49.6769 441.87 -6.38753 350.936 41.2585C260.002 88.9045 225.799 92.0224 124.661 45.3745C23.1264 -1.3597 -39.6283 5.13361 -112.441 84.6967" stroke="#9C5849" stroke-linecap="round" stroke-linejoin="round"/>
<path d="M981.107 24.897C981.107 24.897 948.381 64.1162 876.906 30.3988C805.43 -3.31858 808.93 31.3486 764.324 41.2921C717.765 51.6679 699.108 19.181 664.349 14.1458C629.591 9.11061 618.066 92.0612 538.866 62.0941C465.093 34.1639 442.697 -20.4495 351.763 27.1965C260.829 74.8426 220.939 74.7835 124.452 31.7446C27.4805 -11.4151 -38.8865 -4.90361 -108.209 72.0503" stroke="#9C5849" stroke-linecap="round" stroke-linejoin="round"/>
<path d="M985.372 12.2509C985.372 12.2509 953.442 52.5754 881.966 18.858C810.491 -14.8594 811.639 17.3555 767.033 27.299C720.474 37.6748 703.373 6.55209 668.614 1.49963C633.856 -3.53555 618.857 76.5658 539.674 46.5814C465.901 18.6512 443.54 -34.5112 352.606 13.1348C261.672 60.7808 216.077 57.5448 124.258 18.1149C31.8328 -21.4702 -38.1465 -14.9406 -103.943 59.3869" stroke="#9C5849" stroke-linecap="round" stroke-linejoin="round"/>
<path d="M989.62 -0.410658C989.62 -0.410658 958.486 41.0019 887.01 7.30178C815.534 -26.4156 814.332 3.34706 769.743 13.2733C723.184 23.6491 707.639 -6.1267 672.863 -11.1619C638.087 -16.1971 619.648 61.055 540.447 31.0707C466.674 3.15774 444.366 -48.5538 353.432 -0.925018C262.498 46.721 211.199 40.3254 124.047 4.48724C36.1856 -31.5062 -37.4059 -24.9756 -99.6949 46.7254" stroke="#9C5849" stroke-linecap="round" stroke-linejoin="round"/>
<path d="M993.869 -13.0564C993.869 -13.0564 963.53 29.4442 892.054 -4.25592C820.578 -37.9733 817.042 -10.6802 772.436 -0.736703C725.877 9.6391 711.887 -18.7724 677.111 -23.8076C642.353 -28.8428 620.422 45.56 541.221 15.5756C467.448 -12.3545 445.192 -62.6151 354.258 -14.9691C263.324 32.677 206.338 23.1044 123.818 -9.1247C40.5038 -41.5436 -36.6999 -34.9949 -95.4637 34.0796" stroke="#9C5849" stroke-linecap="round" stroke-linejoin="round"/>
<path d="M998.135 -25.7183C998.135 -25.7183 968.574 17.8876 897.115 -15.8298C825.64 -49.5472 819.752 -24.6891 775.163 -14.7629C728.604 -4.38705 716.153 -31.4343 681.395 -36.4695C646.602 -41.5047 621.213 30.0488 542.013 0.0817161C468.24 -27.8485 446.035 -76.658 355.101 -29.012C264.168 18.634 201.477 5.88454 123.625 -22.7356C44.8744 -51.58 -35.9417 -45.0131 -91.1976 21.435" stroke="#9C5849" stroke-linecap="round" stroke-linejoin="round"/>
<path d="M1002.38 -38.3804C1002.38 -38.3804 973.617 6.33082 902.142 -27.3866C830.666 -61.104 822.445 -38.7154 777.839 -28.7719C731.279 -18.3961 720.384 -44.0964 685.626 -49.1316C650.868 -54.1668 622.004 14.5202 542.804 -15.4469C469.031 -43.3771 446.879 -90.7357 355.945 -43.0897C265.011 4.55635 196.633 -11.3528 123.432 -36.3811C49.2445 -61.6511 -35.2011 -55.066 -86.9319 8.77287" stroke="#9C5849" stroke-linecap="round" stroke-linejoin="round"/>
</g>
<mask id="mask1_817_16838" style="mask-type:luminance" maskUnits="userSpaceOnUse" x="864" y="0" width="865" height="1296">
<path d="M1728 0.716525L864.826 0.500125L864.501 1295.01L1727.68 1295.23L1728 0.716525Z" fill="white" stroke="white"/>
</mask>
<g mask="url(#mask1_817_16838)">
<path d="M771.917 107.954C771.917 107.954 814.411 130.749 885.73 101.419C955.805 72.5893 943.902 117.601 987.246 130.032C1034.27 143.517 1055.59 111.428 1092.16 104.044C1126.32 97.1432 1130.19 176.188 1208.12 154.322C1281.81 133.647 1304.64 79.0679 1394.93 117.749C1485.66 156.602 1500.42 166.59 1616.99 113.866C1732.65 61.556 1775.18 65.125 1865.98 160.74" stroke="#9C5849" stroke-linecap="round" stroke-linejoin="round"/>
<path d="M775.179 127.734C775.179 127.734 823.414 139.561 894.628 114.653C963.232 90.6598 954.735 133.911 996.8 148.725C1044.31 165.44 1066.19 140.554 1104.62 130.718C1138.13 122.141 1146.17 182.912 1222.66 169.078C1296.46 155.709 1319.32 108.368 1408.93 138.084C1499.52 168.128 1517.48 172.295 1630.95 127.913C1742.41 84.3255 1779.29 85.0256 1874.01 186.203" stroke="#9C5849" stroke-linecap="round" stroke-linejoin="round"/>
<path d="M778.44 147.512C778.44 147.512 832.296 148.32 903.543 127.869C970.574 108.626 965.585 150.34 1006.37 167.382C1054.4 187.449 1074.88 164.065 1115.19 151.656C1148.07 141.524 1162.4 189.756 1237.22 183.763C1311.33 177.822 1334.11 137.546 1422.94 158.349C1513.46 179.549 1534.43 177.913 1644.92 141.908C1752.08 106.973 1783.4 104.891 1882.03 211.614" stroke="#9C5849" stroke-linecap="round" stroke-linejoin="round"/>
<path d="M781.704 167.293C781.704 167.293 841.127 157.013 912.46 141.104C977.847 126.507 976.42 166.91 1015.94 186.059C1064.47 209.58 1085.51 183.934 1127.67 168.848C1159.94 157.3 1178.75 196.861 1251.79 198.486C1326.38 200.145 1348.98 166.692 1436.97 178.65C1527.5 190.954 1551.28 183.515 1658.9 155.922C1761.65 129.571 1787.51 124.758 1890.08 237.045" stroke="#9C5849" stroke-linecap="round" stroke-linejoin="round"/>
<path d="M784.966 187.071C784.966 187.071 849.854 165.599 921.358 154.32C985.033 144.266 987.218 183.564 1025.5 204.716C1074.51 231.813 1103.77 209.572 1147.78 191.688C1179.45 178.81 1195.19 204.189 1266.34 213.189C1341.5 222.691 1363.87 195.732 1450.97 198.932C1541.56 202.254 1567.98 189.012 1672.84 169.934C1771.08 152.063 1791.6 144.64 1898.07 262.473" stroke="#9C5849" stroke-linecap="round" stroke-linejoin="round"/>
<path d="M788.226 206.85C788.226 206.85 858.544 174.065 930.272 167.536C992.183 161.903 997.98 200.304 1035.07 223.39C1084.52 254.184 1114.45 235.346 1160.25 214.543C1191.37 200.421 1211.65 211.809 1280.89 227.908C1356.65 245.512 1378.8 224.703 1464.98 219.231C1555.66 213.485 1584.58 194.37 1686.8 183.945C1780.41 174.399 1795.71 164.505 1906.09 287.918" stroke="#9C5849" stroke-linecap="round" stroke-linejoin="round"/>
<path d="M791.488 226.629C791.488 226.629 867.184 182.393 939.187 180.77C999.317 179.421 1008.71 217.131 1044.64 242.066C1094.46 276.643 1125.15 261.208 1172.73 237.4C1203.3 222.103 1228.07 219.691 1295.44 242.63C1371.74 268.611 1393.73 253.571 1478.97 239.549C1569.75 224.613 1601.09 199.574 1700.75 197.975C1789.67 196.564 1799.8 184.389 1914.1 313.364" stroke="#9C5849" stroke-linecap="round" stroke-linejoin="round"/>
<path d="M794.748 246.408C794.748 246.408 875.822 190.531 948.084 193.987C1006.41 196.765 1019.35 234.01 1054.19 260.724C1104.3 299.17 1135.93 287.155 1185.2 260.238C1215.27 243.819 1244.37 227.727 1310 257.316C1386.71 291.899 1408.63 282.301 1493 259.814C1583.83 235.585 1617.59 204.484 1714.72 211.97C1798.91 218.452 1803.93 204.254 1922.13 338.775" stroke="#9C5849" stroke-linecap="round" stroke-linejoin="round"/>
<path d="M798.01 266.186C798.01 266.186 884.497 198.496 956.999 207.202C1013.55 213.988 1029.98 250.923 1063.76 279.381C1176.32 374.206 1205.09 204.656 1324.55 272.036C1401.49 315.429 1423.49 310.995 1506.99 280.113C1597.84 246.505 1634.08 209.134 1728.67 225.982C1808.13 240.132 1808 224.119 1930.14 364.203" stroke="#9C5849" stroke-linecap="round" stroke-linejoin="round"/>
<path d="M801.27 285.965C801.27 285.965 893.221 206.288 965.912 220.436C1020.75 231.107 1040.53 267.888 1073.33 298.073C1193.02 408.204 1227.69 211.036 1339.12 286.773C1416.08 339.097 1438.29 339.655 1521.02 300.431C1611.8 257.39 1650.72 213.525 1742.66 240.029C1817.51 261.605 1812.14 244.036 1938.19 389.666" stroke="#9C5849" stroke-linecap="round" stroke-linejoin="round"/>
<path d="M804.534 305.744C804.534 305.744 902.07 213.907 974.812 233.652C1027.99 248.089 1051.04 284.87 1082.88 316.73C1208.64 442.547 1248.71 217.673 1353.65 301.459C1430.46 362.782 1453 368.229 1535 320.695C1625.65 268.172 1667.52 217.554 1756.59 254.006C1827 282.819 1816.22 263.867 1946.17 415.06" stroke="#9C5849" stroke-linecap="round" stroke-linejoin="round"/>
<path d="M807.798 325.523C807.798 325.523 911.041 221.355 983.729 246.886C1035.37 265.019 1061.49 301.852 1092.45 335.405C1223.34 477.219 1266.8 224.76 1368.22 318.08C1444.68 388.437 1467.66 396.82 1549.03 341.013C1639.46 278.989 1684.67 221.428 1770.57 268.053C1836.76 303.981 1820.34 283.784 1954.22 440.541" stroke="#9C5849" stroke-linecap="round" stroke-linejoin="round"/>
<path d="M811.057 345.285C811.057 345.285 920.18 228.682 992.642 260.086C1042.86 281.846 1071.91 318.818 1102.02 354.047C1230.75 504.618 1282.11 231.381 1380.93 334.649C1456.89 414.023 1482.26 425.378 1563.04 361.279C1653.19 289.737 1702.14 225.129 1784.53 282.031C1846.78 325.006 1824.45 303.616 1962.23 465.935" stroke="#9C5849" stroke-linecap="round" stroke-linejoin="round"/>
<path d="M809.309 357.998C809.309 357.998 912.224 251.533 984.877 278.152C1036.24 296.976 1063.09 335.105 1093.88 368.969C1223.16 511.111 1273.92 252.003 1373.74 346.186C1450.11 418.236 1475.08 431.647 1556.33 374.284C1646.72 310.464 1693.11 240.345 1778.39 288.87C1843.82 326.111 1830.74 320.39 1965.34 478.183" stroke="#9C5849" stroke-linecap="round" stroke-linejoin="round"/>
<path d="M807.542 370.711C807.542 370.711 904.371 274.314 977.112 296.201C1029.7 312.036 1054.23 351.357 1085.75 383.857C1213.2 515.306 1262.45 275.164 1364.73 361.454C1441.42 426.162 1467.89 437.88 1549.66 387.237C1640.24 331.138 1684.36 261.157 1772.27 301.392C1841.07 332.882 1837.04 337.13 1968.48 490.396" stroke="#9C5849" stroke-linecap="round" stroke-linejoin="round"/>
<path d="M805.794 383.424C805.794 383.424 896.623 296.993 969.365 314.267C1023.25 327.063 1045.38 367.644 1077.63 398.779C1199.41 516.304 1250.36 298.17 1355.7 376.773C1432.6 434.158 1460.65 444.149 1542.97 400.243C1633.68 351.866 1675.78 287.619 1766.15 319.701C1838.48 345.37 1843.36 353.905 1971.61 502.662" stroke="#9C5849" stroke-linecap="round" stroke-linejoin="round"/>
<path d="M804.046 396.137C804.046 396.137 888.962 319.567 961.618 332.316C1016.87 342.02 1036.48 383.914 1069.52 413.667C1185.72 518.305 1237.47 320.985 1346.71 392.041C1423.7 442.119 1453.39 450.348 1536.31 413.214C1627.11 372.54 1667.43 311.989 1760.05 336.057C1836.04 355.803 1849.69 370.644 1974.75 514.892" stroke="#9C5849" stroke-linecap="round" stroke-linejoin="round"/>
<path d="M802.278 408.85C802.278 408.85 881.35 342.004 953.834 350.382C1010.49 356.926 1027.5 400.235 1061.35 428.589C1171.13 520.547 1223.27 343.661 1337.67 407.36C1414.6 450.201 1446.04 456.582 1529.6 426.219C1620.45 393.198 1659.14 340.005 1753.9 356.266C1833.66 369.949 1855.97 387.418 1977.87 527.157" stroke="#9C5849" stroke-linecap="round" stroke-linejoin="round"/>
<path d="M800.53 421.562C800.53 421.562 873.791 364.336 946.087 368.448C1004.19 371.745 1018.54 416.556 1053.24 443.494C1156.46 523.634 1206.55 365.888 1328.66 422.645C1405.41 458.316 1438.68 462.747 1522.92 439.19C1613.77 413.786 1650.96 362.061 1747.8 370.704C1831.38 378.17 1862.31 404.157 1981.01 539.37" stroke="#9C5849" stroke-linecap="round" stroke-linejoin="round"/>
<path d="M798.781 434.259C798.781 434.259 866.25 386.531 938.34 386.48C997.899 386.426 1009.54 432.878 1045.12 458.365C1141.18 527.207 1186.74 388.097 1319.65 437.913C1396.09 466.554 1431.3 468.826 1516.25 452.144C1607.04 434.305 1642.81 387.745 1741.68 388.962C1829.11 390.037 1868.62 420.88 1984.14 551.584" stroke="#9C5849" stroke-linecap="round" stroke-linejoin="round"/>
<path d="M797.015 446.97C797.015 446.97 858.709 408.638 930.575 404.545C991.604 401.071 1000.48 449.267 1036.99 473.286C1127.47 532.833 1159.67 410.009 1310.64 453.214C1386.69 474.98 1423.88 474.903 1509.57 465.13C1600.3 454.789 1634.63 411.372 1735.57 405.334C1826.85 399.881 1874.95 437.636 1987.28 563.83" stroke="#9C5849" stroke-linecap="round" stroke-linejoin="round"/>
<path d="M795.266 459.684C795.266 459.684 851.151 430.627 922.81 422.595C985.292 415.598 991.397 465.693 1028.85 488.175C1078.16 517.794 1105.88 493.48 1151.92 475.648C1203.99 455.486 1231.78 454.594 1301.62 468.5C1377.2 483.547 1416.43 480.879 1502.88 478.12C1593.53 475.223 1626.4 440.581 1729.43 427.444C1824.49 415.307 1881.24 454.411 1990.41 576.079" stroke="#9C5849" stroke-linecap="round" stroke-linejoin="round"/>
<path d="M793.517 472.396C793.517 472.396 843.592 452.527 915.063 440.661C978.962 430.053 982.302 482.168 1020.74 503.096C1069.69 529.744 1096.89 502.649 1141.31 486.907C1196.33 467.419 1221.23 475.716 1292.61 483.801C1367.7 492.301 1409.01 486.818 1496.21 491.107C1586.79 495.569 1618.13 465.866 1723.32 445.717C1822.14 426.792 1887.56 471.15 1993.55 588.309" stroke="#9C5849" stroke-linecap="round" stroke-linejoin="round"/>
<path d="M791.752 485.109C791.752 485.109 835.949 474.359 907.299 458.727C972.582 444.423 973.156 498.714 1012.59 518.001C1061.15 541.747 1087.9 511.888 1130.68 498.149C1188.7 479.508 1210.67 496.994 1283.59 499.103C1358.21 501.246 1401.6 492.689 1489.52 504.095C1698.16 531.163 1745.12 324.911 1996.68 600.556" stroke="#9C5849" stroke-linecap="round" stroke-linejoin="round"/>
<path d="M790.004 497.822C790.004 497.822 828.288 496.105 899.553 476.776C966.185 458.707 964.01 515.312 1004.48 532.907C1052.63 553.82 1078.94 521.231 1120.06 509.392C1181.11 491.805 1200.19 518.463 1274.58 514.388C1348.79 510.33 1394.22 498.475 1482.84 517.066C1695.52 561.668 1738.29 328.935 1999.82 612.77" stroke="#9C5849" stroke-linecap="round" stroke-linejoin="round"/>
<path d="M788.255 510.534C788.255 510.534 820.573 517.814 891.787 494.841C959.716 472.938 954.845 532.012 996.339 547.811C1044.07 565.977 1069.95 530.659 1109.43 520.633C1173.56 504.343 1189.76 540.069 1265.55 529.689C1339.46 519.551 1386.89 504.241 1476.15 530.053C1689.07 591.617 1730.82 332.68 2002.93 625.016" stroke="#9C5849" stroke-linecap="round" stroke-linejoin="round"/>
<path d="M786.487 523.248C786.487 523.248 812.772 539.475 884.021 512.891C953.179 487.084 945.662 548.784 988.193 562.7C1035.51 578.206 1060.93 540.141 1098.78 531.859C1166 517.142 1179.45 561.797 1256.51 544.958C1330.24 528.843 1379.57 509.94 1469.44 543.025C1560.07 576.368 1584.18 558.686 1698.8 511.178C1811.85 464.326 1912.78 538.144 2006.03 637.248" stroke="#9C5849" stroke-linecap="round" stroke-linejoin="round"/>
<path d="M784.74 535.943C784.74 535.943 804.938 561.099 876.274 530.94C946.626 501.195 936.499 565.623 980.084 577.604C1027.01 590.502 1051.89 549.708 1088.18 543.102C1158.5 530.285 1169.34 583.628 1247.52 560.26C1321.2 538.22 1372.37 515.656 1462.78 556.012C1553.55 596.507 1575.55 581.83 1692.71 527.551C1809.15 473.601 1919.12 554.917 2009.19 649.478" stroke="#9C5849" stroke-linecap="round" stroke-linejoin="round"/>
<path d="M782.99 548.657C782.99 548.657 797.05 582.707 868.526 548.989C940.001 515.272 927.368 582.566 971.957 592.493C1018.52 602.868 1042.78 559.328 1077.55 554.327C1150.96 543.757 1159.31 605.512 1238.51 575.528C1312.28 547.598 1365.17 521.32 1456.13 568.966C1547.06 616.612 1566.85 604.94 1686.62 543.891C1806.4 482.842 1925.48 571.64 2012.37 661.692" stroke="#9C5849" stroke-linecap="round" stroke-linejoin="round"/>
<path d="M780.15 564.722C780.15 564.722 800.348 589.877 871.684 559.718C942.036 529.973 931.909 594.401 975.495 606.383C1022.42 619.28 1047.3 578.487 1083.59 571.88C1153.91 559.063 1164.75 612.407 1242.93 589.038C1316.61 566.998 1367.78 544.434 1458.19 584.791C1548.96 625.285 1570.96 610.608 1688.12 556.33C1804.56 502.379 1914.53 583.696 2004.6 678.256" stroke="#9C5849" stroke-linecap="round" stroke-linejoin="round"/>
<path d="M777.296 580.766C777.296 580.766 803.58 596.992 874.829 570.409C943.987 544.602 936.471 606.284 979.002 620.217C1026.32 635.723 1051.74 597.659 1089.59 589.377C1156.81 574.66 1170.26 619.315 1247.32 602.475C1321.05 586.36 1370.38 567.458 1460.25 600.542C1550.87 633.885 1574.99 616.203 1689.61 568.695C1802.65 521.843 1903.59 595.661 1996.84 694.766" stroke="#9C5849" stroke-linecap="round" stroke-linejoin="round"/>
<path d="M774.458 596.83C774.458 596.83 806.776 604.11 877.99 581.137C945.92 559.234 941.048 618.308 982.542 634.107C1030.27 652.273 1056.16 616.955 1095.63 606.929C1159.76 590.639 1175.96 626.365 1251.75 615.985C1325.66 605.847 1373.09 590.537 1462.35 616.349C1675.27 677.913 1717.02 418.976 1989.13 711.312" stroke="#9C5849" stroke-linecap="round" stroke-linejoin="round"/>
<path d="M771.618 612.895C771.618 612.895 809.901 611.177 881.166 591.848C947.798 573.78 945.624 630.402 986.08 647.979C1034.23 668.909 1060.54 636.304 1101.66 624.464C1162.71 606.878 1181.78 633.536 1256.17 629.46C1330.39 625.402 1375.81 613.547 1464.44 632.138C1677.12 676.74 1719.88 444.007 1981.42 727.842" stroke="#9C5849" stroke-linecap="round" stroke-linejoin="round"/>
<path d="M768.78 628.939C768.78 628.939 812.976 618.189 884.326 602.557C949.61 588.253 950.184 642.544 989.62 661.831C1038.18 685.577 1064.93 655.718 1107.71 641.979C1165.73 623.338 1187.69 640.824 1260.61 642.933C1335.24 645.076 1378.63 636.519 1466.54 647.925C1675.18 674.993 1722.14 468.741 1973.7 744.386" stroke="#9C5849" stroke-linecap="round" stroke-linejoin="round"/>
<path d="M765.941 645.005C765.941 645.005 816.016 625.135 887.486 613.269C951.386 602.662 954.726 654.777 993.159 675.705C1042.12 702.353 1069.31 675.257 1113.73 659.515C1168.75 640.01 1193.65 648.325 1265.03 656.409C1340.13 664.909 1381.44 659.427 1468.63 663.715C1559.21 668.177 1590.56 638.474 1695.75 618.325C1794.56 599.401 1859.99 643.758 1965.97 760.917" stroke="#9C5849" stroke-linecap="round" stroke-linejoin="round"/>
<path d="M763.104 661.067C763.104 661.067 818.989 632.01 890.648 623.978C953.13 616.981 959.235 667.076 996.683 689.558C1046 719.177 1073.71 694.863 1119.76 677.031C1171.82 656.868 1199.62 655.977 1269.46 669.883C1345.03 684.929 1384.27 682.262 1470.72 679.502C1561.37 676.606 1594.24 643.881 1697.27 630.727C1792.33 618.59 1849.08 655.777 1958.25 777.445" stroke="#9C5849" stroke-linecap="round" stroke-linejoin="round"/>
<path d="M760.265 677.114C760.265 677.114 821.959 638.782 893.825 634.689C954.854 631.215 963.725 679.41 1000.24 703.43C1090.72 762.977 1122.92 640.153 1273.89 683.357C1349.94 705.124 1387.13 705.047 1472.82 695.274C1563.55 684.932 1597.88 649.15 1698.82 643.113C1790.09 637.66 1838.2 667.78 1950.53 793.956" stroke="#9C5849" stroke-linecap="round" stroke-linejoin="round"/>
<path d="M757.425 693.177C757.425 693.177 824.895 645.45 896.984 645.399C956.543 645.362 968.181 691.797 1003.76 717.284C1099.82 786.126 1145.38 647.016 1278.3 696.832C1354.74 725.473 1389.94 727.745 1474.89 711.062C1565.69 693.224 1601.46 654.299 1700.32 655.515C1787.76 656.591 1827.26 679.799 1942.78 810.502" stroke="#9C5849" stroke-linecap="round" stroke-linejoin="round"/>
<path d="M754.588 709.224C754.588 709.224 827.85 651.997 900.146 656.109C958.252 659.406 972.603 704.217 1007.3 731.155C1110.52 811.296 1160.61 653.549 1282.72 710.306C1359.47 745.978 1392.74 750.408 1476.98 726.851C1567.83 701.447 1605.02 659.274 1701.86 667.918C1785.44 675.384 1816.37 691.819 1935.07 827.031" stroke="#9C5849" stroke-linecap="round" stroke-linejoin="round"/>
<path d="M751.749 725.287C751.749 725.287 830.82 658.441 903.305 666.82C959.959 673.364 976.972 716.673 1010.82 745.027C1120.6 836.984 1172.74 660.099 1287.14 723.798C1364.08 766.638 1395.51 773.02 1479.07 742.657C1569.92 709.635 1608.61 664.095 1703.37 680.338C1783.13 694.021 1805.44 703.856 1927.33 843.577" stroke="#9C5849" stroke-linecap="round" stroke-linejoin="round"/>
<path d="M748.909 741.351C748.909 741.351 833.825 664.781 906.482 677.53C961.735 687.234 981.341 729.127 1014.38 758.881C1130.58 863.518 1182.33 666.198 1291.58 737.254C1368.56 787.332 1398.25 795.562 1481.17 758.427C1571.97 717.754 1612.29 668.655 1704.91 692.723C1780.9 712.468 1794.55 715.857 1919.61 860.106" stroke="#9C5849" stroke-linecap="round" stroke-linejoin="round"/>
<path d="M746.072 757.398C746.072 757.398 836.901 670.967 909.643 688.242C963.53 701.038 985.66 741.619 1017.9 772.754C1139.69 890.279 1190.64 672.144 1295.98 750.748C1372.88 808.132 1400.93 818.123 1483.24 774.217C1573.96 725.84 1616.06 673.062 1706.43 705.127C1778.75 730.797 1783.64 727.879 1911.88 876.636" stroke="#9C5849" stroke-linecap="round" stroke-linejoin="round"/>
<path d="M743.234 773.462C743.234 773.462 840.063 677.065 912.804 698.952C965.394 714.787 989.927 754.108 1021.44 786.607C1148.89 918.056 1198.14 677.915 1300.42 764.204C1377.11 828.913 1403.59 840.631 1485.35 789.988C1575.93 733.889 1620.05 677.278 1707.96 717.513C1776.76 749.002 1772.73 739.863 1904.17 893.147" stroke="#9C5849" stroke-linecap="round" stroke-linejoin="round"/>
<path d="M740.395 789.508C740.395 789.508 843.31 683.042 915.963 709.662C967.325 728.486 994.174 766.615 1024.96 800.479C1156.72 945.35 1205.3 683.79 1304.83 777.696C1381.2 849.746 1406.17 863.156 1487.42 805.794C1577.81 741.974 1624.2 681.407 1709.48 729.932C1774.9 767.173 1761.82 751.9 1896.42 909.693" stroke="#9C5849" stroke-linecap="round" stroke-linejoin="round"/>
<path d="M737.557 805.571C737.557 805.571 846.68 688.968 919.142 720.372C969.362 742.132 998.407 779.105 1028.52 814.333C1164.54 973.439 1212.23 689.716 1309.28 791.153C1385.24 870.527 1408.76 885.664 1489.54 821.565C1579.69 750.023 1628.64 685.415 1711.03 742.318C1773.28 785.292 1750.95 763.902 1888.73 926.222" stroke="#9C5849" stroke-linecap="round" stroke-linejoin="round"/>
<path d="M738.452 821.394C738.452 821.394 842.784 714.912 915.437 741.514C966.799 760.338 993.493 797.189 1024.28 831.053C1157.93 977.997 1206.24 709.562 1303.21 810.912C1379.17 890.286 1403.97 901.296 1484.77 837.196C1574.92 765.655 1622.77 707.006 1706.89 765.221C1769.1 808.248 1749.37 790.175 1885.74 937.449" stroke="#9C5849" stroke-linecap="round" stroke-linejoin="round"/>
<path d="M739.365 837.216C739.365 837.216 839.029 740.769 911.77 762.672C964.359 778.508 988.581 815.29 1020.08 847.789C1151.4 983.212 1199.72 728.819 1297.19 830.688C1373.15 910.062 1399.25 916.961 1480.03 852.844C1638.43 727.15 1638.26 709.047 1882.8 948.675" stroke="#9C5849" stroke-linecap="round" stroke-linejoin="round"/>
<path d="M740.259 853.023C740.259 853.023 835.34 766.523 908.065 783.798C961.952 796.594 983.599 833.357 1015.84 864.492C1145.35 989.464 1192.63 747.474 1291.12 850.414C1367.06 929.788 1394.45 932.558 1475.25 868.459C1633.9 742.575 1631.03 741.503 1879.82 959.886" stroke="#9C5849" stroke-linecap="round" stroke-linejoin="round"/>
<path d="M741.169 868.846C741.169 868.846 831.754 792.191 904.393 804.957C959.646 814.662 978.614 851.476 1011.64 881.23C1136.38 993.556 1187.47 768.184 1285.1 870.191C1361.06 949.565 1389.73 948.225 1470.51 884.108C1627.93 759.191 1619.9 772.386 1876.88 971.113" stroke="#9C5849" stroke-linecap="round" stroke-linejoin="round"/>
<path d="M742.065 884.669C742.065 884.669 828.205 817.738 900.69 826.099C957.344 832.643 973.564 869.595 1007.41 897.95C1128.49 999.376 1181.26 787.753 1279.04 889.951C1354.99 969.325 1384.96 963.856 1465.76 899.757C1625.88 772.699 1610.23 806.551 1873.9 982.358" stroke="#9C5849" stroke-linecap="round" stroke-linejoin="round"/>
<path d="M742.976 900.49C742.976 900.49 824.724 843.145 897.02 847.257C955.126 850.553 968.511 887.729 1003.21 914.685C1120.25 1005.56 1174.88 807.148 1273.01 909.726C1348.95 989.099 1380.22 979.503 1461 915.404C1551.15 843.862 1593.54 814.991 1686.35 879.739C1748.42 922.973 1741.71 921.52 1870.94 993.6" stroke="#9C5849" stroke-linecap="round" stroke-linejoin="round"/>
<path d="M743.887 916.315C743.887 916.315 821.26 868.452 893.349 868.401C952.908 868.364 963.425 905.902 999.005 931.389C1111.57 1012.05 1168.32 826.34 1266.99 929.453C1342.94 1008.83 1375.48 995.119 1456.27 931.02C1546.43 859.479 1587.72 836.55 1682.26 902.61C1744.32 945.896 1740.2 947.743 1868.02 1004.8" stroke="#9C5849" stroke-linecap="round" stroke-linejoin="round"/>
<path d="M744.784 932.119C744.784 932.119 817.782 893.635 889.648 889.542C950.677 886.068 958.272 924.089 994.769 948.108C1102.41 1018.94 1161.56 845.372 1260.92 949.211C1336.88 1028.58 1370.7 1010.75 1451.49 946.651C1541.64 875.109 1581.84 858.139 1678.11 925.513C1740.13 968.833 1738.63 974.015 1865.01 1016.02" stroke="#9C5849" stroke-linecap="round" stroke-linejoin="round"/>
<path d="M745.696 947.942C745.696 947.942 814.318 918.715 885.978 910.683C948.459 903.686 953.116 942.328 990.564 964.827C1092.9 1026.29 1154.61 864.146 1254.9 968.97C1330.85 1048.34 1365.96 1026.4 1446.76 962.281C1536.91 890.74 1576.03 879.729 1674.03 948.399C1736.01 991.771 1737.12 1000.27 1862.07 1027.23" stroke="#9C5849" stroke-linecap="round" stroke-linejoin="round"/>
<path d="M746.589 963.765C967.057 894.881 927.637 949.594 986.341 981.547C1081.7 1033.46 1147.85 883.163 1248.84 988.73C1324.8 1068.1 1361.21 1042.03 1441.99 977.931C1532.14 906.389 1570.16 901.337 1669.91 971.32C1731.87 1014.73 1735.57 1026.54 1859.11 1038.48" stroke="#9C5849" stroke-linecap="round" stroke-linejoin="round"/>
<path d="M747.504 979.587C747.504 979.587 807.256 968.616 878.606 952.985C943.889 938.681 942.686 978.997 982.123 998.284C1071.12 1041.8 1140.14 901.195 1242.81 1008.49C1318.77 1087.86 1356.45 1057.66 1437.25 993.562C1527.4 922.02 1564.32 922.91 1665.81 994.206C1727.74 1037.66 1734.04 1052.8 1856.15 1049.68" stroke="#9C5849" stroke-linecap="round" stroke-linejoin="round"/>
<path d="M748.415 995.392C748.415 995.392 803.67 993.437 874.935 974.108C941.568 956.039 937.461 997.409 977.917 1014.99C1061.44 1051.28 1131.32 918.016 1236.77 1028.23C1312.73 1107.6 1351.71 1073.29 1432.49 1009.19C1522.64 937.65 1558.47 944.5 1661.69 1017.09C1723.6 1060.58 1732.5 1079.05 1853.18 1060.91" stroke="#9C5849" stroke-linecap="round" stroke-linejoin="round"/>
<path d="M749.31 1011.22C749.31 1011.22 800.018 1018.24 871.232 995.268C939.161 973.365 932.185 1015.93 973.679 1031.71C1021.41 1049.87 1049.26 1018.91 1088.5 1007.95C1121.74 998.665 1171.55 986.154 1230.7 1047.97C1306.66 1127.35 1346.92 1088.91 1427.72 1024.81C1517.87 953.265 1552.61 966.074 1657.55 1039.98C1719.43 1083.52 1730.94 1105.31 1850.2 1072.12" stroke="#9C5849" stroke-linecap="round" stroke-linejoin="round"/>
<path d="M750.221 1027.04C750.221 1027.04 796.312 1042.99 867.561 1016.41C936.719 990.603 926.942 1034.49 969.491 1048.43C1016.81 1063.93 1044.23 1030.19 1081.96 1021.28C1115.72 1013.31 1165.55 1005.91 1224.71 1067.75C1300.67 1147.12 1342.23 1104.57 1423.01 1040.47C1513.16 968.931 1546.81 987.681 1653.5 1062.9C1715.35 1106.48 1729.44 1131.58 1847.29 1083.37" stroke="#9C5849" stroke-linecap="round" stroke-linejoin="round"/>
<path d="M751.116 1042.86C751.116 1042.86 792.538 1067.71 863.857 1037.57C934.209 1007.82 921.667 1053.18 965.253 1065.16C1012.17 1078.06 1039.13 1041.55 1075.36 1034.62C1109.61 1028.06 1159.48 1025.69 1218.64 1087.51C1294.6 1166.88 1337.44 1120.2 1418.24 1056.1C1508.39 984.562 1540.95 1009.27 1649.36 1085.8C1711.19 1129.42 1727.9 1157.85 1844.3 1094.59" stroke="#9C5849" stroke-linecap="round" stroke-linejoin="round"/>
<path d="M752.026 1058.68C752.026 1058.68 788.711 1092.43 860.186 1058.71C931.662 1024.99 916.441 1071.96 961.047 1081.88C1007.61 1092.26 1034.03 1052.97 1068.78 1047.93C1103.56 1042.9 1153.44 1045.43 1212.6 1107.27C1288.56 1186.64 1332.7 1135.85 1413.48 1071.74C1503.63 1000.19 1535.1 1030.86 1645.24 1108.69C1707.04 1152.36 1726.35 1184.11 1841.34 1105.8" stroke="#9C5849" stroke-linecap="round" stroke-linejoin="round"/>
<path d="M754.098 1077.13C754.098 1077.13 790.782 1110.88 862.258 1077.16C933.734 1043.44 918.513 1090.39 963.119 1100.33C1009.68 1110.71 1036.1 1071.42 1070.86 1066.38C1105.63 1061.34 1152.47 1069.3 1212.44 1125.89C1288.82 1197.94 1331.23 1147.32 1412.47 1089.94C1502.87 1026.12 1531.51 1057.96 1643.63 1124.74C1708.28 1163.24 1730.17 1192.02 1843.41 1124.25" stroke="#9C5849" stroke-linecap="round" stroke-linejoin="round"/>
<path d="M756.15 1095.56C756.15 1095.56 792.834 1129.31 864.31 1095.59C935.786 1061.87 920.565 1108.84 965.171 1118.76C1044.48 1136.44 1055.85 1012.52 1212.27 1144.51C1288.95 1209.22 1329.69 1158.79 1411.45 1108.15C1502.03 1052.05 1528.41 1084.89 1642 1140.78C1709.82 1174.14 1733.97 1199.95 1845.45 1142.7" stroke="#9C5849" stroke-linecap="round" stroke-linejoin="round"/>
<path d="M758.22 1114.01C758.22 1114.01 794.904 1147.76 866.38 1114.04C937.856 1080.32 922.634 1127.28 967.24 1137.21C1054.76 1156.7 1037.01 1032.48 1212.11 1163.13C1289 1220.52 1328.13 1170.26 1410.44 1126.35C1501.16 1077.98 1525.8 1111.54 1640.39 1156.83C1711.65 1184.99 1737.79 1207.86 1847.52 1161.13" stroke="#9C5849" stroke-linecap="round" stroke-linejoin="round"/>
<path d="M760.288 1132.46C760.288 1132.46 796.972 1166.21 868.448 1132.49C939.924 1098.77 924.703 1145.73 969.309 1155.66C1015.87 1166.04 1042.29 1126.75 1077.05 1121.71C1111.8 1116.67 1149.01 1140.82 1211.95 1181.77C1288.93 1231.85 1326.53 1181.73 1409.44 1144.58C1500.24 1103.9 1523.61 1137.82 1638.78 1172.89C1713.72 1195.71 1741.62 1215.81 1849.59 1179.6" stroke="#9C5849" stroke-linecap="round" stroke-linejoin="round"/>
<path d="M762.341 1150.91C762.341 1150.91 799.025 1184.65 870.501 1150.94C941.977 1117.22 926.755 1164.18 971.362 1174.11C1017.92 1184.48 1044.34 1145.19 1079.1 1140.16C1113.86 1135.12 1147.64 1164.69 1211.77 1200.39C1288.7 1243.23 1324.87 1193.16 1408.43 1162.78C1499.28 1129.76 1521.76 1163.64 1637.17 1188.94C1716.01 1206.22 1745.44 1223.72 1851.66 1198.05" stroke="#9C5849" stroke-linecap="round" stroke-linejoin="round"/>
<path d="M764.411 1169.36C764.411 1169.36 801.095 1203.1 872.571 1169.39C944.047 1135.67 928.826 1182.61 973.432 1192.56C1019.99 1202.93 1046.41 1163.64 1081.17 1158.61C1115.94 1153.57 1146.18 1188.59 1211.61 1219.01C1288.36 1254.68 1323.18 1204.55 1407.42 1180.99C1498.27 1155.59 1520.13 1189 1635.56 1204.99C1718.45 1216.48 1749.26 1231.65 1853.73 1216.48" stroke="#9C5849" stroke-linecap="round" stroke-linejoin="round"/>
<path d="M766.479 1187.81C766.479 1187.81 803.164 1221.55 874.64 1187.83C946.115 1154.12 930.894 1201.08 975.5 1211.01C1022.06 1221.38 1048.48 1182.09 1083.24 1177.06C1118.01 1172.02 1144.64 1212.6 1211.45 1237.65C1287.89 1266.29 1321.45 1215.91 1406.42 1199.21C1497.21 1181.38 1518.6 1213.91 1633.96 1221.05C1720.99 1226.45 1753.11 1239.58 1855.81 1234.94" stroke="#9C5849" stroke-linecap="round" stroke-linejoin="round"/>
<path d="M768.53 1206.26C768.53 1206.26 805.215 1240 876.69 1206.28C948.166 1172.57 932.945 1219.53 977.551 1229.46C1024.11 1239.83 1050.53 1200.54 1085.29 1195.5C1120.06 1190.47 1142.97 1236.73 1211.27 1256.27C1287.31 1278.04 1319.68 1227.19 1405.39 1217.42C1496.11 1207.08 1517.09 1238.4 1632.33 1237.1C1723.51 1236.07 1756.91 1247.49 1857.85 1253.37" stroke="#9C5849" stroke-linecap="round" stroke-linejoin="round"/>
<path d="M770.602 1224.7C770.602 1224.7 807.287 1258.45 878.763 1224.73C950.238 1191.01 935.017 1237.98 979.623 1247.9C1026.18 1258.28 1052.6 1218.99 1087.36 1213.95C1122.12 1208.92 1141.29 1261 1211.11 1274.91C1286.69 1289.95 1317.93 1238.42 1404.39 1235.64C1495.04 1232.74 1515.53 1262.55 1630.73 1253.16C1725.99 1245.39 1760.73 1255.44 1859.92 1271.84" stroke="#9C5849" stroke-linecap="round" stroke-linejoin="round"/>
<path d="M772.671 1243.15C772.671 1243.15 809.355 1276.9 880.831 1243.18C952.307 1209.46 937.085 1256.42 981.692 1266.35C1028.25 1276.73 1054.67 1237.44 1089.43 1232.4C1124.2 1227.37 1139.57 1285.44 1210.95 1293.53C1286.05 1302.03 1316.17 1249.56 1403.38 1253.85C1493.96 1258.31 1513.83 1286.38 1629.11 1269.21C1728.36 1254.43 1764.55 1263.35 1861.99 1290.29" stroke="#9C5849" stroke-linecap="round" stroke-linejoin="round"/>
<path d="M774.741 1261.6C774.741 1261.6 811.426 1295.35 882.901 1261.63C954.377 1227.91 939.156 1274.87 983.762 1284.8C1030.32 1295.18 1056.74 1255.88 1091.5 1250.85C1126.27 1245.81 1137.87 1310.06 1210.79 1312.15C1285.42 1314.29 1314.44 1260.65 1402.37 1272.05C1492.9 1283.8 1511.97 1309.98 1627.5 1285.25C1730.6 1263.19 1768.38 1271.28 1864.06 1308.72" stroke="#9C5849" stroke-linecap="round" stroke-linejoin="round"/>
<path d="M776.792 1280.05C776.792 1280.05 813.476 1313.79 884.952 1280.08C956.428 1246.36 941.206 1293.32 985.813 1303.25C1032.37 1313.62 1058.79 1274.33 1093.55 1269.3C1128.31 1264.26 1136.22 1334.85 1210.61 1330.79C1284.83 1326.73 1312.72 1271.69 1401.35 1290.28C1491.87 1309.27 1509.89 1333.45 1625.87 1301.32C1732.66 1271.72 1772.18 1279.21 1866.11 1327.19" stroke="#9C5849" stroke-linecap="round" stroke-linejoin="round"/>
<path d="M778.86 1298.5C778.86 1298.5 815.545 1332.24 887.02 1298.53C958.496 1264.81 943.275 1311.77 987.881 1321.7C1034.44 1332.07 1060.86 1292.78 1095.62 1287.75C1130.38 1282.71 1134.66 1359.81 1210.45 1349.41C1284.36 1339.27 1311.07 1282.67 1400.34 1308.48C1490.88 1334.66 1507.62 1356.79 1624.26 1317.37C1734.56 1280.08 1776 1287.14 1868.18 1345.64" stroke="#9C5849" stroke-linecap="round" stroke-linejoin="round"/>
<path d="M768.657 88.1761C768.657 88.1761 805.341 121.921 876.817 88.2031C948.293 54.4858 933.071 101.449 977.678 111.375C1024.24 121.751 1050.66 82.46 1085.41 77.4248C1120.19 72.3897 1114.36 165.821 1193.56 135.837C1267.33 107.906 1289.99 49.8211 1380.92 97.4498C1471.86 145.096 1483.28 160.887 1603.03 99.8374C1722.8 38.788 1771.08 45.2259 1857.97 135.295" stroke="#9C5849" stroke-linecap="round" stroke-linejoin="round"/>
<path d="M764.409 75.5309C764.409 75.5309 800.298 110.363 871.774 76.646C943.25 42.9286 930.38 87.4221 974.969 97.3655C1021.53 107.741 1046.39 69.8148 1081.15 64.7796C1115.91 59.7445 1113.57 154.109 1192.77 124.125C1266.54 96.1949 1289.15 35.7776 1380.08 83.4063C1471.01 131.052 1488.12 143.684 1603.23 86.226C1718.44 28.7511 1770.34 35.2071 1853.71 122.65" stroke="#9C5849" stroke-linecap="round" stroke-linejoin="round"/>
<path d="M760.142 62.8689C760.142 62.8689 795.253 98.8067 866.712 65.0893C938.187 31.3719 927.651 73.4132 972.257 83.3566C1018.82 93.7324 1042.12 57.1701 1076.9 52.1349C1111.68 47.0998 1112.78 138.615 1191.98 108.631C1265.75 80.7009 1288.3 21.7346 1379.24 69.3633C1470.17 116.992 1492.98 126.464 1603.44 72.6151C1714.08 18.732 1769.59 25.1889 1849.46 110.005" stroke="#9C5849" stroke-linecap="round" stroke-linejoin="round"/>
<path d="M755.893 50.222C755.893 50.222 790.208 87.2479 861.667 53.5305C933.142 19.8131 924.957 59.4021 969.564 69.3283C1016.12 79.7041 1037.87 44.4887 1072.65 39.4535C1107.41 34.4183 1112 123.085 1191.2 93.1004C1264.97 65.1702 1287.47 7.65483 1378.41 55.3009C1469.34 102.947 1497.84 109.224 1603.65 58.9847C1709.74 8.67607 1768.87 15.1512 1845.21 97.3407" stroke="#9C5849" stroke-linecap="round" stroke-linejoin="round"/>
<path d="M751.645 37.5607C751.645 37.5607 785.165 75.6919 856.641 41.9745C928.117 8.25706 922.283 45.3938 966.872 55.32C1013.43 65.6958 1033.64 31.8446 1068.4 26.8095C1103.18 21.7743 1111.23 107.574 1190.41 77.6071C1264.18 49.6769 1286.63 -6.38753 1377.57 41.2585C1468.5 88.9045 1502.7 92.0224 1603.84 45.3745C1705.38 -1.3597 1768.13 5.13361 1840.94 84.6967" stroke="#9C5849" stroke-linecap="round" stroke-linejoin="round"/>
<path d="M747.395 24.897C747.395 24.897 780.12 64.1162 851.596 30.3988C923.072 -3.31858 919.572 31.3486 964.178 41.2921C1010.74 51.6679 1029.39 19.181 1064.15 14.1458C1098.91 9.11061 1110.44 92.0612 1189.64 62.0941C1263.41 34.1639 1285.8 -20.4495 1376.74 27.1965C1467.67 74.8426 1507.56 74.7835 1604.05 31.7446C1701.02 -11.4151 1767.39 -4.90361 1836.71 72.0503" stroke="#9C5849" stroke-linecap="round" stroke-linejoin="round"/>
<path d="M743.13 12.2509C743.13 12.2509 775.06 52.5754 846.536 18.858C918.011 -14.8594 916.863 17.3555 961.469 27.299C1008.03 37.6748 1025.13 6.55209 1059.89 1.49963C1094.65 -3.53555 1109.65 76.5658 1188.83 46.5814C1262.6 18.6512 1284.96 -34.5112 1375.9 13.1348C1466.83 60.7808 1512.42 57.5448 1604.24 18.1149C1696.67 -21.4702 1766.65 -14.9406 1832.45 59.3869" stroke="#9C5849" stroke-linecap="round" stroke-linejoin="round"/>
<path d="M738.882 -0.410658C738.882 -0.410658 770.016 41.0019 841.492 7.30178C912.968 -26.4156 914.17 3.34706 958.759 13.2733C1005.32 23.6491 1020.86 -6.1267 1055.64 -11.1619C1090.41 -16.1971 1108.85 61.055 1188.05 31.0707C1261.83 3.15774 1284.14 -48.5538 1375.07 -0.925018C1466 46.721 1517.3 40.3254 1604.46 4.48724C1692.32 -31.5062 1765.91 -24.9756 1828.2 46.7254" stroke="#9C5849" stroke-linecap="round" stroke-linejoin="round"/>
<path d="M734.633 -13.0564C734.633 -13.0564 764.972 29.4442 836.448 -4.25592C907.924 -37.9733 911.46 -10.6802 956.066 -0.736703C1002.63 9.6391 1016.61 -18.7724 1051.39 -23.8076C1086.15 -28.8428 1108.08 45.56 1187.28 15.5756C1261.05 -12.3545 1283.31 -62.6151 1374.24 -14.9691C1465.18 32.677 1522.16 23.1044 1604.68 -9.1247C1688 -41.5436 1765.2 -34.9949 1823.97 34.0796" stroke="#9C5849" stroke-linecap="round" stroke-linejoin="round"/>
<path d="M730.367 -25.7183C730.367 -25.7183 759.928 17.8876 831.387 -15.8298C902.862 -49.5472 908.75 -24.6891 953.339 -14.7629C999.898 -4.38705 1012.35 -31.4343 1047.11 -36.4695C1081.9 -41.5047 1107.29 30.0488 1186.49 0.0817161C1260.26 -27.8485 1282.47 -76.658 1373.4 -29.012C1464.33 18.634 1527.02 5.88454 1604.88 -22.7356C1683.63 -51.58 1764.44 -45.0131 1819.7 21.435" stroke="#9C5849" stroke-linecap="round" stroke-linejoin="round"/>
<path d="M726.119 -38.3804C726.119 -38.3804 754.884 6.33082 826.36 -27.3866C897.836 -61.104 906.057 -38.7154 950.663 -28.7719C997.223 -18.3961 1008.12 -44.0964 1042.88 -49.1316C1077.63 -54.1668 1106.5 14.5202 1185.7 -15.4469C1259.47 -43.3771 1281.62 -90.7357 1372.56 -43.0897C1463.49 4.55635 1531.87 -11.3528 1605.07 -36.3811C1679.26 -61.6511 1763.7 -55.066 1815.43 8.77287" stroke="#9C5849" stroke-linecap="round" stroke-linejoin="round"/>
</g>
</g>
</svg>
