<svg width="26" height="26" viewBox="0 0 26 26" fill="none" xmlns="http://www.w3.org/2000/svg">
<path d="M0.286078 12.7442C0.286078 10.517 0.275004 8.28963 0.288626 6.06242C0.310014 2.5782 2.80189 0.0977743 6.28574 0.0924275C10.8031 0.085553 15.3202 0.0887356 19.8376 0.0924275C23.1313 0.0951009 25.6917 2.63154 25.7041 5.93524C25.7212 10.5382 25.7249 15.1413 25.7095 19.7442C25.6991 22.8712 23.2216 25.4661 20.0909 25.5064C15.3624 25.5674 10.632 25.5701 5.90344 25.5068C2.74257 25.4645 0.286462 22.8418 0.282643 19.6803C0.279842 17.3682 0.28213 15.0562 0.28213 12.7441C0.283276 12.7442 0.284677 12.7442 0.286078 12.7442ZM12.9422 23.3379C15.232 23.3379 17.5221 23.3505 19.8118 23.3342C21.9317 23.3192 23.5084 21.8166 23.5223 19.7063C23.5523 15.1261 23.5489 10.5454 23.511 5.96529C23.4928 3.76481 21.9385 2.27928 19.7323 2.27304C15.2586 2.26019 10.785 2.26082 6.31133 2.27203C4.00722 2.27788 2.48452 3.79829 2.47599 6.10851C2.45931 10.6043 2.45728 15.1001 2.46543 19.5959C2.46937 21.7696 4.02568 23.3208 6.19968 23.3333C8.44713 23.3463 10.6947 23.3363 12.9422 23.3379Z" fill="black"/>
<path d="M12.9871 20.9726C11.7357 20.9726 10.4843 20.979 9.23284 20.9712C6.83249 20.9565 4.87389 19.0823 4.83226 16.6863C4.7877 14.12 4.78783 11.5523 4.81813 8.98581C4.84588 6.63536 6.68494 4.69892 9.02851 4.63616C11.6776 4.56525 14.3317 4.56308 16.9805 4.63705C19.3213 4.70236 21.1561 6.65955 21.1763 9.00095C21.198 11.5253 21.1961 14.0503 21.1646 16.5745C21.1335 19.0619 19.2308 20.9375 16.7411 20.9721C15.4899 20.9896 14.2384 20.9752 12.9871 20.9752C12.9871 20.9744 12.9871 20.9735 12.9871 20.9726ZM19.434 12.859C19.4383 12.859 19.4427 12.859 19.4471 12.859C19.4471 11.6288 19.4653 10.3983 19.4426 9.16849C19.4127 7.5428 18.303 6.37579 16.6904 6.35084C14.231 6.3129 11.77 6.31214 9.31062 6.3502C7.69332 6.37528 6.55776 7.55629 6.54847 9.1606C6.53447 11.5785 6.53497 13.9968 6.56082 16.4146C6.57902 18.1097 7.73407 19.2315 9.42978 19.2382C11.7837 19.2477 14.1378 19.2479 16.4917 19.239C18.2812 19.2322 19.401 18.1363 19.4303 16.3583C19.4496 15.1923 19.434 14.0255 19.434 12.859Z" fill="black"/>
<path d="M8.5236 12.7687C8.5026 10.373 10.5017 8.36003 12.9243 8.33724C15.4031 8.31394 17.4552 10.2756 17.4761 12.6882C17.4983 15.2401 15.5415 17.2677 13.0371 17.2878C10.5217 17.3081 8.54601 15.33 8.5236 12.7687ZM15.7141 12.7439C15.7013 11.2538 14.4788 10.0738 12.9657 10.0913C11.4619 10.1086 10.2482 11.3301 10.2683 12.806C10.2892 14.3377 11.5169 15.5516 13.0279 15.5346C14.5444 15.5175 15.7273 14.2886 15.7141 12.7439Z" fill="black"/>
<path d="M17.3817 7.48345C17.9202 7.52036 18.3714 8.03442 18.3267 8.56007C18.2808 9.10048 17.7629 9.53968 17.2355 9.48558C16.7183 9.43249 16.3062 8.95739 16.329 8.44027C16.3533 7.88433 16.8357 7.44589 17.3817 7.48345Z" fill="black"/>
</svg>
