<svg width="100" height="66" viewBox="0 0 100 66" fill="none" xmlns="http://www.w3.org/2000/svg">
<path d="M63.0345 15.2425C63.0345 8.7383 57.3998 3.40474 50.3152 3.02448C50.1692 3.00995 50.0232 3 49.8739 3C49.83 3 49.7861 3.00383 49.7422 3.00536C49.6637 3.00383 49.5852 3 49.5051 3C42.045 3 35.9756 8.49194 35.9756 15.2425C35.9756 21.993 42.045 27.485 49.5051 27.485C49.5844 27.485 49.6637 27.4804 49.7422 27.4788C49.7861 27.4804 49.83 27.485 49.8739 27.485C50.0224 27.485 50.1684 27.4758 50.3152 27.4605C57.3998 27.0802 63.0345 21.7467 63.0345 15.2425ZM60.5171 19.1835C60.0522 19.0611 58.8842 18.7956 56.8234 18.5761C56.9939 17.5194 57.0875 16.4031 57.0875 15.2425C57.0875 14.3274 57.0293 13.4414 56.9213 12.5883C59.5323 12.3052 60.6766 11.9495 60.7526 11.925L60.4387 11.1216C61.0252 12.3909 61.3501 13.7827 61.3501 15.2425C61.3501 16.6334 61.053 17.9624 60.5171 19.1835ZM43.5311 15.2425C43.5311 14.3863 43.5935 13.5501 43.7083 12.7459C45.0763 12.8431 46.7134 12.9158 48.6359 12.9319V18.2409C46.7632 18.257 45.164 18.3259 43.818 18.42C43.6324 17.4108 43.5311 16.3435 43.5311 15.2425ZM50.3211 4.63197C52.3904 5.17597 54.1626 7.78039 54.9558 11.2333C53.6799 11.3251 52.144 11.3932 50.3211 11.4085V4.63197ZM48.6367 4.65034V11.4078C46.8341 11.3917 45.2906 11.3244 43.9936 11.2348C44.8037 7.82477 46.5894 5.23947 48.6367 4.65034ZM48.6367 19.7666V25.8331C46.7269 25.2837 45.0451 22.9984 44.1699 19.9272C45.429 19.8431 46.916 19.7826 48.6367 19.7666ZM50.3211 25.853V19.7666C52.0604 19.7819 53.5398 19.8446 54.7837 19.9326C53.9237 23.0443 52.252 25.3465 50.3211 25.853ZM50.3211 18.2417V12.9326C52.2545 12.9166 53.8807 12.8423 55.2309 12.7413C55.3415 13.547 55.4023 14.384 55.4023 15.2417C55.4023 16.345 55.3044 17.4146 55.1246 18.4246C53.7955 18.3266 52.203 18.2578 50.3211 18.2417ZM60.1281 10.5065C59.8732 10.5784 58.8082 10.8531 56.6732 11.0811C56.1972 8.78727 55.3364 6.8263 54.2174 5.41009C56.7896 6.42385 58.8884 8.23869 60.1289 10.5065H60.1281ZM45.4653 5.16678C44.0881 6.59983 42.9648 8.66179 42.3505 11.0994C40.439 10.912 39.293 10.6909 38.8348 10.5906C40.1724 8.08873 42.5539 6.12546 45.4645 5.16755L45.4653 5.16678ZM38.2086 12.0191C38.5335 12.0987 39.7622 12.3764 42.0475 12.6052C41.9167 13.4521 41.845 14.3343 41.845 15.2425C41.845 16.397 41.9598 17.5072 42.1682 18.5585C40.2061 18.7505 38.9993 18.9808 38.4584 19.0986C37.9462 17.9005 37.6618 16.6013 37.6618 15.2417C37.6618 14.1193 37.8542 13.0359 38.2095 12.0183L38.2086 12.0191ZM39.196 20.511C39.8095 20.3932 40.9083 20.2126 42.5344 20.0588C43.175 22.2034 44.2163 24.0183 45.4653 25.3182C42.7986 24.4398 40.5791 22.7176 39.196 20.511ZM54.2166 25.0733C55.225 23.7994 56.0225 22.0841 56.5187 20.081C58.1913 20.2547 59.2412 20.459 59.7703 20.5799C58.5044 22.5661 56.5567 24.1522 54.2166 25.0733Z" fill="#EFEFDF"/>
<path d="M48.1543 20.6521C46.9135 20.9337 45.8488 21.5145 44.96 22.3768C44.2121 23.1072 43.7545 23.8112 43.3937 24.7615C42.1793 27.9822 43.5521 31.4317 46.6584 32.998C48.3919 33.8692 50.6622 33.8692 52.3957 32.998C54.1556 32.1092 55.414 30.5693 55.9156 28.7126C56.1268 27.9294 56.1268 26.3279 55.9156 25.5007C55.3348 23.248 53.6717 21.5057 51.419 20.7929C50.627 20.5465 48.9551 20.4761 48.1543 20.6521ZM50.6798 22.7816C52.9061 23.4416 54.2788 25.5183 53.9445 27.7358C53.6101 29.9181 51.7797 31.5197 49.615 31.5285C48.2599 31.5285 47.3271 31.1589 46.3944 30.2525C45.7168 29.5837 45.2592 28.6862 45.1096 27.7358C44.7752 25.5271 46.2096 23.3712 48.3919 22.7816C49.0343 22.6056 50.0902 22.6056 50.6798 22.7816Z" fill="#EFEFDF"/>
<path d="M35.2717 29.0631C34.1101 29.2478 33.195 29.7318 32.3854 30.603C30.8719 32.2133 30.6695 34.7564 31.9102 36.5603C32.2534 37.0531 33.019 37.7747 33.5118 38.0563C34.6293 38.7074 36.222 38.8834 37.3836 38.4875C38.7827 38.0035 39.8915 36.9827 40.4195 35.6716C40.921 34.4572 40.8594 32.9349 40.2787 31.7293C39.8827 30.9198 38.8707 29.9078 38.0876 29.5294C37.1636 29.0895 36.1604 28.9223 35.2717 29.0631ZM37.0316 31.3686C37.5596 31.5973 38.2108 32.2485 38.4484 32.7941C38.7299 33.4453 38.7211 34.3252 38.422 34.9588C37.9556 35.9796 37.0404 36.5691 35.9405 36.5779C33.5382 36.5867 32.3062 33.7093 33.9781 31.9845C34.8053 31.131 35.9493 30.9022 37.0316 31.3686Z" fill="#EFEFDF"/>
<path d="M62.7264 29.0284C61.3625 29.2308 60.6145 29.5916 59.7258 30.4716C58.7402 31.4483 58.2914 32.5131 58.3002 33.877C58.309 35.1442 58.7314 36.2177 59.5674 37.1153C60.5881 38.2065 61.6705 38.6816 63.1224 38.6816C64.46 38.6816 65.4367 38.2945 66.4135 37.3881C67.4606 36.4025 67.9358 35.3114 67.9446 33.8594C67.9446 32.4075 67.4694 31.334 66.3783 30.3044C65.6919 29.6708 64.8824 29.266 63.9672 29.0988C63.2984 28.9845 63.1312 28.9757 62.7264 29.0284ZM64.2224 31.3692C64.7504 31.5979 65.4015 32.2491 65.6391 32.7947C65.9207 33.4371 65.9119 34.317 65.6127 34.9682C64.6272 37.1241 61.6353 37.1153 60.6321 34.9682C60.3418 34.3434 60.333 33.4283 60.5969 32.8299C61.2217 31.4131 62.832 30.762 64.2224 31.3692Z" fill="#EFEFDF"/>
<path d="M47.2831 36.7725C44.2649 37.3269 41.7218 38.638 39.6715 40.6883L39.2139 41.1371L38.6331 40.9523C33.9781 39.4476 28.8831 42.1051 27.4136 46.7953C27.0704 47.8952 27 48.6696 27 51.4767C27 54.3277 27.0264 54.4949 27.5192 54.7853C27.748 54.9173 28.1528 54.9349 31.6462 54.9349H35.518L35.5532 56.5453C35.5796 58.3492 35.6412 58.534 36.1956 58.7716C36.6444 58.9564 62.4097 58.9564 62.8585 58.7716C63.4129 58.534 63.4745 58.3492 63.5009 56.5453L63.5361 54.9349H67.3991C71.6845 54.9349 71.6405 54.9437 71.9133 54.3717C72.0365 54.1166 72.0541 53.6942 72.0541 51.4415C72.0541 48.5992 71.9661 47.7456 71.5789 46.6017C70.0214 42.0259 64.9616 39.4564 60.421 40.9435L59.849 41.1371L59.145 40.4595C58.1595 39.5092 57.0595 38.7436 55.7308 38.0836C54.4636 37.4589 53.8917 37.2477 52.5189 36.9221C51.727 36.7285 51.3398 36.6933 49.791 36.6669C48.4535 36.6493 47.8023 36.6757 47.2831 36.7725ZM51.5158 38.8756C55.8012 39.606 59.4002 42.7034 60.7642 46.8393C61.2921 48.432 61.3361 48.8896 61.3801 53.0166L61.4241 56.7828H49.527H37.6299L37.6739 52.9726C37.7267 48.8104 37.7619 48.4232 38.2811 46.8481C39.6539 42.721 43.1825 39.6588 47.4591 38.8844C48.4095 38.7172 50.539 38.7084 51.5158 38.8756ZM37.0668 42.7474C37.4452 42.809 37.7707 42.8882 37.7971 42.9146C37.8235 42.941 37.7619 43.073 37.6563 43.2226C37.278 43.7506 36.4156 45.6777 36.1604 46.5753C35.738 48.0096 35.6148 48.9248 35.562 50.9487L35.5092 52.823H32.3062H29.1119V50.8519C29.1119 48.7136 29.1999 48.0184 29.5783 46.9977C30.0007 45.8889 30.8454 44.7626 31.7782 44.0674C33.3621 42.8706 35.2013 42.4131 37.0668 42.7474ZM64.9264 42.8882C67.0207 43.469 68.7454 45.0353 69.4934 47.0593C69.8542 48.0272 69.9422 48.7488 69.9422 50.8519V52.823H66.7479H63.5449L63.4921 50.9487C63.4393 48.9248 63.3161 48.0096 62.8937 46.5753C62.6385 45.6777 61.7761 43.7506 61.3977 43.2226C61.2921 43.073 61.2306 42.9322 61.2569 42.9146C61.2833 42.8882 61.5913 42.809 61.9521 42.7386C62.7793 42.5802 64.064 42.6418 64.9264 42.8882Z" fill="#EFEFDF"/>
<path d="M27.6424 62.0183C27.0968 62.2559 26.8592 62.9335 27.132 63.4703C27.4312 64.0422 25.6185 63.9982 49.527 63.9982C73.5148 63.9982 71.6229 64.0422 71.9133 63.4351C72.0981 63.0391 72.0893 62.7839 71.8781 62.4319C71.5173 61.8423 73.2684 61.8863 49.5094 61.8863C31.171 61.8951 27.88 61.9127 27.6424 62.0183Z" fill="#EFEFDF"/>
<ellipse cx="49.505" cy="27.056" rx="4.55381" ry="4.52081" fill="#EFEFDF"/>
<circle cx="35.9756" cy="33.8868" r="3.29986" fill="#EFEFDF"/>
<circle cx="63.1005" cy="33.8204" r="3.29986" fill="#EFEFDF"/>
</svg>
