<svg width="100" height="66" viewBox="0 0 100 66" fill="none" xmlns="http://www.w3.org/2000/svg">
<path d="M42.3481 10.6108C42.2319 10.2553 41.9245 9.9959 41.5536 9.94209L40.1259 9.73456L39.487 8.44045C39.1566 7.7679 38.0535 7.7679 37.7231 8.44045L37.0842 9.73456L35.6565 9.94209C35.2856 9.9959 34.9782 10.2553 34.862 10.6108C34.7467 10.9672 34.8427 11.3582 35.1109 11.6196L36.1447 12.6274L35.9006 14.0493C35.8372 14.4183 35.989 14.791 36.2917 15.0109C36.5972 15.232 36.9969 15.2618 37.3283 15.0859L38.6051 14.4144L39.8819 15.0859C40.026 15.1618 40.1836 15.1993 40.3401 15.1993C40.5438 15.1993 40.7465 15.1359 40.9185 15.0111C41.2211 14.7911 41.3729 14.4183 41.3096 14.0494L41.0656 12.6275L42.0994 11.6197C42.3674 11.3582 42.4634 10.9672 42.3481 10.6108ZM39.0346 12.4169C38.8991 12.3516 38.7521 12.3189 38.6051 12.3189C38.4581 12.3189 38.3111 12.3516 38.1757 12.4169C38.217 12.1191 38.1199 11.8194 37.9115 11.6022C38.2074 11.5494 38.4629 11.363 38.6051 11.0979C38.7473 11.3631 39.0028 11.5494 39.2987 11.6022C39.0903 11.8193 38.9932 12.1191 39.0346 12.4169Z" fill="#EFEFDF"/>
<path d="M55.1367 6.67475C55.0205 6.31928 54.713 6.05987 54.3422 6.00606L52.9145 5.79853L52.2756 4.50441C51.9451 3.83186 50.8421 3.83186 50.5117 4.50441L49.8728 5.79853L48.4451 6.00606C48.0742 6.05987 47.7668 6.31928 47.6506 6.67475C47.5352 7.03113 47.6313 7.42218 47.8994 7.68352L48.9332 8.69138L48.6892 10.1133C48.6258 10.4822 48.7776 10.8549 49.0803 11.0749C49.3839 11.2968 49.7863 11.3247 50.1169 11.1499L51.3937 10.4784L52.6705 11.1499C52.8146 11.2258 52.9721 11.2633 53.1287 11.2633C53.3324 11.2633 53.535 11.1999 53.7071 11.075C54.0097 10.855 54.1615 10.4822 54.0981 10.1134L53.8541 8.69149L54.8879 7.68363C55.1558 7.42218 55.2519 7.03125 55.1367 6.67475ZM51.8231 8.4809C51.6877 8.41554 51.5407 8.38291 51.3937 8.38291C51.2466 8.38291 51.0997 8.41554 50.9642 8.4809C51.0056 8.18309 50.9085 7.88334 50.7001 7.66619C50.996 7.6134 51.2515 7.42694 51.3937 7.16186C51.5359 7.42705 51.7914 7.6134 52.0873 7.66619C51.8789 7.88334 51.7818 8.18309 51.8231 8.4809Z" fill="#EFEFDF"/>
<path d="M66.9414 10.6098C66.8252 10.2543 66.5177 9.99492 66.1468 9.94112L64.7192 9.73359L64.0803 8.43947C63.7498 7.76692 62.6468 7.76692 62.3164 8.43947L61.6775 9.73359L60.2498 9.94112C59.8789 9.99492 59.5715 10.2543 59.4552 10.6098C59.3399 10.9662 59.436 11.3572 59.7041 11.6186L60.7379 12.6264L60.4939 14.0483C60.4305 14.4173 60.5823 14.79 60.885 15.01C61.1895 15.231 61.5901 15.2608 61.9216 15.085L63.1984 14.4134L64.4752 15.085C64.6193 15.1609 64.7768 15.1984 64.9334 15.1984C65.1371 15.1984 65.3397 15.1349 65.5118 15.0101C65.8144 14.7901 65.9662 14.4173 65.9028 14.0484L65.6588 12.6265L66.6925 11.6187C66.9605 11.3574 67.0566 10.9663 66.9414 10.6098ZM63.6278 12.4161C63.4923 12.3507 63.3454 12.3181 63.1984 12.3181C63.0513 12.3181 62.9044 12.3507 62.7689 12.4161C62.8103 12.1183 62.7132 11.8185 62.5048 11.6014C62.8006 11.5486 63.0562 11.3621 63.1984 11.097C63.3405 11.3622 63.5961 11.5486 63.892 11.6014C63.6836 11.8184 63.5865 12.1183 63.6278 12.4161Z" fill="#EFEFDF"/>
<path d="M68.9793 23.7244V17.7285C68.9793 17.1848 68.6622 16.8379 68.1185 16.8379H32.702C32.1582 16.8379 31.5952 17.1848 31.5952 17.7285V23.6312V25.5988V61.0154C31.5952 61.3968 31.8776 61.7446 32.2236 61.906C32.5666 62.0683 33.0076 62.0156 33.3016 61.7715L50.395 47.5392L67.4806 61.7715C67.6612 61.9214 67.8889 61.9992 68.1146 61.9992C68.2559 61.9992 68.3394 61.9685 68.472 61.906C68.8179 61.7446 68.9793 61.3968 68.9793 61.0154V25.692H69.2252V23.7244H68.9793ZM67.0117 58.9153L50.979 45.5024C50.7965 45.3506 50.6034 45.2747 50.3795 45.2747C50.1557 45.2747 49.8857 45.3506 49.7031 45.5024L33.5628 58.9153V25.692H67.0118V58.9153H67.0117ZM67.0117 23.7244H33.5628V18.8055H67.0118V23.7244H67.0117Z" fill="#EFEFDF"/>
<path d="M58.8317 33.6861C58.7155 33.3297 58.408 33.0703 58.0371 33.0165L53.3776 32.3382L51.2927 28.1157C50.9623 27.4432 49.8593 27.4432 49.5288 28.1157L47.444 32.3382L42.7845 33.0165C42.4136 33.0703 42.1061 33.3297 41.9899 33.6861C41.8746 34.0416 41.9707 34.4326 42.2388 34.6939L45.611 37.9816L44.8156 42.6229C44.7521 42.9919 44.9039 43.3647 45.2066 43.5847C45.5102 43.8057 45.9128 43.8344 46.2433 43.6596L50.4109 41.4681L54.5786 43.6595C54.7227 43.7354 54.8802 43.7729 55.0368 43.7729C55.2405 43.7729 55.4431 43.7095 55.6152 43.5847C55.9178 43.3647 56.0696 42.9919 56.0062 42.6229L55.2108 37.9816L58.583 34.6939C58.8509 34.4326 58.947 34.0416 58.8317 33.6861ZM53.4669 36.9334C53.2354 37.1592 53.1297 37.4848 53.1844 37.8038L53.7301 40.9906L50.869 39.4862C50.7249 39.4103 50.5682 39.3728 50.4107 39.3728C50.2533 39.3728 50.0966 39.4103 49.9525 39.4862L47.0915 40.9906L47.6372 37.8038C47.6919 37.4848 47.5862 37.1592 47.3547 36.9334L45.0393 34.6766L48.2386 34.2107C48.5595 34.1646 48.8361 33.9628 48.9793 33.6727L50.4109 30.7732L51.8424 33.6727C51.9856 33.9628 52.2622 34.1646 52.5831 34.2107L55.7824 34.6766L53.4669 36.9334Z" fill="#EFEFDF"/>
</svg>
