<svg width="100" height="66" viewBox="0 0 100 66" fill="none" xmlns="http://www.w3.org/2000/svg">
<path d="M90.3493 39.7421C76.7522 37.8079 67.087 32.9638 60.5167 32.9638C57.9589 32.9638 54.6679 33.8876 50.99 35.0885C44.2694 32.3749 38.9576 29.667 34.8525 29.667C28.5592 29.667 17.7912 37.6867 7.82582 39.9615C6.18031 40.3368 5.53366 40.5562 6.48055 40.5562C7.42743 40.5562 7.85469 40.5562 7.85469 40.5562L29.2463 40.5447C29.0442 40.5447 28.8421 40.5562 28.6458 40.5562L93.1438 40.5331C94.899 40.5331 93.75 40.2329 90.3551 39.7479L90.3493 39.7421ZM35.2798 29.9441C38.9807 29.6612 50.3723 35.1058 50.3723 35.1058C50.3723 35.1058 37.2544 39.3726 37.699 38.3218C38.1435 37.2767 40.6897 36.6359 38.1204 36.0469C35.5511 35.458 35.0488 35.204 37.8664 34.6151C40.6897 34.0261 39.6332 33.2698 38.1204 32.6058C36.602 31.9418 31.065 30.2617 35.2798 29.9384L35.2798 29.9441ZM82.4335 39.6151C66.654 39.8865 62.2257 38.8356 63.2071 38.495C64.1828 38.1486 64.9912 37.6001 63.2822 37.4095C61.579 37.2132 59.5582 36.2837 63.5131 36.0123C67.4681 35.7409 63.5535 34.8864 62.0005 34.54C60.4474 34.1936 57.4855 33.2929 61.5328 33.2582C65.5801 33.2236 75.6263 37.0458 81.6887 38.3391C87.6992 39.6209 82.4278 39.6209 82.4278 39.6209L82.4335 39.6151Z" fill="#EFEFDF"/>
</svg>
