<svg width="100" height="66" viewBox="0 0 100 66" fill="none" xmlns="http://www.w3.org/2000/svg">
<path fill-rule="evenodd" clip-rule="evenodd" d="M48.6713 2.75158C44.4441 3.28134 40.7087 6.02112 38.9714 9.86643C38.2206 11.5281 37.981 12.7447 37.9826 14.8871C37.9837 16.3447 38.0449 17.0503 38.2312 17.754C39.5828 22.8599 43.7397 26.4879 48.829 27.0036C54.8904 27.6178 60.3703 23.713 61.9031 17.6873C62.2507 16.3212 62.2514 13.3593 61.9045 12.0203C61.479 10.3779 60.917 9.17158 60.4691 8.93903C59.9553 8.67248 59.3904 8.88116 59.1681 9.42C59.0322 9.74895 59.0718 9.94683 59.4788 10.9753C60.1235 12.6045 60.2749 13.5256 60.2039 15.3833C60.1538 16.6914 60.0758 17.1491 59.7376 18.1221C58.5911 21.4204 56.0509 23.8228 52.6961 24.7814C51.3497 25.1661 48.9099 25.1922 47.6083 24.8359C44.1851 23.8985 41.5544 21.4504 40.3941 18.1221C40.045 17.1207 39.9786 16.7143 39.9293 15.276C39.8814 13.8793 39.9188 13.4097 40.152 12.4758C40.6808 10.3573 41.9203 8.3574 43.5338 7.01985C44.4964 6.22166 46.3877 5.24867 47.6083 4.92331C48.7922 4.60783 51.3494 4.60929 52.5245 4.92598C53.6389 5.2264 55.3391 6.04485 56.1573 6.67489C57.0924 7.39494 57.3379 7.48401 57.7879 7.26759C58.2963 7.02305 58.493 6.45048 58.2301 5.98045C57.7306 5.08732 55.0799 3.58016 53.1503 3.09226C51.7371 2.73478 49.9122 2.5961 48.6713 2.75158ZM51.1691 11.3833L48.2718 14.2799L47.2426 13.2572C45.5228 11.5483 45.2382 11.5723 43.2559 13.5939C41.8953 14.9814 41.6591 15.3874 41.824 16.0539C41.9456 16.5447 46.1621 20.7642 46.9055 21.1389C47.6408 21.5096 48.7881 21.5176 49.5262 21.1571C49.8677 20.9905 51.549 19.4041 54.0953 16.8465C57.8855 13.0393 58.1287 12.7661 58.1997 12.2347L58.2751 11.6699L56.6892 10.0783C54.4344 7.8155 54.8317 7.72162 51.1691 11.3833ZM55.3424 11.4503L55.984 12.147L52.3701 15.7755C50.3825 17.7711 48.6171 19.439 48.4469 19.4818C47.9537 19.6061 47.518 19.2825 45.6849 17.4312L43.9609 15.6899L44.6819 14.9571L45.4028 14.2246L46.555 15.3558C48.3025 17.0721 48.0563 17.1569 51.5882 13.6212C53.1628 12.045 54.5073 10.7549 54.576 10.7543C54.6446 10.7539 54.9895 11.067 55.3424 11.4503ZM22.5469 16.2138C21.1856 16.5399 19.9095 17.5724 19.2788 18.8582L18.8421 19.7484L18.7756 37.8191L18.7092 55.8897L17.6826 55.9564C16.2227 56.0512 16.0664 56.2301 16.0064 57.8756C15.9051 60.6507 17.0158 62.5471 19.2243 63.3699C19.8859 63.6165 20.7499 63.6235 50 63.6235C79.2501 63.6235 80.1141 63.6165 80.7757 63.3699C82.9842 62.5471 84.0949 60.6507 83.9936 57.8756C83.9336 56.2301 83.7773 56.0512 82.3174 55.9564L81.2908 55.8897L81.2569 43.432C81.2191 29.5145 81.2915 30.4881 80.2943 30.4881C79.2971 30.4881 79.3695 29.5145 79.3316 43.432L79.2978 55.8897L54.157 55.9564C26.6899 56.0292 28.7374 55.9641 28.5406 56.771C28.4772 57.0305 28.5397 57.217 28.786 57.5044L29.1165 57.8898L55.569 57.9245L82.0216 57.959V58.7158C82.0216 60.0433 81.2213 61.1823 80.0389 61.5379C79.3137 61.756 20.6863 61.756 19.9611 61.5379C18.7781 61.1822 17.9784 60.0434 17.9784 58.7144V57.9565H21.5461C23.8082 57.9565 25.2679 57.9026 25.535 57.8092C26.2588 57.556 26.4516 56.7582 25.9121 56.2495C25.6268 55.9804 25.4559 55.9604 23.155 55.9261L20.7022 55.8897V38.0886V20.2875L20.9953 19.7376C21.3269 19.1155 21.9592 18.533 22.5914 18.2671C22.9289 18.1252 24.2922 18.0873 29.0625 18.0873C33.2087 18.0873 35.2078 18.0408 35.4299 17.9393C35.7542 17.7909 36.0487 17.3162 36.0487 16.9415C36.0487 16.8317 35.9019 16.5946 35.7225 16.4146L35.3964 16.0872L29.1787 16.1008C25.759 16.1084 22.7746 16.1592 22.5469 16.2138ZM64.4104 16.4146C64.231 16.5946 64.0842 16.8317 64.0842 16.9415C64.0842 17.3162 64.3786 17.7909 64.703 17.9393C64.925 18.0408 66.9063 18.0873 71.0039 18.0873C75.7185 18.0873 77.0714 18.1253 77.4086 18.2671C78.0412 18.5331 78.6733 19.1158 79.004 19.7376C79.2797 20.256 79.3003 20.4995 79.3635 23.9988C79.4264 27.4761 79.4468 27.7219 79.6885 27.899C80.0566 28.1686 80.6487 28.1324 80.9586 27.8213C81.2114 27.5677 81.2244 27.3769 81.2244 23.912C81.2244 21.0522 81.1813 20.1236 81.0239 19.5916C80.5798 18.0909 79.323 16.8322 77.789 16.3516C76.9985 16.1042 76.5552 16.0872 70.8405 16.0872H64.7364L64.4104 16.4146ZM23.0506 20.396L22.7617 20.7047V36.9675C22.7617 51.4708 22.784 53.2622 22.9686 53.5265L23.1753 53.8229H50H76.8247L77.0314 53.5265C77.216 53.2622 77.2383 51.4689 77.2383 36.9488V20.6674L76.9308 20.3774C76.6236 20.0879 76.615 20.0875 70.088 20.0875C63.7298 20.0875 63.5455 20.0947 63.287 20.3542C62.8913 20.7512 62.9326 21.4649 63.3713 21.8112C63.7135 22.0813 63.8546 22.0876 69.5503 22.0876H75.3793L75.3454 36.9885L75.3117 51.8895H50H24.6883L24.6546 36.9885L24.6207 22.0876H30.5161C36.2791 22.0876 36.4193 22.0813 36.7615 21.8112C37.2003 21.4649 37.2416 20.7512 36.8459 20.3542C36.5873 20.0947 36.403 20.0875 29.9598 20.0875H23.3396L23.0506 20.396ZM32.2619 26.9418C29.8862 27.699 28.2041 29.6257 27.7868 32.0673C27.2592 35.1556 29.3364 38.3109 32.4512 39.1527C33.3574 39.3975 34.9302 39.3435 35.9214 39.0336C38.5023 38.2265 40.2973 35.7603 40.2973 33.0216C40.2973 30.2932 38.4862 27.8138 35.9037 27.0072C34.9581 26.7119 33.0887 26.6783 32.2619 26.9418ZM35.8681 29.0914C36.7493 29.5241 37.8125 30.6779 38.0941 31.5073C38.3675 32.3124 38.3675 33.7309 38.0941 34.536C37.8035 35.3919 36.7509 36.5182 35.8082 36.982C35.1675 37.2972 34.8899 37.3531 33.9892 37.3484C32.6416 37.3415 31.6899 36.92 30.8138 35.9421C29.3021 34.2546 29.3002 31.7719 30.8095 30.0954C32.0744 28.6904 34.1944 28.2696 35.8681 29.0914ZM44.2202 30.4507C43.4936 30.6283 43.229 31.5602 43.7551 32.0882C43.9811 32.315 44.198 32.3549 45.207 32.3549C46.3303 32.3549 46.4079 32.3362 46.6686 32.0036C46.9848 31.6002 47.0042 31.4334 46.79 30.9615C46.5613 30.4579 45.2538 30.198 44.2202 30.4507ZM49.8007 30.4491C49.0732 30.6313 48.8096 31.5603 49.3357 32.0882C49.597 32.3505 49.7785 32.3549 60.2213 32.3549H70.8413L71.1166 32.0036C71.4752 31.5462 71.4642 31.2539 71.0714 30.7956L70.7508 30.4215L60.4086 30.402C54.7205 30.3913 49.9468 30.4125 49.8007 30.4491ZM43.7848 34.8293C43.5679 34.9817 43.4894 35.1712 43.4894 35.542C43.4894 36.5644 42.3745 36.4885 57.4083 36.4885H70.8413L71.1166 36.1371C71.2681 35.9439 71.392 35.682 71.392 35.5551C71.392 35.4282 71.2681 35.1663 71.1166 34.9731L70.8413 34.6217H57.4606C45.5652 34.6217 44.0472 34.6448 43.7848 34.8293ZM39.4613 41.082C38.8262 41.3092 38.4815 41.6188 38.1605 42.2502C37.9462 42.6716 37.9089 43.046 37.9089 44.7749C37.9089 47.1936 38.0809 47.7332 39.0295 48.2911L39.5931 48.6226H50.0664H60.5398L61.1034 48.2911C62.0519 47.7332 62.224 47.1936 62.224 44.7749C62.224 42.6128 62.103 42.1023 61.4498 41.5095C60.8018 40.9214 60.5261 40.9008 53.24 40.8946C46.4314 40.8889 46.3097 40.8934 45.9654 41.1652C45.5663 41.4803 45.4908 42.1335 45.8038 42.5634C45.9853 42.8125 46.2581 42.8248 53.0785 42.8889L60.1645 42.9556L60.2017 44.7453C60.2296 46.0876 60.1964 46.5622 60.0689 46.6434C59.9753 46.703 55.4742 46.7517 50.0664 46.7517C44.6586 46.7517 40.1575 46.703 40.064 46.6434C39.9364 46.5622 39.9032 46.0876 39.9311 44.7453L39.9683 42.9556L41.317 42.8889C42.3947 42.8356 42.7217 42.7712 42.9446 42.5682C43.3523 42.1971 43.3177 41.5157 42.8735 41.1652C42.573 40.9278 42.3426 40.8896 41.2459 40.8946C40.5205 40.898 39.7491 40.9789 39.4613 41.082Z" fill="#EFEFDF"/>
</svg>
