<svg width="100" height="66" viewBox="0 0 100 66" fill="none" xmlns="http://www.w3.org/2000/svg">
<path fill-rule="evenodd" clip-rule="evenodd" d="M15.4821 11.395C13.5514 12.2219 13.5238 12.302 14.7751 13.4081C16.3142 14.768 21.381 15.5156 21.381 14.3832C21.381 13.1679 19.2622 10.4674 18.3361 10.5021C17.8723 10.5198 16.5878 10.9216 15.4821 11.395ZM20.674 10.86C20.674 13.0262 25.1936 17.5564 27.3548 17.5564C27.569 17.5564 27.7436 15.962 27.7436 14.0133V10.4702H24.2088C22.2647 10.4702 20.674 10.6452 20.674 10.86ZM28.8641 11.0003C28.6365 11.2284 28.4506 12.9348 28.4506 14.7921C28.4506 17.708 28.7298 18.3677 30.4972 19.6298C32.9624 21.3886 33.3993 20.7579 33.3993 15.4419C33.3993 12.3055 33.2303 11.9668 31.3385 11.3057C30.2052 10.9103 29.0918 10.7728 28.8641 11.0003ZM68.2383 11.3475L65.9612 12.0802L66.3931 16.4127C66.63 18.7957 66.917 20.8564 67.0308 20.9917C67.1439 21.1278 68.0439 20.6495 69.0301 19.9288C70.5847 18.7936 70.8265 18.0765 70.8463 14.5448C70.8583 12.3041 70.789 10.5028 70.6914 10.5425C70.5939 10.5822 69.4903 10.945 68.2383 11.3475ZM72.0043 11.5912C71.7681 12.2077 71.5751 13.8361 71.5751 15.2101C71.5751 17.3112 71.7717 17.6272 72.8123 17.1978C73.4931 16.9165 74.6207 16.5225 75.3185 16.322C76.017 16.1214 77.216 14.7226 77.9844 13.214L79.3807 10.4702H75.9067C73.3913 10.4702 72.3153 10.7792 72.0043 11.5912ZM79.0562 12.4841C78.4411 13.676 77.9378 14.7495 77.9378 14.8693C77.9378 14.9883 79.3559 14.9735 81.0894 14.8353C86.3365 14.4172 87.1975 11.7245 82.3923 10.7607C80.4333 10.3682 80.0438 10.5694 79.0562 12.4841ZM9.89286 14.3563C8.82394 15.2994 7.94872 16.2065 7.94872 16.3716C7.94872 16.5367 9.36123 16.1632 11.0876 15.5411C13.4984 14.6716 14.0519 14.1997 13.475 13.5031C12.4676 12.2857 12.1551 12.3601 9.89286 14.3563ZM62.5451 13.6972C60.6745 15.0103 60.5466 17.173 62.1082 21.0853C63.3447 24.1833 63.8728 24.4888 65.2068 22.8774C66.0693 21.8357 65.747 17.0015 64.6088 13.9176C64.157 12.6938 63.9979 12.6768 62.5451 13.6972ZM86.4029 13.316C85.1177 14.1125 85.433 14.3874 89.0625 15.641C92.3216 16.7663 92.4177 16.2745 89.3658 14.0962C88.0742 13.1743 87.0618 12.9079 86.4029 13.316ZM34.2505 17.6839C33.4566 21.9632 33.8786 23.9339 35.5887 23.9339C36.4597 23.9339 38.1486 20.4043 38.7079 17.4161C39.1101 15.2697 38.9518 14.7162 37.7549 14.0742C35.395 12.8086 35.0981 13.1141 34.2505 17.6839ZM12.0137 15.9188C10.3891 16.3446 10.4528 17.0433 12.2654 18.6866C13.0848 19.4292 14.3637 21.2327 15.1081 22.6938C16.7164 25.8535 18.5107 26.2121 18.6493 23.4024C18.732 21.7315 18.7892 21.6812 19.0522 23.0481C19.2205 23.9254 19.7967 24.6425 20.3325 24.6425C21.0042 24.6425 21.388 23.4846 21.5669 20.9223L21.8263 17.2021L21.9571 20.9223C22.0674 24.0629 22.2979 24.6425 23.4354 24.6425C24.3983 24.6425 25.089 23.7419 25.856 21.4849L26.9299 18.3266L23.0685 16.8789C20.9448 16.0824 18.5715 15.4305 17.7946 15.4305C16.6175 15.4305 16.5044 15.6587 17.1145 16.801C17.5167 17.555 17.8334 18.4322 17.8179 18.7497C17.8023 19.0678 17.3152 18.4506 16.7348 17.3792C15.7253 15.5141 14.732 15.2066 12.0137 15.9188ZM39.4827 17.7633C39.2458 19.0289 38.4618 21.1675 37.74 22.5167C36.4491 24.9288 36.4519 25.006 37.8899 27.2049C39.2805 29.3314 39.4325 29.3874 40.9998 28.3585C41.9061 27.7633 43.4714 25.867 44.4781 24.1458L46.3084 21.0151L44.2723 18.8701C40.8959 15.3143 39.9804 15.1024 39.4827 17.7633ZM56.4165 17.8327C54.0659 19.8112 53.752 20.4071 54.1733 22.0908C54.4434 23.1672 55.8474 25.3207 57.2945 26.8754L59.9251 29.702L61.5709 27.4699L63.2175 25.2385L61.7406 21.7974C60.9283 19.9047 60.2638 17.8767 60.2638 17.2899C60.2638 15.3512 59.1842 15.5035 56.4165 17.8327ZM78.7147 16.081C77.9724 16.5516 77.8346 17.6379 78.1626 20.4178C78.4037 22.4572 78.7487 24.274 78.9289 24.4554C79.6112 25.1386 80.7663 23.7894 80.7762 22.2977C80.7826 21.4438 81.1 20.2668 81.4825 19.6822C81.9724 18.9332 82.0466 19.3513 81.7327 21.0994C81.4881 22.4635 81.2499 23.8793 81.2032 24.2464C81.1573 24.6128 81.6309 25.0259 82.2573 25.1648C82.9756 25.3235 83.7059 24.6645 84.2389 23.3748C84.7027 22.2517 86.0014 20.3249 87.124 19.0926C89.047 16.9824 89.0887 16.8116 87.8395 16.1413C85.7857 15.0401 84.4842 15.2888 83.2145 17.0249L82.0488 18.6193L82.5154 17.0249C82.9049 15.6941 82.7112 15.4326 81.3432 15.4412C80.4425 15.4475 79.2598 15.7352 78.7147 16.081ZM74.1669 17.6464C72.8392 18.4202 72.8823 19.571 74.386 23.535C74.8385 24.7283 75.4252 25.1853 76.1478 24.9075C76.9353 24.6043 77.2308 23.4478 77.2308 20.6693C77.2308 16.6819 76.7077 16.1661 74.1669 17.6464ZM6.69245 18.6597C4.88758 19.9267 4.60056 21.8081 6.21172 21.8081C6.81122 21.8081 8.88969 23.2962 10.8296 25.1152C13.3838 27.5103 14.5708 28.209 15.1307 27.6478C16.3333 26.4424 15.2347 23.4698 12.4436 20.3731C9.62775 17.2488 8.97735 17.0554 6.69245 18.6597ZM87.4386 19.8594C84.6871 23.131 83.5567 26.0846 84.4298 27.7193C85.0781 28.9339 85.3693 28.8028 87.9179 26.1441C89.4471 24.549 91.6768 22.7363 92.873 22.1163L95.0476 20.9889L93.4393 19.2726C91.2739 16.9625 89.7483 17.1121 87.4386 19.8594ZM27.5329 19.4923C27.3618 19.7913 26.8309 21.2539 26.3523 22.7413C25.5775 25.1492 25.6248 25.5545 26.7892 26.4389C27.5089 26.9852 28.3042 27.4423 28.5573 27.4543C28.9695 27.4749 31.9854 22.8256 31.9854 22.1702C31.9854 21.5175 27.8101 19.0062 27.5329 19.4923ZM69.7024 20.5375L67.4762 22.1298L68.9954 24.7977C70.5974 27.6116 71.4578 28.0198 72.8477 26.6266C73.9095 25.5623 73.8848 23.4528 72.7805 20.9081L71.9286 18.9445L69.7024 20.5375ZM46.5084 23.1296C46.278 23.8567 44.0129 26.4502 41.4749 28.8928C38.2476 31.9994 36.9249 33.7723 37.0741 34.7899C37.2579 36.0427 37.9175 35.6601 41.8156 32.0383C45.8291 28.3089 48.2455 24.7396 48.2455 22.5394C48.2455 21.2943 46.9503 21.7344 46.5084 23.1296ZM51.7852 23.4024C51.7873 24.2797 52.3444 25.8302 53.0224 26.8477C54.3069 28.7773 61.9089 35.9804 62.6604 35.9804C62.8979 35.9804 63.0916 35.3816 63.0916 34.6496C63.0916 33.8992 61.0881 31.5558 58.4943 29.2733C55.9662 27.0483 53.7046 24.4583 53.4692 23.518C52.9291 21.3623 51.7788 21.283 51.7852 23.4024ZM4.19971 23.0481C4.0364 23.3408 3.69636 24.4434 3.44468 25.4992C3.02757 27.2509 3.22057 27.4834 5.64474 28.1502C7.10673 28.552 9.2566 29.5192 10.4231 30.3001C12.9908 32.0185 13.6044 32.0759 13.6044 30.6006C13.6044 27.4536 5.41498 20.8769 4.19971 23.0481ZM91.3721 24.1111C88.1208 26.3382 85.6366 29.7474 86.3831 30.9577C86.8709 31.7485 87.3792 31.6465 89.1162 30.4064C90.2905 29.5681 92.2594 28.6802 93.4923 28.4336C96.0211 27.9262 96.6729 26.8612 96.0282 24.2868C95.4803 22.0986 94.3711 22.0568 91.3721 24.1111ZM31.9854 23.4931C31.9854 23.6405 31.5174 24.8842 30.9447 26.2575C30.0702 28.3542 30.0575 28.8815 30.8634 29.5518C32.2469 30.7026 35.2452 25.6636 34.0419 24.2103C33.2954 23.3089 31.9854 22.8519 31.9854 23.4931ZM65.3412 24.1323C64.794 24.7935 64.982 25.6601 66.0312 27.3211C67.9682 30.3873 69.7929 30.4142 69.1849 27.3671C68.4553 23.71 66.8265 22.3395 65.3412 24.1323ZM33.7068 28.5335C32.4859 30.8068 32.4696 31.1008 33.5138 32.1468C34.5573 33.1934 34.8005 33.187 36.4986 32.0716C38.6591 30.653 38.7418 30.1556 37.2063 27.8065C35.7033 25.507 35.2862 25.5935 33.7068 28.5335ZM62.3861 27.9907L60.8605 29.9352L62.7643 31.5763C64.5536 33.119 64.7466 33.1466 65.9746 32.0334C67.1602 30.9577 67.1856 30.6629 66.2517 28.8531C64.76 25.962 64.0948 25.8132 62.3861 27.9907ZM3 31.2638V34.437L7.4185 34.7134C9.84903 34.8657 12.0724 34.8012 12.3609 34.5702C13.796 33.4209 9.39587 30.0237 4.59066 28.5711C3.10675 28.1225 3 28.3025 3 31.2638ZM24.5623 29.1132C25.3399 29.5773 27.5725 31.6309 29.5237 33.6774C33.3491 37.6888 34.1062 38.0942 34.1062 36.1306C34.1062 34.6992 28.7835 29.9642 25.9691 28.8914C23.5089 27.9539 22.8062 28.0644 24.5623 29.1132ZM73.696 28.693C71.771 29.4115 65.2125 35.3617 65.2125 36.3892C65.2125 38.0467 66.0389 37.5826 70.0424 33.6774L73.8558 29.9571L70.9551 33.8545C69.3595 35.9981 68.3853 37.8639 68.7897 37.9999C70.2807 38.503 73.8204 36.4148 76.1987 33.6292C79.0329 30.31 79.4139 28.5541 77.1424 29.2769C76.1315 29.5986 75.7978 29.498 76.1237 28.97C76.6299 28.1488 75.5002 28.0198 73.696 28.693ZM93.2456 29.2549C90.3004 30.2696 87.1283 32.8674 87.1283 34.2648C87.1283 35.3724 95.7108 34.7375 96.4849 33.5732C97.1671 32.5464 97.1735 29.0692 96.4934 28.6483C96.2007 28.4669 94.7394 28.7397 93.2456 29.2549ZM21.381 29.6964C21.381 31.3106 24.3424 35.2392 26.6252 36.6536C28.8125 38.0077 31.2784 38.5824 31.2784 37.737C31.2784 36.3822 27.2544 31.7138 24.9836 30.4347C21.8617 28.676 21.381 28.5775 21.381 29.6964ZM3.70696 36.6025C3.70696 38.3266 5.68221 43.0665 6.40048 43.0665C6.70518 43.0665 8.21242 41.7698 9.74935 40.1846C12.4436 37.4068 12.4945 37.2665 11.1718 36.2872C10.4167 35.7288 8.42875 35.2718 6.75325 35.2718C4.24425 35.2718 3.70696 35.5063 3.70696 36.6025ZM88.7189 36.0023C87.8444 36.3552 87.1283 36.9342 87.1283 37.2892C87.1283 37.9099 93.0123 43.0665 93.72 43.0665C94.0819 43.0665 96.3187 36.8591 96.3187 35.8542C96.3187 35.0811 90.7352 35.1903 88.7189 36.0023ZM36.5523 37.5932C36.2823 38.2855 36.7291 40.996 37.5449 43.6164C38.3607 46.2369 39.482 50.135 40.0376 52.2785L41.0472 56.1759L41.1115 52.2502C41.1794 48.0934 39.7139 41.3935 38.0447 38.2316C37.1688 36.5728 36.9815 36.4927 36.5523 37.5932ZM62.0955 37.2934C61.829 37.7257 60.9792 39.9189 60.2072 42.1673C58.847 46.127 57.4508 57.3395 58.4299 56.4395C58.6957 56.1943 59.5165 53.4839 60.2532 50.4163C60.9905 47.348 62.087 43.4499 62.6901 41.7535C63.3624 39.8636 63.5533 38.2501 63.1835 37.5882C62.7735 36.8534 62.425 36.7591 62.0955 37.2934ZM9.09046 41.8916L6.39836 44.1578L7.73734 45.8152L9.07703 47.4734L10.9872 44.9628C14.445 40.4184 13.2127 38.423 9.09046 41.8916ZM86.9063 41.0052C86.6362 42.0426 87.2294 43.2621 88.8836 45.0719L91.2463 47.6562L92.0989 45.7812C92.8808 44.0607 92.7543 43.7255 90.5705 41.735C87.7271 39.1443 87.4089 39.0806 86.9063 41.0052ZM11.1279 45.9031L9.07349 48.0523L10.5793 49.561L12.0844 51.0703L13.1922 48.4123C14.8296 44.4852 13.7444 43.1657 11.1279 45.9031ZM86.0212 44.7048C85.6429 45.6912 86.6376 49.5539 87.5864 50.7855C87.9625 51.2723 89.9568 49.303 89.9306 48.4718C89.9165 48.0318 89.1367 46.7301 88.1972 45.5779C86.7211 43.7673 86.4255 43.649 86.0212 44.7048ZM13.603 49.0933C12.6691 51.5564 12.7108 52.0553 13.8886 52.5081C15.2453 53.0297 15.7253 52.394 15.7253 50.0761C15.7253 47.3983 14.4669 46.8158 13.603 49.0933ZM84.0954 48.2486C83.6168 49.4993 84.3181 52.9871 85.0484 52.9871C86.1216 52.9871 86.5302 51.5543 86.0643 49.4271C85.5779 47.2091 84.6956 46.6812 84.0954 48.2486ZM16.5489 52.6187C16.679 53.7354 17.1837 54.7799 17.6694 54.9401C18.9533 55.3624 18.7638 52.6272 17.4326 51.5196C16.4485 50.7011 16.341 50.8351 16.5489 52.6187ZM81.3425 52.6357C80.4348 54.634 80.8809 55.4921 82.5026 54.8685C83.703 54.4065 84.0289 50.8613 82.8717 50.8613C82.4743 50.8613 81.7865 51.6599 81.3425 52.6357ZM19.967 55.4673C19.967 56.0519 20.4831 56.5302 21.1137 56.5302C22.0533 56.5302 22.1021 56.3382 21.381 55.4673C20.8967 54.8827 20.3806 54.4044 20.2343 54.4044C20.0872 54.4044 19.967 54.8827 19.967 55.4673ZM78.6589 55.4503C78.1011 56.1235 78.0474 56.5302 78.5168 56.5302C79.3708 56.5302 80.3669 55.186 79.877 54.6942C79.6988 54.5163 79.1509 54.8565 78.6589 55.4503Z" fill="#EFEFDF"/>
</svg>
