<svg width="100" height="66" viewBox="0 0 100 66" fill="none" xmlns="http://www.w3.org/2000/svg">
<path d="M49.9594 3.16856C49.5288 3.41698 48.5186 5.58657 48.5186 6.2656C48.5186 7.34211 49.4129 8.28613 50.4397 8.28613C51.3506 8.28613 52.3278 7.24274 52.3278 6.2656C52.3278 5.7025 51.1022 3.21824 50.7544 3.08575C50.39 2.95325 50.3238 2.96981 49.9594 3.16856ZM50.6219 6.36497C50.5556 6.51403 50.4397 6.62996 50.3403 6.62996C50.1582 6.62996 50.1085 6.08342 50.2907 5.90124C50.4728 5.73563 50.7213 6.08342 50.6219 6.36497Z" fill="#EFEFDF"/>
<path d="M48.5182 11.7871C48.5182 14.8179 48.5016 14.9338 48.187 14.9338C47.6239 14.9338 47.1933 15.5135 47.1933 16.2588C47.1933 17.5175 48.0048 18.8258 49.0316 19.2399L49.5119 19.4386V22.2376V25.0199L48.9819 25.0696C48.601 25.1027 48.3857 25.2352 48.2698 25.4837L48.1042 25.8646H42.3904H36.6766L36.5109 25.5002C36.4116 25.3015 36.1632 25.0862 35.9313 25.0365C35.5172 24.9371 35.5172 24.904 35.4676 23.165C35.4344 22.1051 35.4841 21.3929 35.5835 21.3929C35.6663 21.3929 35.9975 21.1445 36.3122 20.8464C37.1569 20.0514 37.3059 19.3227 37.1569 16.4078L37.0409 13.9401H34.5898H32.1221V16.6728C32.1221 19.7699 32.238 20.2502 33.182 20.9954L33.7783 21.4757V23.2478C33.7783 24.9206 33.7617 25.0365 33.447 25.0365C33.2648 25.0365 32.9999 25.2187 32.8674 25.434C32.6521 25.7486 32.4368 25.8315 31.5424 25.8977C29.8034 26.0468 28.4454 27.057 27.8823 28.6304C27.7332 29.061 27.667 30.1706 27.6504 32.1084V34.9735H25.9942H24.3546L24.3049 25.9805L24.2553 17.0041L23.8247 16.0932C23.0131 14.3707 21.3073 13.1452 19.5186 12.9961C18.7236 12.9133 18.5415 12.9464 18.2268 13.2611L17.879 13.6089V28.4151V43.2213L17.2165 48.4217C16.8522 51.2703 16.3387 55.2782 16.0738 57.3319C15.5603 61.3398 15.5769 61.6711 16.3387 62.3501C17.1834 63.0954 18.674 62.7641 19.1211 61.7539C19.2536 61.4558 19.9989 57.4644 20.7773 52.8602C21.5723 48.2561 22.2678 44.4469 22.3341 44.364C22.4003 44.2978 23.6094 44.2647 25.0171 44.2812L27.5676 44.3309L27.6173 46.1527C27.667 48.1898 27.7663 48.372 29.0747 49.1504L29.7372 49.5479L30.4493 55.1292C30.8303 58.2097 31.2278 60.992 31.3106 61.3233C31.7412 63.0126 33.977 63.2776 34.7223 61.7207C34.9707 61.2073 34.9541 60.7933 34.5401 55.8082C34.2917 52.8768 34.0598 50.3097 34.0267 50.1275C33.977 49.8625 34.1426 49.6969 34.8548 49.316L35.7491 48.8523L36.8753 49.4154C37.8856 49.9122 38.134 49.9619 39.4093 49.9619C40.6845 49.9619 40.9329 49.9122 41.9432 49.4154L43.086 48.8523L44.179 49.3988C45.0734 49.846 45.5371 49.9619 46.5805 50.0116L47.8557 50.0778V54.003V57.9115L45.9346 58.9053C44.8912 59.4518 43.9472 60.0315 43.8644 60.1805C43.6159 60.6277 43.6822 61.2405 44.0134 61.522C44.295 61.7704 44.974 61.8036 50.3897 61.8036C56.2525 61.8036 56.4844 61.787 56.7991 61.4723C57.2297 61.0417 57.2131 60.4455 56.766 60.0315C56.5507 59.8493 55.5901 59.2696 54.6129 58.7562L52.8243 57.7956V53.9367V50.0944L54.1989 50.0116C55.3582 49.9454 55.7226 49.8625 56.65 49.3657L57.7431 48.786L58.3228 49.1504C60.1777 50.3263 62.5294 50.3263 64.4009 49.1504L64.964 48.786L65.8583 49.2663C66.3386 49.5313 66.7361 49.8294 66.7361 49.9288C66.7361 50.0447 66.5208 52.5787 66.2558 55.5929C65.759 61.3067 65.759 61.522 66.438 62.2507C67.2164 63.0788 68.8229 62.8138 69.3032 61.7704C69.4357 61.4723 69.8829 58.6071 70.2803 55.4273C70.9759 49.9785 71.0422 49.6141 71.4065 49.3823C71.6053 49.2498 72.0856 48.902 72.4499 48.637L73.1124 48.1236L73.1621 46.1858L73.2118 44.2481H75.8451C77.3025 44.2481 78.495 44.2812 78.495 44.3144C78.495 45.1756 80.7142 61.3895 80.8964 61.7539C81.3601 62.7641 82.8341 63.0954 83.6788 62.3501C84.4572 61.6379 84.4737 61.5717 83.745 53.7711L83.0826 46.4839L82.9832 30.0713C82.8838 13.9401 82.8838 13.642 82.5526 13.2777C82.2545 12.9464 82.1054 12.9133 81.2608 12.9961C79.3065 13.1783 77.5344 14.5198 76.8388 16.3581C76.5241 17.2359 76.5075 17.6168 76.5075 26.113V34.9735H74.8679H73.2283L73.1621 31.9427C73.1124 29.2101 73.0627 28.8623 72.7315 28.2329C71.9365 26.7424 70.5288 25.8646 68.9057 25.8646C68.2764 25.8646 68.1107 25.7983 67.9783 25.5002C67.8789 25.3015 67.6305 25.0862 67.3986 25.0365C66.9846 24.9371 66.9845 24.904 66.9349 23.165C66.9017 22.1051 66.9514 21.3929 67.0508 21.3929C67.1336 21.3929 67.4648 21.1445 67.7795 20.8464C68.6242 20.0514 68.7732 19.3227 68.6242 16.4078L68.5082 13.9401H66.0571H63.5894V16.6728C63.5894 19.7699 63.7053 20.2502 64.6493 20.9954L65.2456 21.4757V23.2478C65.2456 24.9206 65.229 25.0365 64.9143 25.0365C64.7322 25.0365 64.4672 25.2187 64.3181 25.4505L64.0531 25.8646H58.3724C52.8243 25.8646 52.6752 25.848 52.5758 25.5333C52.5262 25.3512 52.2777 25.1524 52.0293 25.1027C51.7809 25.0531 51.4828 24.9868 51.3834 24.9371C51.2178 24.904 51.1681 24.2084 51.1681 22.2541V19.6208L51.9796 19.1074C53.6855 18.064 54.2486 15.2816 52.8243 15.0001L52.3274 14.8841V11.7705V8.64037H50.4228H48.5182V11.7871ZM50.6712 12.6152C50.6712 14.5695 50.6381 14.9338 50.4228 14.9338C50.2075 14.9338 50.1744 14.5695 50.1744 12.6152C50.1744 10.6609 50.2075 10.2965 50.4228 10.2965C50.6381 10.2965 50.6712 10.6609 50.6712 12.6152ZM20.711 15.0332C21.4066 15.381 22.301 16.5403 22.4997 17.3353C22.6156 17.8321 22.6819 21.5751 22.6819 28.9948V39.9255L23.0463 40.1739C23.3444 40.3892 23.8909 40.4389 25.5305 40.4389H27.6504V41.5154V42.5919H23.5928H19.5352V28.5807V14.586L19.9161 14.702C20.1148 14.7517 20.4792 14.9173 20.711 15.0332ZM81.3105 28.6966V42.5919H77.2528H73.1952V41.532V40.472L75.431 40.4058C76.9713 40.3727 77.7166 40.2899 77.8656 40.1408C78.0312 39.9752 78.0975 37.5406 78.1637 28.4317L78.2465 16.9544L78.7434 16.2422C79.2402 15.5301 80.8467 14.5032 81.1614 14.702C81.2442 14.7517 81.3105 20.6808 81.3105 28.6966ZM35.4344 16.2753V16.9378L34.656 16.8881C33.8611 16.8384 33.8611 16.8384 33.8114 16.2091L33.7617 15.5963H34.5898H35.4344V16.2753ZM66.9017 16.2753V16.9378L66.1233 16.8881C65.3284 16.8384 65.3284 16.8384 65.2787 16.2091L65.229 15.5963H66.0571H66.9017V16.2753ZM51.7974 17.0206C51.5821 17.5009 50.8865 17.9149 50.2903 17.9149C49.7935 17.9149 49.0813 17.385 48.9654 16.9212C48.8826 16.6066 48.9488 16.59 50.4394 16.59H51.9962L51.7974 17.0206ZM35.4344 18.9583C35.4344 19.4386 35.1363 19.7367 34.7057 19.7367C34.2089 19.7367 34.0101 19.5546 33.8776 19.0246C33.7783 18.5774 33.7783 18.5774 34.6063 18.5774C35.3682 18.5774 35.4344 18.6105 35.4344 18.9583ZM66.9017 18.9583C66.9017 19.4386 66.6036 19.7367 66.1565 19.7367C65.7093 19.7367 65.4112 19.4386 65.4112 18.9583C65.4112 18.6105 65.494 18.5774 66.1565 18.5774C66.8189 18.5774 66.9017 18.6105 66.9017 18.9583ZM70.2141 27.8851C71.3568 28.6635 71.4562 28.9451 71.5059 31.5453C71.5225 32.8371 71.4893 36.9444 71.4231 40.6873L71.2906 47.4777L70.3797 47.9414C69.1707 48.5542 67.8458 48.5045 66.6864 47.842L65.908 47.3783V41.9129C65.908 38.4515 65.8418 36.3316 65.7424 36.1163C65.5271 35.7188 64.7156 35.6857 64.4009 36.0832C64.2187 36.2985 64.1525 37.5406 64.0862 41.9129L64.0034 47.4777L63.1091 47.9248C61.8835 48.5542 60.8236 48.5542 59.598 47.9248L58.7037 47.4777L58.6209 44.6456C58.5381 41.6314 58.4387 41.267 57.71 41.267C56.9813 41.267 56.8819 41.6314 56.7991 44.6456L56.7163 47.4777L55.8219 47.9248C54.5964 48.5542 53.5364 48.5542 52.3108 47.9248L51.4165 47.4777L51.3337 45.0596C51.2509 42.5091 51.1184 42.0951 50.4559 42.0951C50.2738 42.0951 49.9756 42.211 49.81 42.3766C49.545 42.6085 49.5119 42.9232 49.5119 45.01V47.3948L48.5182 47.8917C47.3258 48.4879 46.2989 48.5376 45.2059 48.0408C43.7816 47.3948 43.8809 47.8586 43.8809 41.681C43.8809 37.64 43.8312 36.1494 43.6822 36.0004C43.3675 35.6857 42.5891 35.7519 42.3904 36.1163C42.291 36.3316 42.2247 38.4515 42.2247 41.9129V47.3783L41.4463 47.842C40.9164 48.1401 40.3698 48.3057 39.7074 48.3554C38.8627 48.4217 38.5977 48.3554 37.6703 47.9083L36.5938 47.3783V44.2647C36.5938 42.0785 36.5275 41.1014 36.395 40.9689C36.0803 40.6542 35.3019 40.7205 35.1032 41.0848C35.0038 41.2836 34.9376 42.6582 34.9376 44.3972V47.3783L34.1592 47.842C32.9667 48.5376 31.5259 48.5707 30.3003 47.9248L29.3894 47.4445V38.2693V29.0941L29.7538 28.5807C30.5487 27.4545 29.1741 27.5208 50.4394 27.5208H69.6676L70.2141 27.8851ZM27.6504 37.6234V38.6171H25.9942H24.3381V37.7394C24.3381 37.2425 24.3878 36.7953 24.454 36.7456C24.5037 36.6794 25.249 36.6297 26.1102 36.6297H27.6504V37.6234ZM76.3419 37.6234V38.6171H74.7686H73.1952V37.6234V36.6297H74.7686H76.3419V37.6234ZM20.4626 44.8609C20.4129 45.1259 19.767 48.8688 19.0383 53.1915C18.293 57.5141 17.6637 61.0914 17.614 61.1245C17.2828 61.4723 17.3821 60.0811 18.0612 54.8476C18.4918 51.5187 18.9721 47.8089 19.1211 46.5999L19.4027 44.4137H19.9823C20.5123 44.4137 20.5454 44.4469 20.4626 44.8609ZM81.3105 44.5297C81.327 44.6125 81.6417 48.3057 82.0392 52.7774C82.6685 59.899 82.7348 61.4558 82.4035 61.1245C82.3538 61.0748 81.8736 57.5472 81.327 53.2743C80.7639 48.9848 80.2836 45.2418 80.2339 44.9437C80.1346 44.4303 80.1511 44.4137 80.7308 44.4137C81.0455 44.4137 81.3105 44.4634 81.3105 44.5297ZM50.8534 49.051C51.1515 49.2166 51.1681 49.4485 51.1681 54.0195V58.8224L52.1287 59.3027C53.7683 60.1639 53.818 60.1474 50.34 60.1474L47.1105 60.1308L48.2698 59.518L49.4291 58.9053L49.4622 54.1852C49.5119 49.6141 49.5285 49.4485 49.8597 49.167C50.2738 48.8357 50.4062 48.8192 50.8534 49.051ZM32.8177 55.0961C33.3311 60.992 33.3477 61.1908 33.0827 61.108C32.9502 61.0583 32.6355 59.1868 32.1718 55.6592C31.7909 52.7112 31.4762 50.2269 31.4762 50.1607C31.4596 50.0778 31.6584 50.0447 31.9233 50.0778L32.3705 50.1275L32.8177 55.0961ZM69.2204 50.3263C69.2204 50.4919 68.9223 52.9265 68.5579 55.742C67.9617 60.3958 67.7464 61.4392 67.5311 61.0252C67.4814 60.9589 67.6636 58.5078 67.912 55.5929C68.1604 52.678 68.3757 50.2435 68.3923 50.1607C68.3923 50.0944 68.5745 50.0447 68.8063 50.0447C69.0879 50.0447 69.2204 50.1275 69.2204 50.3263Z" fill="#EFEFDF"/>
</svg>
