<svg width="100" height="67" viewBox="0 0 100 67" fill="none" xmlns="http://www.w3.org/2000/svg">
<path fill-rule="evenodd" clip-rule="evenodd" d="M76.2591 19.6642C74.8824 21.9333 74.1672 22.7261 72.122 24.2471C69.385 26.283 66.3137 27.602 62.7488 28.2727C60.7331 28.652 60.1297 28.9787 58.5226 30.5621C54.3761 34.6469 47.8229 38.4128 40.4904 40.9243L35.849 42.5139L34.9087 41.1857C34.2113 40.2011 34.0655 39.6051 34.3453 38.881C34.6449 38.1048 34.5514 37.8149 33.8893 37.4677C33.2266 37.1202 32.9684 37.1986 32.6265 37.8506C32.2216 38.623 32.4705 39.3456 33.9854 41.7963C34.356 42.3954 34.1561 42.4962 32.176 42.712C29.3713 43.0178 24.9085 44.2967 23.6688 45.15C22.3319 46.0705 21.6735 47.5255 22.0202 48.7931C22.375 50.09 22.795 50.3561 24.2004 50.1751C25.0313 50.0682 25.3248 49.8122 25.5683 48.9833C25.8122 48.1519 26.2264 47.7931 27.5132 47.2979C29.0394 46.7108 35.0944 45.5468 35.5169 45.7594C35.6215 45.8117 35.7227 46.6753 35.7417 47.6784C35.7887 50.1359 36.0547 51.1347 36.7614 51.5053C37.3874 51.8336 38.492 51.0168 38.439 50.2648C38.4217 50.0199 38.0445 49.6293 37.6007 49.3966C36.9993 49.0812 36.7991 48.5565 36.8126 47.3326L36.8309 45.6918L41.3473 44.9313C46.5386 44.0574 55.9129 41.2758 59.6439 39.5024C65.2417 36.8413 69.684 33.6232 72.606 30.1116C74.5949 27.7217 76.7215 23.5119 77.3968 20.6273C78.2924 16.8031 78.0955 16.6366 76.2591 19.6642Z" fill="#EFEFDF"/>
</svg>
