<svg width="100" height="66" viewBox="0 0 100 66" fill="none" xmlns="http://www.w3.org/2000/svg">
<path fill-rule="evenodd" clip-rule="evenodd" d="M45.4218 3.53564C42.4119 4.34866 40.3235 5.52686 38.02 7.71155C33.2949 12.1933 31.582 19.0449 33.6776 25.0798C34.0176 26.059 35.4299 28.7296 36.8161 31.0143L39.3368 35.1685L34.0393 35.2785L28.7417 35.3888L22.1609 48.5955C16.5032 59.9497 15.6535 61.8903 16.1028 62.4335C16.575 63.004 19.8051 63.0555 49.5706 62.9641C80.129 62.8703 82.5464 62.8137 82.9401 62.1878C83.2833 61.6423 82.2395 59.2934 77.4899 49.9232C74.2587 43.5488 71.2002 37.6661 70.6929 36.8499L69.771 35.3663H64.6561H59.5412L61.7563 31.7067C64.5244 27.1344 65.3315 25.261 65.8045 22.3159C66.6353 17.143 64.8889 11.8111 61.1286 8.0423C56.8161 3.71961 50.9612 2.03975 45.4218 3.53564ZM54.0965 7.11216C57.5285 8.32636 60.3377 11.0246 61.9981 14.7012C63.0762 17.0873 63.1661 22.13 62.172 24.4144C61.4501 26.0733 50.1386 44.3681 49.6467 44.6732C49.3406 44.8631 39.2915 29.2277 37.5624 25.8711C34.8831 20.6705 35.8669 14.4484 40.0284 10.2749C43.772 6.52029 49.0625 5.33102 54.0965 7.11216ZM46.5062 13.5321C46.5062 14.3087 46.15 14.9089 45.3259 15.5198C44.5086 16.1259 44.0723 16.855 43.907 17.8904C43.7464 18.8989 43.3918 19.5081 42.819 19.7602C42.101 20.0767 41.9515 20.517 41.8521 22.6071L41.7349 25.0798H42.9369C43.8762 25.0798 44.1393 25.2527 44.1393 25.8711C44.1393 26.3985 44.4024 26.6624 44.9283 26.6624C45.4541 26.6624 45.7173 26.3985 45.7173 25.8711C45.7173 25.1325 45.9804 25.0798 49.6621 25.0798C53.3438 25.0798 53.607 25.1325 53.607 25.8711C53.607 26.3985 53.8701 26.6624 54.3959 26.6624C54.9218 26.6624 55.1849 26.3985 55.1849 25.8711C55.1849 25.2527 55.448 25.0798 56.3873 25.0798H57.5893L57.4721 22.6071C57.3711 20.4818 57.2299 20.0794 56.467 19.7439C55.8437 19.4698 55.5794 19.016 55.5794 18.2207C55.5794 17.4536 55.1336 16.641 54.1987 15.7033C53.3876 14.8899 52.818 13.9269 52.818 13.3691C52.818 12.4461 52.7304 12.4196 49.6621 12.4196H46.5062V13.5321ZM52.029 14.0021C52.029 14.7055 51.7659 14.7934 49.6621 14.7934C47.5583 14.7934 47.2952 14.7055 47.2952 14.0021C47.2952 13.2987 47.5583 13.2108 49.6621 13.2108C51.7659 13.2108 52.029 13.2987 52.029 14.0021ZM53.532 18.0574L53.6547 19.541H49.6858H45.7173V18.2223C45.7173 17.4967 45.8419 16.7787 45.9942 16.626C46.1461 16.4732 47.8771 16.3989 49.8404 16.461L53.4097 16.5737L53.532 18.0574ZM44.8009 22.1525C45.1105 22.962 44.1393 23.5942 43.4572 23.0265C43.0722 22.706 43.0564 22.4675 43.3937 22.06C43.9874 21.3423 44.5038 21.3763 44.8009 22.1525ZM55.9305 22.06C56.2678 22.4675 56.252 22.706 55.867 23.0265C55.1849 23.5942 54.2137 22.962 54.5234 22.1525C54.8204 21.3763 55.3368 21.3423 55.9305 22.06ZM45.0652 44.0959C49.8183 51.6656 49.3706 51.7946 56.0737 40.9309L57.5546 38.5314H62.804H68.0538L73.6027 49.2135L79.1519 59.8955H49.614C33.3679 59.8955 20.0757 59.8271 20.0757 59.7436C20.0757 59.5355 29.9102 40.5313 30.5923 39.4215C31.1154 38.5705 31.3694 38.5314 36.3573 38.5345L41.5752 38.5381L45.0652 44.0959Z" fill="#EFEFDF"/>
</svg>
