<svg width="100" height="66" viewBox="0 0 100 66" fill="none" xmlns="http://www.w3.org/2000/svg">
<path d="M27.9433 6.15138C25.6217 6.5414 23.0958 7.60006 21.1642 8.95588C19.5298 10.126 11.6921 17.3879 11.1535 18.2609C10.8935 18.6695 10.5591 19.5424 10.392 20.1924C9.94624 21.994 10.1877 22.8669 12.3607 27.5473C13.4008 29.7574 14.2366 31.6519 14.2366 31.7447C14.2366 31.8376 13.7537 31.9676 13.1779 32.0419C11.4135 32.2462 9.44477 32.8591 7.27175 33.8992C4.85728 35.0507 4.28153 35.515 3.55718 36.8337C3.07429 37.688 3 38.0038 3 39.211C3.01857 40.9197 3.4086 41.7741 4.96872 43.3899L6.04594 44.5228L5.78592 45.5258C5.41447 46.8816 5.43304 49.909 5.8045 51.3391C6.88172 55.4994 10.1691 58.7682 14.3666 59.8454C18.9912 61.0155 24.0059 59.1768 26.7918 55.2579L27.6461 54.0693H47.9277H68.2092L68.8035 54.905C69.4721 55.8708 70.1036 56.1866 70.7722 55.9266C71.7566 55.5551 71.868 54.5707 71.0694 53.3078C68.8221 49.8347 69.2307 45.34 72.0352 42.3127C74.2825 39.8982 77.6813 38.8581 80.783 39.6753C84.7947 40.7154 87.5992 44.3185 87.5992 48.4046C87.5992 51.7291 85.6676 54.9236 82.7331 56.3723C80.6344 57.431 79.39 57.561 75.8055 57.1152C75.0254 57.0223 74.8211 57.0595 74.5425 57.3752C74.1153 57.8581 74.0782 58.8053 74.4868 59.2511C75.0254 59.8454 76.3812 60.1054 78.7771 60.0869C80.6901 60.0869 81.1916 60.0126 82.3617 59.604C84.2375 58.9353 85.5562 58.0996 86.912 56.7252C88.2864 55.3322 89.3636 53.6421 89.7908 52.1748L90.1066 51.0976H90.868C92.5953 51.0976 94.2854 50.1504 94.9912 48.7574C95.2512 48.256 98 34.2521 98 33.4163C98 32.5619 97.5543 31.0947 97.1457 30.6489C96.7185 30.1846 95.567 30.166 95.1584 30.6304C94.7869 31.039 94.7683 31.6519 95.0469 32.7477C95.2327 33.472 95.1212 34.2335 93.914 40.4182C93.1711 44.1885 92.5024 47.4388 92.4096 47.6059C92.1681 48.0517 91.6295 48.3117 90.9609 48.3117C90.4223 48.3117 90.3851 48.256 90.3851 47.6616C90.3851 46.733 90.0323 45.2286 89.4937 43.8728L89.0293 42.6841L89.5494 39.9725C89.8465 38.4867 90.0694 36.8708 90.0694 36.4065L90.0508 35.5336L90.998 35.4407C91.7224 35.385 92.0381 35.2364 92.3724 34.865C92.7996 34.3635 92.7996 34.2892 92.7996 30.1846C92.7996 25.95 92.7253 25.4671 92.0753 24.9656C91.6667 24.6499 87.7107 24.6685 86.8006 24.9842C85.0176 25.6343 83.6618 27.1944 83.3089 29.0888C83.1789 29.7017 83.0675 30.2218 83.0489 30.2403C83.0303 30.2775 80.393 29.4046 77.1984 28.3459C73.9853 27.2687 71.0508 26.3958 70.698 26.3958C70.085 26.3958 69.8993 26.2286 67.4477 23.2755C63.1945 18.2051 60.3529 15.5307 56.3969 12.9676C52.9052 10.7203 49.3392 9.08588 45.2718 7.91579C42.4487 7.11716 40.4242 6.78285 35.6882 6.3371C31.6393 5.94707 29.4291 5.90993 27.9433 6.15138ZM35.6882 9.12303C42.2258 9.75451 45.9404 10.7017 50.6022 12.9305C56.174 15.6049 59.8143 18.5766 64.8661 24.5756L67.1877 27.3244L66.5748 28.123C66.1662 28.6616 65.5904 29.9989 64.8661 32.0233C63.8074 35.0507 63.7703 35.125 63.3803 34.8835C63.1574 34.7535 61.2444 33.5834 59.0899 32.2833C53.9267 29.2003 54.391 29.6089 55.0225 28.6059C55.9326 27.1758 55.524 25.8386 54.1867 25.8386C53.4809 25.8386 53.1652 26.2472 51.2151 29.4788C49.3392 32.5991 49.1906 33.1563 50.0078 33.8063C50.955 34.5492 51.6608 34.2521 52.4966 32.7291C52.738 32.3205 52.9795 31.9676 53.0538 31.9676C53.1095 31.9676 55.3011 33.2491 57.9013 34.8278C63.5103 38.2452 63.2317 37.7252 61.263 40.9197C60.8358 41.6069 60.2043 42.8513 59.8514 43.7056C59.3128 45.0057 59.1457 45.2472 58.7556 45.3029C58.2913 45.3586 58.2913 45.3586 58.217 43.5942C58.1613 41.9969 58.1056 41.7741 57.6041 41.0311C56.9541 40.1211 56.0811 39.4896 55.1153 39.211C54.7439 39.1181 53.0723 39.0253 51.3822 39.0253L48.3177 39.0067L45.4018 35.6079L42.4673 32.1905V28.5874C42.4673 24.427 42.2815 23.4613 41.2414 22.3097C40.2014 21.1582 39.3099 20.8239 37.2854 20.8239C34.7224 20.8239 33.9795 21.3811 33.7937 23.4427L33.6823 24.5385H29.5406H25.3803V17.1279V9.73593L26.7361 9.3459C27.4604 9.12303 28.2776 8.91873 28.5376 8.88158C29.652 8.69585 32.0665 8.77015 35.6882 9.12303ZM22.5943 17.9451V24.5385H18.304H14.0323L13.5308 23.4613C12.9736 22.2726 12.8807 21.0654 13.2893 20.1367C13.4379 19.7467 15.2023 18.0008 17.9883 15.4378C20.4399 13.1905 22.4829 11.3518 22.52 11.3518C22.5572 11.3518 22.5943 14.3234 22.5943 17.9451ZM38.7713 23.7956C39.5699 24.2413 39.6813 24.8542 39.6813 28.8845C39.6813 30.9832 39.7556 32.8962 39.8671 33.1563C40.0156 33.5834 46.3118 41.0311 46.9433 41.5698C47.129 41.7183 48.4291 41.8112 50.9922 41.8483C54.6882 41.9041 54.7625 41.9041 55.1153 42.3498C55.3939 42.6841 55.4682 43.0742 55.4682 44.0585V45.34H50.2678H45.086L43.8045 43.5199C43.0987 42.5355 41.2043 39.8053 39.5699 37.4466L36.6168 33.1934L36.5611 28.4016L36.5054 23.6098H37.4526C37.9726 23.6098 38.567 23.7027 38.7713 23.7956ZM33.7752 30.5189C33.8309 33.3606 33.8866 33.8249 34.2395 34.4749C34.4624 34.8835 36.1896 37.4466 38.0841 40.1954C39.9785 42.9256 41.5386 45.1915 41.5386 45.2472C41.5386 45.3029 40.0156 45.34 38.1398 45.34H34.741L34.4066 43.6871C33.8123 40.6783 32.3636 38.0223 30.2463 35.9979C28.9834 34.7907 28.4262 34.6607 27.7019 35.4036C26.9404 36.1465 27.089 36.648 28.5376 38.1895C29.4106 39.1367 30.0606 40.0839 30.5621 41.124C31.695 43.4085 31.8807 44.3743 31.8807 47.9774V51.0976H30.3021H28.7234L28.8534 50.5776C28.9277 50.299 28.9834 49.2403 28.9648 48.2188C28.8905 40.8083 22.0186 35.3479 14.738 36.8894C12.2864 37.4094 9.72336 38.951 8.21896 40.7897L7.40176 41.8112L6.84457 41.3469C5.74878 40.4182 5.41447 39.0253 6.04594 37.9852C6.67742 36.9451 10.2991 35.3664 13.2522 34.8464C14.9795 34.5492 20.8113 34.4749 22.1672 34.735C23.0401 34.9021 23.9501 34.6235 24.1544 34.1035C24.7674 32.4876 23.3372 31.7819 19.437 31.7819H17.4497L16.5767 29.9989C16.1124 29.0145 15.6667 28.0116 15.6109 27.7701L15.4995 27.3244H24.6002H33.7009L33.7752 30.5189ZM90.0137 30.1103V32.7105H89.3079C88.8065 32.7105 88.4721 32.5805 88.2307 32.3205C88.045 32.0976 87.4878 31.7262 87.0049 31.4847C86.0577 31.0018 85.7977 30.5004 86.0205 29.5903C86.3548 28.2345 87.3764 27.5101 88.955 27.5101H90.0137V30.1103ZM73.5024 30.0546L76.2884 30.9275L74.2825 31.429C71.998 31.9862 69.8065 32.8777 68.2092 33.8992C67.6149 34.2706 67.0948 34.5492 67.0577 34.5121C66.9834 34.4378 67.5406 32.7291 68.2835 30.7975C68.7107 29.6646 69.2493 29.2003 70.1965 29.1817C70.4937 29.1817 71.9795 29.5717 73.5024 30.0546ZM85.6305 33.8992C87.0235 34.4749 87.4878 35.7379 87.1163 37.8552C86.7263 39.9353 86.8006 39.8796 85.7419 39.0439C83.9032 37.5952 81.0244 36.6108 78.5914 36.6108C74.3011 36.6108 70.0108 39.2667 68.1163 43.1113C67.1134 45.1543 66.7234 46.993 66.8534 49.0546C66.9091 49.9275 66.9834 50.7633 67.0205 50.9119C67.0577 51.1533 66.6305 51.1905 64.1417 51.2462C61.8016 51.2833 61.2072 51.2462 61.1144 51.0419C61.0587 50.8933 61.1515 49.9647 61.3001 48.9432C62.2102 42.8699 65.9062 37.9295 71.5152 35.3107C72.8895 34.6607 75.174 33.9549 76.5484 33.7692C76.8641 33.732 78.8886 33.6763 81.0616 33.6577C84.0518 33.6392 85.1662 33.6949 85.6305 33.8992ZM19.1026 39.601C22.6686 40.3625 25.566 43.4456 26.1232 47.0859C26.9404 52.3606 22.6686 57.3938 17.3568 57.4124C13.6051 57.4124 10.1505 55.1093 8.83187 51.6919C8.25611 50.2247 8.1261 47.4759 8.57185 45.9715C9.87195 41.4397 14.5152 38.6353 19.1026 39.601ZM58.5513 48.4417C58.5142 48.6274 58.4213 49.3332 58.347 50.039L58.217 51.2833L46.4976 51.2462L34.7595 51.1905L34.7038 49.6489L34.6481 48.126H46.6461C57.9941 48.126 58.6442 48.1445 58.5513 48.4417Z" fill="#EFEFDF"/>
</svg>
