<svg width="100" height="66" viewBox="0 0 100 66" fill="none" xmlns="http://www.w3.org/2000/svg">
<path fill-rule="evenodd" clip-rule="evenodd" d="M60.2354 16.194C58.5225 16.7254 57.957 17.6967 57.7195 20.5141C57.5348 22.7059 57.5896 23.2913 58.1224 24.8039C58.4619 25.7674 58.8502 26.6807 58.9854 26.8331C59.4166 27.3189 59.2561 27.5081 58.2518 27.6967C57.7131 27.798 57.0371 28.1411 56.7499 28.4593C56.4629 28.7772 56.0515 29.0374 55.8359 29.0374C55.5451 29.0374 55.4469 29.5463 55.4554 31.0081C55.4664 32.9348 55.4758 32.9581 55.8665 32.058C56.0864 31.5518 56.7513 30.8073 57.3442 30.4035C57.9371 29.9997 58.6751 29.2526 58.9846 28.7428C59.4131 28.0362 59.6652 27.8727 60.0448 28.0549C60.6855 28.3618 63.5999 28.3644 64.236 28.0587C64.5949 27.8859 64.8615 28.0339 65.2438 28.6184C65.7609 29.4096 65.7592 29.4169 64.8525 30.1752L63.9417 30.9372L64.5092 31.7182C64.8609 32.202 65.1427 33.2072 65.2505 34.3628L65.4241 36.2266L67.2946 35.4903C69.1173 34.7724 69.1494 34.7417 68.546 34.286C68.0178 33.8866 67.9079 33.4393 67.7972 31.2306C67.7258 29.8073 67.5262 28.4724 67.3535 28.264C67.181 28.0555 66.5939 27.8012 66.0494 27.6987C65.5045 27.5963 65.0587 27.4777 65.0587 27.4354C65.0587 27.3931 65.4098 26.5864 65.8387 25.643C66.4843 24.2238 66.6114 23.5505 66.5753 21.7383C66.5024 18.0932 66.3212 17.4739 65.1179 16.7624C63.9207 16.0547 61.5674 15.7806 60.2354 16.194ZM85.2144 16.4997C84.4374 16.8121 83.1697 18.0237 82.4256 19.1656C81.7027 20.2744 81.7537 23.1514 82.5375 25.495C82.8792 26.5172 83.0945 27.5221 83.0159 27.7279C82.9369 27.9338 81.8799 28.3974 80.6667 28.7583C78.4999 29.4029 78.4611 29.4312 78.4611 30.3749C78.4611 30.903 78.5954 31.6896 78.7597 32.1225C79.158 33.1721 78.9092 33.8334 77.9457 34.2848L77.15 34.6576L78.7525 35.1998C79.6338 35.4982 80.7482 35.9744 81.229 36.2582C82.4361 36.9709 89.5568 36.9522 92.7375 36.2278C96.0881 35.4649 96.9435 34.9546 97.0516 33.6533C97.2384 31.4031 95.9337 30.0998 92.2748 28.8812C89.4088 27.9265 89.0271 27.6091 89.6066 26.6626C90.2767 25.5683 90.7875 22.8227 90.6438 21.0867C90.5346 19.7682 90.3181 19.2619 89.3861 18.1446C87.936 16.4059 86.6802 15.9108 85.2144 16.4997ZM12.032 16.7966C10.0106 17.191 9.53773 17.9405 9.29736 21.1278C9.14323 23.1742 9.19247 23.9862 9.50714 24.594C9.73323 25.0305 10.0796 25.895 10.2772 26.5148C10.7335 27.9472 10.5178 28.1676 7.80737 29.0426C6.68565 29.4047 5.40864 29.8826 4.96956 30.1051C4.018 30.5868 3 32.4519 3 33.7134C3 34.4994 3.16549 34.6909 4.26623 35.1788C6.87182 36.3338 9.3635 36.7388 13.9258 36.749C18.1053 36.758 18.3419 36.7271 19.3459 36.0366C20.562 35.2004 20.678 34.5739 20.3686 30.5112C20.2721 29.2476 20.2316 29.1988 18.8929 28.7501C17.4113 28.2535 16.6987 27.4558 17.2461 26.9072C17.423 26.73 17.5678 26.2331 17.5678 25.803C17.5678 25.3733 17.7749 24.8492 18.0278 24.6387C18.4156 24.3164 18.4567 23.8168 18.2898 21.4645C18.0809 18.5224 17.6861 17.4973 16.6057 17.0938C15.4709 16.6699 13.3781 16.5338 12.032 16.7966ZM36.0689 16.8953C34.3583 17.657 33.7674 18.6362 33.6384 20.9229C33.5253 22.931 33.9239 25.5987 34.5308 26.8918C34.9506 27.7866 34.7158 28.2205 33.6101 28.5933C32.7119 28.8967 32.6367 29.0216 32.5449 30.3652C32.3506 33.2101 32.4651 35.4605 32.8039 35.4605C32.9467 35.4605 33.4088 35.7326 33.831 36.0655L34.5984 36.6704L34.9894 34.5333C35.3451 32.5897 35.3341 32.3161 34.8691 31.5194C34.3971 30.7103 34.3959 30.6741 34.8562 31.0499C35.1304 31.2732 35.3842 31.4046 35.4203 31.3418C35.4564 31.2788 35.7915 30.8794 36.1644 30.4543L36.8427 29.6812L35.973 29.1664C35.4672 28.8669 35.1665 28.4865 35.2545 28.257C35.3743 27.9446 35.6004 27.9828 36.341 28.4415C37.2707 29.0172 37.285 29.0175 38.7744 28.4502C39.5983 28.1367 40.4969 27.9662 40.7708 28.0713C41.1396 28.2132 41.2238 28.1454 41.0953 27.8097C40.9998 27.5606 41.0502 27.2281 41.2072 27.0707C41.7057 26.5712 42.3184 22.9158 42.2296 20.9705C42.1698 19.6593 41.9691 18.8561 41.5624 18.3002C40.3693 16.6693 37.9595 16.0533 36.0689 16.8953ZM60.4987 18.6234C61.1418 18.5189 61.8495 18.6581 62.6073 19.0389C63.2346 19.3539 64.1083 19.6987 64.5489 19.8047C65.3017 19.986 65.3521 20.0984 65.3839 21.6709C65.4025 22.5912 65.4777 23.1141 65.5508 22.8332C65.6243 22.5523 65.8058 22.3223 65.9541 22.3223C66.3492 22.3223 66.2836 23.4273 65.8358 24.321C65.6219 24.7473 65.2615 25.4772 65.0346 25.9435C63.7543 28.5717 60.536 28.5717 59.2558 25.9435C59.0288 25.4772 58.6684 24.7473 58.4546 24.321C58.0068 23.4273 57.9412 22.3223 58.3363 22.3223C58.4846 22.3223 58.6661 22.5523 58.7395 22.8332C58.8756 23.3552 59.0857 20.2528 59.0207 18.676C58.9924 17.9898 59.0431 17.9078 59.2579 18.292C59.4601 18.6541 59.782 18.7399 60.4987 18.6234ZM39.3795 19.2064L41.2331 19.0234L41.1268 22.3804C41.0548 24.658 40.8923 25.8927 40.6213 26.2197C40.0759 26.8783 39.7688 26.8243 39.6584 26.0506C39.4567 24.6407 36.4686 24.6407 36.267 26.0506C36.216 26.4089 36.0552 26.7017 35.9098 26.7017C35.2548 26.7017 34.8157 25.2103 34.6459 22.4101C34.4396 19.0073 34.6068 18.7086 36.4721 19.1437C37.0516 19.2789 38.3598 19.3069 39.3795 19.2064ZM89.183 19.461C89.382 19.6604 89.5454 20.6975 89.5623 21.8697C89.5865 23.5272 89.6366 23.7403 89.8199 22.9643C89.9452 22.4344 90.1174 21.9307 90.2027 21.8455C90.5302 21.517 90.0078 24.2939 89.4633 25.775C87.9039 30.0163 83.4957 28.9962 82.6846 24.2063C82.5771 23.5716 82.4203 22.7894 82.3361 22.4682C82.2324 22.0721 82.2793 21.978 82.4827 22.1763C82.6473 22.3369 82.8408 22.7967 82.9127 23.1981C82.9847 23.5996 83.0613 23.0019 83.0832 21.8697C83.1053 20.7109 83.2755 19.6584 83.4724 19.461C83.6901 19.2429 84.7672 19.1107 86.3277 19.1107C87.8882 19.1107 88.9653 19.2429 89.183 19.461ZM17.0294 22.1383C16.9583 23.5427 17.0235 24.0845 17.2479 23.9459C17.4239 23.8367 17.5678 23.427 17.5678 23.0349C17.5678 22.6428 17.6989 22.3223 17.8591 22.3223C18.2749 22.3223 18.2158 23.2116 17.7391 24.1275C17.5148 24.5581 17.2467 25.2971 17.143 25.7695C16.925 26.7648 16.0248 27.6976 14.8526 28.1425C13.2228 28.7612 11.1271 27.664 10.5583 25.8938C10.3655 25.2944 10.1091 24.6726 9.98816 24.512C9.61727 24.0189 9.34427 22.3223 9.63592 22.3223C9.78567 22.3223 10.0558 22.7491 10.2361 23.2711C10.531 24.1242 10.5528 24.0334 10.4497 22.3739C10.3486 20.7419 10.3914 20.5512 10.8194 20.7305C11.0857 20.842 11.9196 20.9991 12.6721 21.0794C13.7635 21.1962 14.2058 21.1007 14.8573 20.6079C15.3066 20.2683 16.0017 20.0222 16.4024 20.0613C17.113 20.1308 17.1281 20.1819 17.0294 22.1383ZM34.0844 23.4171C34.0113 23.698 33.9513 23.4682 33.9513 22.9062C33.9513 22.3442 34.0113 22.1144 34.0844 22.3953C34.1579 22.6761 34.1579 23.1363 34.0844 23.4171ZM41.896 23.1981C41.6335 24.3955 41.398 24.1596 41.641 22.9427C41.7433 22.4297 41.8878 22.0709 41.9621 22.1453C42.0364 22.2198 42.0067 22.6933 41.896 23.1981ZM23.151 24.5666C21.8061 25.9986 21.6162 26.3437 21.7458 27.1192C21.844 27.7075 21.6794 28.4392 21.2662 29.2479C20.6696 30.4166 20.662 30.5223 21.1191 31.298C21.5244 31.9853 21.5483 32.3149 21.2692 33.3628C21.0372 34.2337 21.0285 34.7546 21.24 35.0912C21.4903 35.4883 21.3385 35.6778 20.3738 36.1735C18.869 36.9466 18.0849 38.0438 18.0404 39.4391C18.0086 40.435 18.1112 40.6026 19.0246 41.0464C21.3787 42.1903 28.9697 42.4997 32.4721 41.595C33.7406 41.2671 33.849 41.1623 34.1474 39.9749C34.3228 39.2768 34.4664 38.4581 34.4664 38.1556C34.4664 37.4669 33.4522 36.4947 32.1694 35.9542C31.5837 35.7075 31.3203 35.4585 31.5161 35.3373C31.922 35.086 31.9453 33.5675 31.554 32.8352C31.3413 32.437 31.3999 32.0536 31.7725 31.3999C32.2643 30.5375 32.2603 30.4665 31.647 29.2616C31.2146 28.412 31.0628 27.7142 31.17 27.0684C31.2982 26.2947 31.1747 25.9727 30.4932 25.3079C30.0343 24.8603 29.3648 24.1371 29.0055 23.7003C28.5586 23.1576 28.0746 22.9062 27.4759 22.9062C26.6132 22.9062 26.5998 22.9295 26.6007 24.439C26.6013 25.9111 26.6447 25.9948 27.6933 26.5557C28.3077 26.8845 28.9761 27.5501 29.222 28.0789C29.5358 28.7533 29.8027 28.974 30.1689 28.8619C30.8562 28.652 30.8245 28.8152 29.7561 30.9897C28.669 33.2028 28.0525 33.7088 26.4442 33.7088C25.0011 33.7088 24.3016 33.126 23.2673 31.0627C22.4515 29.4353 22.3189 28.6862 22.8853 28.904C23.0896 28.9825 23.4217 28.6543 23.6414 28.1577C23.8567 27.6701 24.5437 26.9788 25.1684 26.6214C26.261 25.9963 26.3041 25.914 26.3061 24.439C26.3084 22.9605 26.2802 22.9062 25.5072 22.9082C24.9114 22.9097 24.3071 23.3351 23.151 24.5666ZM71.077 23.5736C70.621 23.9292 69.8017 24.634 69.256 25.1397C68.15 26.1648 68.076 26.7256 68.4551 31.2201C68.6395 33.4048 68.6835 33.5126 69.6202 34.0664C70.1557 34.3829 70.5269 34.7502 70.4453 34.8825C70.3635 35.0147 69.4725 35.3981 68.465 35.7338C65.3058 36.7875 65.0401 37.1913 65.5345 40.1889C65.781 41.6825 66.5805 41.9167 72.0629 42.0986C77.3589 42.2746 80.4205 41.884 81.5804 40.8843C82.2292 40.3249 82.3053 40.0876 82.1322 39.1629C81.8327 37.5627 80.8939 36.7011 78.4847 35.8144C77.296 35.3767 76.2803 34.8883 76.2276 34.7289C76.1751 34.5692 76.6232 34.1683 77.2237 33.8375C77.9157 33.4565 78.2621 33.0825 78.1697 32.8157C78.0896 32.5844 78.0241 30.8002 78.0241 28.8511C78.0241 25.721 77.9559 25.2302 77.4414 24.6492C75.9385 22.9529 72.5967 22.388 71.077 23.5736ZM48.6388 23.7902C47.5535 24.1161 46.7677 24.8474 46.1052 26.1484C45.4109 27.5116 45.0385 30.188 45.5032 30.4756C45.69 30.5912 45.9068 31.1865 45.9849 31.7985C46.1955 33.4475 46.9979 36.0445 47.2965 36.0445C47.4396 36.0445 47.7103 35.7487 47.8979 35.3876C48.0855 35.0264 48.27 34.693 48.3075 34.6468C48.3454 34.6004 48.7108 34.7155 49.1196 34.9023C49.6501 35.1443 50.1096 35.1554 50.7249 34.9403C51.5058 34.6676 51.6476 34.721 52.228 35.5078C52.9841 36.5329 52.8454 37.1049 51.7368 37.5343C50.9094 37.8546 48.7364 37.7536 47.7624 37.3495C47.3062 37.1601 47.2502 37.2228 47.414 37.7402C47.5215 38.0791 47.7787 39.1831 47.9856 40.1932L48.3623 42.0297L51.5975 42.0198C53.3768 42.0142 54.9373 41.905 55.0655 41.7768C55.6614 41.181 55.0498 30.2987 54.2465 27.2077C53.8605 25.7213 52.4276 24.154 51.1226 23.7908C49.8992 23.4504 49.771 23.4501 48.6388 23.7902ZM38.856 25.836C39.7816 26.3326 39.5048 26.5557 37.9627 26.5557C37.04 26.5557 36.5059 26.4299 36.5059 26.2121C36.5059 25.6179 38.0026 25.3785 38.856 25.836ZM73.779 26.9937C75.0674 26.9937 76.4216 27.9122 76.4216 28.7863C76.4216 29.2359 76.5545 29.3264 77.0043 29.1834C77.7578 28.9437 77.7484 29.0079 76.7092 31.235C75.4823 33.8647 74.1677 34.5873 72.1413 33.7461C70.8025 33.1905 68.553 28.7189 69.8661 29.2237C70.1715 29.341 70.3031 29.202 70.3031 28.7621C70.3031 28.4158 70.5013 27.7487 70.7434 27.2795C71.1326 26.5253 71.2696 26.4594 71.9277 26.7102C72.3371 26.8661 73.1701 26.9937 73.779 26.9937ZM52.6782 28.8371C52.8329 30.0122 52.9314 30.1857 53.2795 29.896C53.6175 29.6152 53.6959 29.6628 53.6959 30.1486C53.6959 30.4779 53.5056 30.9381 53.2731 31.171C53.0409 31.404 52.7641 31.9392 52.6586 32.3605C52.4285 33.2799 50.9641 34.5847 50.1629 34.5847C49.0205 34.5847 47.9844 33.7491 47.1998 32.195C46.3444 30.501 46.1839 29.5518 46.7922 29.7857C47.0011 29.8663 47.624 29.6015 48.1761 29.1974C50.2576 27.6742 50.9466 27.2877 51.5835 27.2868C51.9442 27.2862 52.2542 27.1215 52.2729 26.9207C52.316 26.4544 52.4451 27.0646 52.6782 28.8371ZM86.3277 29.0353C86.7283 29.0353 87.4724 28.7807 87.9811 28.4701L88.9059 27.9049L89.3651 28.6067C89.9641 29.5229 89.944 29.8283 89.2605 30.195C88.3247 30.6966 83.8288 30.5789 83.2892 30.0385C82.7216 29.4695 82.7204 29.3261 83.2781 28.5285L83.7244 27.8897L84.662 28.4625C85.1774 28.7775 85.9271 29.0353 86.3277 29.0353ZM13.7802 28.7454C14.4421 28.7454 15.2533 28.6009 15.5825 28.4243C15.9889 28.2065 16.1197 28.203 15.9901 28.4135C15.646 28.9711 13.8463 29.3007 12.7709 29.0029C12.2159 28.8494 11.6757 28.5843 11.5702 28.4135C11.4406 28.203 11.5714 28.2065 11.9778 28.4243C12.3071 28.6009 13.1182 28.7454 13.7802 28.7454ZM13.1639 29.8312C13.2257 29.8663 13.0576 30.2298 12.7901 30.6388L12.3039 31.3824L11.294 30.5749C10.3695 29.8359 10.0359 29.0911 10.4453 28.6809C10.5703 28.5556 11.9411 29.1355 13.1639 29.8312ZM17.2764 29.3118C17.2764 29.6047 16.8225 30.1909 16.2678 30.6151L15.2588 31.3859L14.7713 30.6405C14.5033 30.2306 14.3346 29.8663 14.3964 29.8312C15.6279 29.1305 16.8875 28.5799 17.0579 28.6675C17.1782 28.7294 17.2764 29.0193 17.2764 29.3118ZM38.6911 29.005C38.0501 29.301 37.2387 29.8814 36.8876 30.2943C36.3183 30.9646 36.3025 31.0589 36.7419 31.1751C37.0819 31.2651 37.0263 31.3159 36.5615 31.3392C36.1915 31.3579 35.9631 31.4934 36.0537 31.6405C36.1446 31.7877 36.0805 32.272 35.9118 32.717C35.7431 33.1616 35.3559 35.1765 35.0514 37.1939C34.7473 39.2111 34.2989 41.3392 34.0556 41.9228L33.6127 42.9841L35.4235 42.4247C36.4194 42.1173 37.3983 41.6475 37.5985 41.3809C37.9834 40.8685 38.1051 41.211 37.7398 41.778C37.6221 41.9608 36.5423 42.4025 35.3405 42.7596C31.1001 44.02 30.0792 45.0421 30.3414 47.7641C30.5013 49.4257 40.4156 50.4849 46.5556 49.4963C49.0843 49.089 51.0737 48.4114 51.0737 47.9574C51.0737 47.7997 51.4594 47.9962 51.9308 48.3936C53.2717 49.5243 55.3662 49.894 60.3971 49.8881C67.3695 49.8797 69.6829 49.1112 69.3283 46.9215C69.1182 45.624 68.4155 44.5546 67.5583 44.2282C66.6533 43.8833 65.7082 42.6323 65.3524 41.3085C65.1925 40.7126 64.9973 38.6137 64.9186 36.6436C64.8012 33.698 64.6689 32.8884 64.1742 32.086C62.4266 29.2523 58.109 29.1872 56.4789 31.9701C56.0028 32.7827 55.8977 33.6013 55.8271 37.0465C55.7278 41.9056 55.6421 42.3614 54.6256 43.432C53.8547 44.2442 53.8526 44.2573 54.3683 45.1575C54.7596 45.8407 54.7794 45.9747 54.4487 45.6996C54.2072 45.4988 53.9304 45.0836 53.8331 44.777C53.7361 44.4702 53.5671 44.2235 53.4578 44.2287C52.927 44.2536 52.1464 45.1653 51.8056 46.1592L51.4262 47.2648L51.0463 45.9945C50.5845 44.45 49.7955 43.909 46.4799 42.8632C45.1551 42.4454 44.0042 41.9952 43.9224 41.8624C43.8405 41.7295 44.6947 41.9351 45.8211 42.3187L47.8688 43.0168L47.8661 42.3771C47.8626 41.5462 46.5411 35.7105 45.9575 33.9485C45.7084 33.197 45.4843 32.3103 45.4593 31.9777C45.4301 31.59 45.2008 31.3626 44.8203 31.3439C44.316 31.3194 44.3361 31.2799 44.9552 31.0811C45.3558 30.9527 45.5111 30.8344 45.3005 30.8183C45.0898 30.8023 44.5898 30.3988 44.1892 29.9217C42.9676 28.4672 40.6804 28.0856 38.6911 29.005ZM42.12 30.3968C41.9228 30.4768 41.5294 30.4817 41.246 30.4076C40.9625 30.3334 41.1239 30.268 41.6046 30.2622C42.0854 30.2563 42.3173 30.3168 42.12 30.3968ZM16.6809 31.7129C16.4874 32.0881 15.9872 32.8536 15.5691 33.4142L14.8089 34.4334L14.6172 33.2682C14.4153 32.0411 14.5805 31.3652 14.94 31.948C15.0904 32.1917 15.4007 32.0796 15.9962 31.5661C16.9778 30.7194 17.1715 30.7611 16.6809 31.7129ZM42.2602 31.0037C41.4989 31.0639 40.2536 31.0639 39.4923 31.0037C38.7313 30.9436 39.3539 30.8943 40.8762 30.8943C42.3986 30.8943 43.0215 30.9436 42.2602 31.0037ZM12.8015 31.9228C13.2449 31.5538 13.2811 31.995 12.9355 33.5628L12.7423 34.4387L11.8045 33.154C10.6248 31.538 10.5403 30.7816 11.6361 31.6455C12.2246 32.1091 12.4991 32.1745 12.8015 31.9228ZM41.4872 32.5748C43.5244 33.319 44.0806 33.8831 44.397 35.5251C44.6542 36.8614 44.4561 38.7582 44.0829 38.5273C43.9591 38.4505 43.6951 38.7801 43.497 39.2598C43.0687 40.2957 42.7004 40.3824 42.5719 39.4776C42.5198 39.1121 42.1314 38.6572 41.6917 38.4467C40.5665 37.9081 39.4337 38.2788 38.9926 39.3302L38.627 40.2014L38.1328 39.5098L37.6387 38.8181L37.8024 39.694L37.9659 40.5699L37.5405 39.694C36.9706 38.5215 36.9555 35.1648 37.5163 34.4215C37.7517 34.1099 37.9484 33.6679 37.9534 33.4399C37.9662 32.8694 38.8327 31.957 39.3618 31.957C39.601 31.957 40.5575 32.2349 41.4872 32.5748ZM29.8047 36.3493C29.8047 37.0625 28.8115 38.0882 28.1204 38.0882C27.8083 38.0882 27.4666 38.447 27.2623 38.9886C26.86 40.0572 25.9848 40.0633 25.7342 38.9994C25.6243 38.5331 25.2403 38.2009 24.5559 37.979C23.7367 37.7139 23.5213 37.4809 23.4409 36.7744C23.3864 36.2926 23.565 35.4824 23.838 34.9741C24.3194 34.0778 24.3811 34.0545 25.8644 34.208C26.7061 34.295 27.6315 34.2331 27.9214 34.0708C28.3549 33.8276 28.5685 33.9529 29.1264 34.7768C29.4994 35.3277 29.8047 36.0354 29.8047 36.3493ZM76.4216 36.3379C76.4216 37.0246 75.4447 37.3466 73.3624 37.3466C70.4174 37.3466 69.807 36.8301 70.7877 35.1665C71.2436 34.3931 71.3616 34.354 72.7875 34.5014C73.6208 34.5876 74.5456 34.5219 74.8422 34.3558C75.2882 34.1055 75.4718 34.2016 75.9015 34.9099C76.1877 35.3811 76.4216 36.0237 76.4216 36.3379ZM62.5703 34.9987C63.4292 35.3584 63.5851 35.5858 63.7561 36.7285C63.9545 38.0558 63.618 39.5784 62.9374 40.4306C62.2352 41.31 60.8883 42.1757 60.2222 42.1757C59.345 42.1757 57.5094 40.5573 56.9996 39.3343C56.5736 38.313 56.7356 36.208 57.2947 35.5008C58.0487 34.547 60.8536 34.2801 62.5703 34.9987ZM41.9706 39.475C42.0545 39.7314 41.6926 39.84 40.7547 39.84C39.4975 39.84 39.1485 39.6248 39.6275 39.1448C39.9614 38.8102 41.8395 39.075 41.9706 39.475ZM43.8236 40.3068C43.677 40.9334 43.5456 41.183 43.5316 40.8618C43.5016 40.1675 43.8157 38.8928 43.9771 39.0543C44.0395 39.1168 43.9704 39.6806 43.8236 40.3068ZM40.1478 42.5505C40.4975 42.6352 40.3227 42.7035 39.7108 42.7213C38.4338 42.7581 37.8846 42.427 38.1357 41.7716C38.3146 41.3044 38.3732 41.3094 38.9469 41.8387C39.2869 42.1526 39.8274 42.4729 40.1478 42.5505ZM43.2878 42.5135C43.0028 42.6262 42.3767 42.7196 41.896 42.7205C41.153 42.7222 41.1108 42.6866 41.6148 42.4816C41.9408 42.3494 42.3927 42.0174 42.6191 41.7441C43.0057 41.2773 43.0544 41.2793 43.418 41.7777C43.7505 42.2332 43.7318 42.3377 43.2878 42.5135ZM58.4648 45.3143C59.058 45.8363 59.768 46.2736 60.0431 46.2862C60.3178 46.2987 60.3877 46.3726 60.1983 46.45C59.3217 46.8079 56.3152 44.0836 56.3192 42.9348C56.3198 42.7581 56.5602 43.0078 56.8533 43.4895C57.1464 43.9712 57.8716 44.7925 58.4648 45.3143ZM59.6762 43.2872C59.5868 43.3771 59.3517 43.2875 59.1538 43.0878C58.8683 42.7993 58.9018 42.766 59.317 42.9243C59.6043 43.034 59.766 43.1972 59.6762 43.2872ZM64.3443 44.1922C63.7042 45.4325 63.4968 45.3361 64.0958 44.0772C64.3624 43.5169 64.6322 43.1108 64.6954 43.1742C64.7587 43.2375 64.6007 43.6956 64.3443 44.1922ZM61.0526 43.5368C60.8524 43.618 60.5247 43.618 60.3242 43.5368C60.1241 43.4559 60.2878 43.3896 60.6884 43.3896C61.089 43.3896 61.2531 43.4559 61.0526 43.5368ZM66.4957 45.8535C65.9456 46.4263 65.2505 47.0287 64.9507 47.1922C64.6506 47.3556 65.0439 46.8523 65.8247 46.0734C67.4435 44.4582 68.0148 44.2711 66.4957 45.8535ZM56.064 47.066C56.4262 47.5291 56.416 47.5393 55.9539 47.1764C55.4685 46.7948 55.3144 46.5551 55.5541 46.5551C55.6145 46.5551 55.844 46.7849 56.064 47.066ZM57.3454 47.9586C57.256 48.0485 57.0208 47.9588 56.823 47.7591C56.5375 47.4707 56.571 47.4374 56.9862 47.5956C57.2734 47.7054 57.4351 47.8686 57.3454 47.9586ZM59.5958 48.5001C59.3957 48.5813 59.0679 48.5813 58.8674 48.5001C58.6673 48.4193 58.831 48.353 59.2316 48.353C59.6322 48.353 59.7963 48.4193 59.5958 48.5001ZM61.9322 48.4984C61.735 48.5784 61.3416 48.5833 61.0581 48.5092C60.7747 48.435 60.9361 48.3696 61.4168 48.3638C61.8975 48.358 62.1295 48.4184 61.9322 48.4984Z" fill="#EFEFDF"/>
</svg>
