<svg width="100" height="66" viewBox="0 0 100 66" fill="none" xmlns="http://www.w3.org/2000/svg">
<mask id="path-1-outside-1_4001_6" maskUnits="userSpaceOnUse" x="22.7632" y="2" width="56" height="63" fill="black">
<rect fill="white" x="22.7632" y="2" width="56" height="63"/>
<path fill-rule="evenodd" clip-rule="evenodd" d="M55.1728 3.59601C55.0852 3.92395 55.0115 4.45744 55.0097 4.78167C55.0075 5.1059 54.7681 5.76151 54.4772 6.23858C53.771 7.39696 53.779 9.17307 54.4952 10.1789L55.0441 10.9497L54.2449 11.4082C53.2643 11.9711 53.1599 12.3356 53.1554 15.2118C53.1504 18.3739 52.9247 18.8655 50.8196 20.3026C48.1566 22.1203 47.7818 22.2448 46.8814 21.6095C45.4762 20.6178 43.3581 19.6824 41.565 19.2613C39.0872 18.6796 34.7565 18.8735 32.7549 19.656C31.0946 20.3052 28.6899 21.9746 28.9076 22.3269C28.9876 22.4564 30.333 22.5557 31.8975 22.5478C34.1591 22.5361 35.0942 22.6527 36.4634 23.1168C42.9435 25.3133 48.7563 33.4169 48.3301 39.6594C48.2385 40.9987 47.8907 41.9578 46.3087 45.233C43.792 50.4437 43.6155 51.0156 43.6155 53.9575C43.6155 57.4869 44.5768 60.3483 46.3082 61.9732C47.9926 63.5541 47.7781 63.5233 57.1251 63.5233C66.2562 63.5233 66.4438 63.5 67.5007 62.2309C68.445 61.0966 69.3104 58.3804 69.6008 55.6398C69.9658 52.1915 70.797 49.6326 72.6229 46.3365C75.7783 40.6405 77.0806 37.6785 77.2032 35.9185C77.2662 35.011 77.2387 33.846 77.142 33.33C76.7587 31.2869 74.3172 29.6445 71.1745 29.3161L69.5751 29.1489V28.1627C69.5751 27.5988 69.3618 26.9058 69.0768 26.5434C68.3113 25.57 65.3368 20.5791 65.3368 20.2676C65.3368 20.1158 65.7794 19.6271 66.3203 19.181C67.0559 18.5747 67.2276 18.2944 67.0019 18.0687C66.5669 17.6338 65.5259 17.9744 64.5742 18.8637C63.8831 19.5092 63.7763 19.7664 63.9138 20.4543L64.078 21.275L62.2121 20.1947C59.4628 18.603 59.4474 18.5768 59.1483 14.9146L58.8901 11.7531L58.0075 11.4617C57.0292 11.1388 56.9185 10.8194 57.545 10.1272C58.2591 9.3381 58.3219 7.68887 57.6872 6.37818C57.3781 5.73952 57.1251 4.90644 57.1251 4.52737C57.1251 3.39231 56.8536 3 56.0682 3C55.5294 3 55.2899 3.15947 55.1728 3.59601ZM56.474 3.5478C56.5701 3.70329 56.6576 4.26963 56.6682 4.80604C56.6787 5.34245 56.9052 6.06561 57.1712 6.41315C57.8451 7.29339 57.8093 9.08963 57.0997 9.99186C56.4388 10.8321 56.5815 11.3677 57.5812 11.7974C57.986 11.9714 58.3584 12.1407 58.409 12.174C58.4594 12.2072 58.5998 13.4691 58.7205 14.9785C58.8413 16.4881 59.0901 18.0518 59.2731 18.4539C59.494 18.9389 60.4196 19.6634 62.0248 20.608C63.3551 21.391 64.5842 22.201 64.7561 22.4082C65.2732 23.0315 65.4562 24.4309 65.038 24.5631C64.838 24.6264 61.2603 24.7522 57.0875 24.8428L49.5007 25.0076L48.8271 23.8026L48.1534 22.5976L50.3963 21.1205C51.6296 20.3081 52.8365 19.3421 53.0781 18.9733C53.4002 18.4819 53.5482 17.4968 53.633 15.2823C53.7474 12.2866 53.7549 12.258 54.5098 11.8119C55.3633 11.3076 55.4881 10.5664 54.8399 9.84987C54.2343 9.18102 54.2481 7.49232 54.8664 6.55566C55.1477 6.12971 55.4017 5.34192 55.4308 4.80472C55.5063 3.41085 56.0125 2.80107 56.474 3.5478ZM65.7903 18.8968C64.584 19.8456 64.6428 20.2665 66.3789 23.1245C67.2628 24.579 67.9857 25.8314 67.9857 25.9074C67.9857 25.9835 67.8321 26.0457 67.644 26.0457C67.3071 26.0457 65.6941 23.3115 64.6891 21.0366L64.1728 19.8681L65.1964 18.9837C65.7593 18.497 66.2777 18.1569 66.3484 18.2276C66.4194 18.2984 66.168 18.5996 65.7903 18.8968ZM42.8908 20.0824C46.5604 21.3417 48.603 23.2386 49.2096 25.9501C49.4077 26.8346 49.7444 27.5511 50.0686 27.7784C50.5285 28.1002 50.6381 28.616 50.8617 31.5052C51.1957 35.8234 50.841 39.1328 49.7944 41.4638L49.0459 43.1313L48.8689 39.9311C48.6467 35.9175 47.8777 33.4781 45.8833 30.4602C43.8359 27.362 42.7944 26.2436 40.5735 24.7581C37.6817 22.8238 36.0762 22.2898 32.6847 22.1346C30.2962 22.0252 29.8824 21.9444 30.137 21.6376C30.648 21.022 33.6627 19.7084 35.171 19.4443C37.2724 19.0761 40.8116 19.3688 42.8908 20.0824ZM59.1155 19.959C59.3658 20.3643 62.4206 21.8524 62.7657 21.7372C62.9302 21.6824 62.2391 21.199 61.2296 20.6628C59.3409 19.6599 58.8244 19.488 59.1155 19.959ZM63.2216 21.9494C63.229 22.4053 63.7133 22.9896 63.9159 22.7867C64.0245 22.6784 63.9117 22.3881 63.6653 22.1417C63.4192 21.8954 63.2195 21.8087 63.2216 21.9494ZM66.3572 25.1384C66.6652 25.8142 66.5733 26.3106 66.1407 26.3106C66.0173 26.3106 65.9786 26.0717 66.0552 25.7795C66.1315 25.4873 66.0462 25.0701 65.8655 24.8524C65.6846 24.6346 65.6515 24.4563 65.7916 24.4563C65.9317 24.4563 66.1863 24.7634 66.3572 25.1384ZM65.4692 25.5379C65.4692 26.0118 62.2895 26.2359 54.9397 26.2796C49.8877 26.3095 49.7081 26.2926 49.7081 25.7848C49.7081 25.2743 49.9282 25.2571 57.3238 25.188C66.2655 25.1043 65.4692 25.0701 65.4692 25.5379ZM65.2555 26.865C65.4647 27.0743 65.6944 27.0743 66.0856 26.865C66.8051 26.4799 68.3303 26.4963 68.7274 26.8934C68.9022 27.0682 69.0453 27.7678 69.0453 28.4478V29.6845L70.9832 29.8088C75.017 30.0678 77.1574 32.1311 76.9089 35.5215C76.8056 36.9328 76.4838 37.7895 74.7704 41.2167C73.6611 43.4352 72.237 46.2041 71.6057 47.3696C70.9745 48.5351 70.3056 49.906 70.1194 50.4159L69.7806 51.343L69.4569 50.1494C69.2789 49.493 68.9883 48.6856 68.8117 48.355C68.5237 47.8173 68.6832 47.4271 70.3258 44.6481C73.4552 39.3531 74.3432 37.2176 74.3432 34.9853C74.3432 33.343 73.722 32.245 72.4131 31.573C71.1003 30.8991 65.7943 30.56 64.5601 31.0713C63.7771 31.3955 63.7456 31.4718 63.6992 33.1637C63.5326 39.2252 64.0372 41.1367 67.1174 46.1124C68.7272 48.7129 69.3112 50.6991 69.3057 53.5519C69.2977 57.4053 68.2125 61.067 66.6623 62.4685C66.1021 62.9753 65.7045 62.9983 57.5611 62.9983C52.8778 62.9983 48.7203 62.9072 48.3222 62.7959C45.4828 62.0012 43.384 56.7063 44.0953 52.1319C44.331 50.6159 44.8333 49.3081 46.4001 46.1326C48.1272 42.6317 48.3871 42.2288 48.2843 43.2118C48.1285 44.7032 48.5304 44.57 49.6162 42.7705C51.0508 40.3928 51.3833 38.3669 51.222 32.983C51.0712 27.954 50.9332 27.0584 50.3441 27.2843C50.1401 27.3628 49.973 27.2994 49.973 27.144C49.973 26.6396 64.7601 26.3697 65.2555 26.865ZM72.4044 32.023C72.815 32.3237 73.3797 33.0307 73.6595 33.5938C74.1093 34.5003 74.1323 34.7864 73.8597 36.0852C73.4862 37.8658 72.2039 40.6162 70.0352 44.2878L68.4114 47.0372L67.8255 46.3023C66.5534 44.7072 65.0547 41.6914 64.5466 39.7055C63.8237 36.8785 63.7813 32.0397 64.4759 31.6185C64.7559 31.4487 66.27 31.3648 68.2986 31.4066C71.2081 31.4667 71.7575 31.5491 72.4044 32.023ZM30.8917 39.489C31.6034 40.4556 31.6408 41.3083 31.0482 43.0521C30.747 43.9379 30.6249 44.7739 30.7335 45.2062C31.0027 46.279 31.3984 46.0502 31.2456 44.9098C31.1637 44.2998 31.2774 43.5091 31.5356 42.8908C32.1131 41.5091 32.0691 40.2948 31.4111 39.4586C30.6805 38.5296 30.2053 38.5574 30.8917 39.489ZM28.5659 42.9326C28.5511 43.3332 28.4637 44.1485 28.3717 44.7443C28.2435 45.5731 28.3105 45.9336 28.6568 46.2801C29.2533 46.8764 29.5243 46.5868 28.9566 45.9596C28.4136 45.3599 28.4062 44.9389 28.9206 43.952C29.3058 43.2137 29.2371 42.2042 28.8017 42.2042C28.6867 42.2042 28.5805 42.5321 28.5659 42.9326ZM33.4895 44.0394C33.877 44.7146 33.8895 44.9403 33.5854 45.781C33.1178 47.0743 33.4325 47.3174 33.9552 46.0663C34.3589 45.1003 34.2897 44.2701 33.7496 43.5949C33.2368 42.9536 33.0498 43.273 33.4895 44.0394ZM24.0227 50.1335C23.574 50.9722 23.707 51.6691 24.423 52.2323C25.0582 52.7318 25.1106 52.9628 25.3249 56.1956C25.561 59.7528 25.7554 60.4524 26.6897 61.107C27.0769 61.378 27.1914 61.6564 27.0714 62.0341C26.9569 62.3949 27.0804 62.7541 27.4436 63.1172C27.9378 63.6115 28.3103 63.6605 31.5804 63.6605C33.5568 63.6605 35.3903 63.5448 35.655 63.4031C36.2958 63.06 36.5204 62.4079 36.2025 61.8137C36.0123 61.4582 36.0436 61.2911 36.3204 61.1848C37.221 60.8392 37.5558 59.7309 37.8186 56.2255C38.0621 52.9795 38.1291 52.6836 38.7293 52.2116C39.421 51.6675 39.5476 50.9639 39.1031 50.1335C38.8422 49.6461 38.4753 49.6212 31.5629 49.6212C24.6505 49.6212 24.2836 49.6461 24.0227 50.1335ZM38.715 51.0781V51.8728H31.5666C24.881 51.8728 24.4121 51.8418 24.3258 51.3939C24.0836 50.1359 24.0728 50.1377 31.6225 50.213L38.715 50.2834V51.0781ZM37.4388 55.8096C37.2414 59.7038 37.0279 60.3835 35.8481 60.8768C34.8071 61.3117 29.1993 61.3859 27.6576 60.9851C26.233 60.6148 25.9257 59.823 25.6754 55.8785L25.4629 52.535H31.5338H37.6049L37.4388 55.8096ZM35.9336 55.4316C35.9336 57.4726 35.6513 58.4509 34.7901 59.3923C34.4407 59.7746 34.3626 59.9775 34.593 59.9054C35.2306 59.7059 35.9816 58.4851 36.2173 57.2655C36.5273 55.6613 36.5167 53.5946 36.1985 53.5946C36.0473 53.5946 35.9336 54.3834 35.9336 55.4316ZM35.6285 61.7758C35.825 61.9003 35.9426 62.2264 35.8902 62.5003C35.8023 62.9578 35.4664 63.0041 31.7526 63.0714C28.3135 63.1337 27.6873 63.0839 27.5543 62.7369C27.4682 62.5128 27.545 62.152 27.7249 61.9353C27.9853 61.6217 28.786 61.5422 31.6614 61.5454C33.6471 61.5477 35.4322 61.6513 35.6285 61.7758Z"/>
</mask>
<path fill-rule="evenodd" clip-rule="evenodd" d="M55.1728 3.59601C55.0852 3.92395 55.0115 4.45744 55.0097 4.78167C55.0075 5.1059 54.7681 5.76151 54.4772 6.23858C53.771 7.39696 53.779 9.17307 54.4952 10.1789L55.0441 10.9497L54.2449 11.4082C53.2643 11.9711 53.1599 12.3356 53.1554 15.2118C53.1504 18.3739 52.9247 18.8655 50.8196 20.3026C48.1566 22.1203 47.7818 22.2448 46.8814 21.6095C45.4762 20.6178 43.3581 19.6824 41.565 19.2613C39.0872 18.6796 34.7565 18.8735 32.7549 19.656C31.0946 20.3052 28.6899 21.9746 28.9076 22.3269C28.9876 22.4564 30.333 22.5557 31.8975 22.5478C34.1591 22.5361 35.0942 22.6527 36.4634 23.1168C42.9435 25.3133 48.7563 33.4169 48.3301 39.6594C48.2385 40.9987 47.8907 41.9578 46.3087 45.233C43.792 50.4437 43.6155 51.0156 43.6155 53.9575C43.6155 57.4869 44.5768 60.3483 46.3082 61.9732C47.9926 63.5541 47.7781 63.5233 57.1251 63.5233C66.2562 63.5233 66.4438 63.5 67.5007 62.2309C68.445 61.0966 69.3104 58.3804 69.6008 55.6398C69.9658 52.1915 70.797 49.6326 72.6229 46.3365C75.7783 40.6405 77.0806 37.6785 77.2032 35.9185C77.2662 35.011 77.2387 33.846 77.142 33.33C76.7587 31.2869 74.3172 29.6445 71.1745 29.3161L69.5751 29.1489V28.1627C69.5751 27.5988 69.3618 26.9058 69.0768 26.5434C68.3113 25.57 65.3368 20.5791 65.3368 20.2676C65.3368 20.1158 65.7794 19.6271 66.3203 19.181C67.0559 18.5747 67.2276 18.2944 67.0019 18.0687C66.5669 17.6338 65.5259 17.9744 64.5742 18.8637C63.8831 19.5092 63.7763 19.7664 63.9138 20.4543L64.078 21.275L62.2121 20.1947C59.4628 18.603 59.4474 18.5768 59.1483 14.9146L58.8901 11.7531L58.0075 11.4617C57.0292 11.1388 56.9185 10.8194 57.545 10.1272C58.2591 9.3381 58.3219 7.68887 57.6872 6.37818C57.3781 5.73952 57.1251 4.90644 57.1251 4.52737C57.1251 3.39231 56.8536 3 56.0682 3C55.5294 3 55.2899 3.15947 55.1728 3.59601ZM56.474 3.5478C56.5701 3.70329 56.6576 4.26963 56.6682 4.80604C56.6787 5.34245 56.9052 6.06561 57.1712 6.41315C57.8451 7.29339 57.8093 9.08963 57.0997 9.99186C56.4388 10.8321 56.5815 11.3677 57.5812 11.7974C57.986 11.9714 58.3584 12.1407 58.409 12.174C58.4594 12.2072 58.5998 13.4691 58.7205 14.9785C58.8413 16.4881 59.0901 18.0518 59.2731 18.4539C59.494 18.9389 60.4196 19.6634 62.0248 20.608C63.3551 21.391 64.5842 22.201 64.7561 22.4082C65.2732 23.0315 65.4562 24.4309 65.038 24.5631C64.838 24.6264 61.2603 24.7522 57.0875 24.8428L49.5007 25.0076L48.8271 23.8026L48.1534 22.5976L50.3963 21.1205C51.6296 20.3081 52.8365 19.3421 53.0781 18.9733C53.4002 18.4819 53.5482 17.4968 53.633 15.2823C53.7474 12.2866 53.7549 12.258 54.5098 11.8119C55.3633 11.3076 55.4881 10.5664 54.8399 9.84987C54.2343 9.18102 54.2481 7.49232 54.8664 6.55566C55.1477 6.12971 55.4017 5.34192 55.4308 4.80472C55.5063 3.41085 56.0125 2.80107 56.474 3.5478ZM65.7903 18.8968C64.584 19.8456 64.6428 20.2665 66.3789 23.1245C67.2628 24.579 67.9857 25.8314 67.9857 25.9074C67.9857 25.9835 67.8321 26.0457 67.644 26.0457C67.3071 26.0457 65.6941 23.3115 64.6891 21.0366L64.1728 19.8681L65.1964 18.9837C65.7593 18.497 66.2777 18.1569 66.3484 18.2276C66.4194 18.2984 66.168 18.5996 65.7903 18.8968ZM42.8908 20.0824C46.5604 21.3417 48.603 23.2386 49.2096 25.9501C49.4077 26.8346 49.7444 27.5511 50.0686 27.7784C50.5285 28.1002 50.6381 28.616 50.8617 31.5052C51.1957 35.8234 50.841 39.1328 49.7944 41.4638L49.0459 43.1313L48.8689 39.9311C48.6467 35.9175 47.8777 33.4781 45.8833 30.4602C43.8359 27.362 42.7944 26.2436 40.5735 24.7581C37.6817 22.8238 36.0762 22.2898 32.6847 22.1346C30.2962 22.0252 29.8824 21.9444 30.137 21.6376C30.648 21.022 33.6627 19.7084 35.171 19.4443C37.2724 19.0761 40.8116 19.3688 42.8908 20.0824ZM59.1155 19.959C59.3658 20.3643 62.4206 21.8524 62.7657 21.7372C62.9302 21.6824 62.2391 21.199 61.2296 20.6628C59.3409 19.6599 58.8244 19.488 59.1155 19.959ZM63.2216 21.9494C63.229 22.4053 63.7133 22.9896 63.9159 22.7867C64.0245 22.6784 63.9117 22.3881 63.6653 22.1417C63.4192 21.8954 63.2195 21.8087 63.2216 21.9494ZM66.3572 25.1384C66.6652 25.8142 66.5733 26.3106 66.1407 26.3106C66.0173 26.3106 65.9786 26.0717 66.0552 25.7795C66.1315 25.4873 66.0462 25.0701 65.8655 24.8524C65.6846 24.6346 65.6515 24.4563 65.7916 24.4563C65.9317 24.4563 66.1863 24.7634 66.3572 25.1384ZM65.4692 25.5379C65.4692 26.0118 62.2895 26.2359 54.9397 26.2796C49.8877 26.3095 49.7081 26.2926 49.7081 25.7848C49.7081 25.2743 49.9282 25.2571 57.3238 25.188C66.2655 25.1043 65.4692 25.0701 65.4692 25.5379ZM65.2555 26.865C65.4647 27.0743 65.6944 27.0743 66.0856 26.865C66.8051 26.4799 68.3303 26.4963 68.7274 26.8934C68.9022 27.0682 69.0453 27.7678 69.0453 28.4478V29.6845L70.9832 29.8088C75.017 30.0678 77.1574 32.1311 76.9089 35.5215C76.8056 36.9328 76.4838 37.7895 74.7704 41.2167C73.6611 43.4352 72.237 46.2041 71.6057 47.3696C70.9745 48.5351 70.3056 49.906 70.1194 50.4159L69.7806 51.343L69.4569 50.1494C69.2789 49.493 68.9883 48.6856 68.8117 48.355C68.5237 47.8173 68.6832 47.4271 70.3258 44.6481C73.4552 39.3531 74.3432 37.2176 74.3432 34.9853C74.3432 33.343 73.722 32.245 72.4131 31.573C71.1003 30.8991 65.7943 30.56 64.5601 31.0713C63.7771 31.3955 63.7456 31.4718 63.6992 33.1637C63.5326 39.2252 64.0372 41.1367 67.1174 46.1124C68.7272 48.7129 69.3112 50.6991 69.3057 53.5519C69.2977 57.4053 68.2125 61.067 66.6623 62.4685C66.1021 62.9753 65.7045 62.9983 57.5611 62.9983C52.8778 62.9983 48.7203 62.9072 48.3222 62.7959C45.4828 62.0012 43.384 56.7063 44.0953 52.1319C44.331 50.6159 44.8333 49.3081 46.4001 46.1326C48.1272 42.6317 48.3871 42.2288 48.2843 43.2118C48.1285 44.7032 48.5304 44.57 49.6162 42.7705C51.0508 40.3928 51.3833 38.3669 51.222 32.983C51.0712 27.954 50.9332 27.0584 50.3441 27.2843C50.1401 27.3628 49.973 27.2994 49.973 27.144C49.973 26.6396 64.7601 26.3697 65.2555 26.865ZM72.4044 32.023C72.815 32.3237 73.3797 33.0307 73.6595 33.5938C74.1093 34.5003 74.1323 34.7864 73.8597 36.0852C73.4862 37.8658 72.2039 40.6162 70.0352 44.2878L68.4114 47.0372L67.8255 46.3023C66.5534 44.7072 65.0547 41.6914 64.5466 39.7055C63.8237 36.8785 63.7813 32.0397 64.4759 31.6185C64.7559 31.4487 66.27 31.3648 68.2986 31.4066C71.2081 31.4667 71.7575 31.5491 72.4044 32.023ZM30.8917 39.489C31.6034 40.4556 31.6408 41.3083 31.0482 43.0521C30.747 43.9379 30.6249 44.7739 30.7335 45.2062C31.0027 46.279 31.3984 46.0502 31.2456 44.9098C31.1637 44.2998 31.2774 43.5091 31.5356 42.8908C32.1131 41.5091 32.0691 40.2948 31.4111 39.4586C30.6805 38.5296 30.2053 38.5574 30.8917 39.489ZM28.5659 42.9326C28.5511 43.3332 28.4637 44.1485 28.3717 44.7443C28.2435 45.5731 28.3105 45.9336 28.6568 46.2801C29.2533 46.8764 29.5243 46.5868 28.9566 45.9596C28.4136 45.3599 28.4062 44.9389 28.9206 43.952C29.3058 43.2137 29.2371 42.2042 28.8017 42.2042C28.6867 42.2042 28.5805 42.5321 28.5659 42.9326ZM33.4895 44.0394C33.877 44.7146 33.8895 44.9403 33.5854 45.781C33.1178 47.0743 33.4325 47.3174 33.9552 46.0663C34.3589 45.1003 34.2897 44.2701 33.7496 43.5949C33.2368 42.9536 33.0498 43.273 33.4895 44.0394ZM24.0227 50.1335C23.574 50.9722 23.707 51.6691 24.423 52.2323C25.0582 52.7318 25.1106 52.9628 25.3249 56.1956C25.561 59.7528 25.7554 60.4524 26.6897 61.107C27.0769 61.378 27.1914 61.6564 27.0714 62.0341C26.9569 62.3949 27.0804 62.7541 27.4436 63.1172C27.9378 63.6115 28.3103 63.6605 31.5804 63.6605C33.5568 63.6605 35.3903 63.5448 35.655 63.4031C36.2958 63.06 36.5204 62.4079 36.2025 61.8137C36.0123 61.4582 36.0436 61.2911 36.3204 61.1848C37.221 60.8392 37.5558 59.7309 37.8186 56.2255C38.0621 52.9795 38.1291 52.6836 38.7293 52.2116C39.421 51.6675 39.5476 50.9639 39.1031 50.1335C38.8422 49.6461 38.4753 49.6212 31.5629 49.6212C24.6505 49.6212 24.2836 49.6461 24.0227 50.1335ZM38.715 51.0781V51.8728H31.5666C24.881 51.8728 24.4121 51.8418 24.3258 51.3939C24.0836 50.1359 24.0728 50.1377 31.6225 50.213L38.715 50.2834V51.0781ZM37.4388 55.8096C37.2414 59.7038 37.0279 60.3835 35.8481 60.8768C34.8071 61.3117 29.1993 61.3859 27.6576 60.9851C26.233 60.6148 25.9257 59.823 25.6754 55.8785L25.4629 52.535H31.5338H37.6049L37.4388 55.8096ZM35.9336 55.4316C35.9336 57.4726 35.6513 58.4509 34.7901 59.3923C34.4407 59.7746 34.3626 59.9775 34.593 59.9054C35.2306 59.7059 35.9816 58.4851 36.2173 57.2655C36.5273 55.6613 36.5167 53.5946 36.1985 53.5946C36.0473 53.5946 35.9336 54.3834 35.9336 55.4316ZM35.6285 61.7758C35.825 61.9003 35.9426 62.2264 35.8902 62.5003C35.8023 62.9578 35.4664 63.0041 31.7526 63.0714C28.3135 63.1337 27.6873 63.0839 27.5543 62.7369C27.4682 62.5128 27.545 62.152 27.7249 61.9353C27.9853 61.6217 28.786 61.5422 31.6614 61.5454C33.6471 61.5477 35.4322 61.6513 35.6285 61.7758Z" fill="#EFEFDF"/>
<path fill-rule="evenodd" clip-rule="evenodd" d="M55.1728 3.59601C55.0852 3.92395 55.0115 4.45744 55.0097 4.78167C55.0075 5.1059 54.7681 5.76151 54.4772 6.23858C53.771 7.39696 53.779 9.17307 54.4952 10.1789L55.0441 10.9497L54.2449 11.4082C53.2643 11.9711 53.1599 12.3356 53.1554 15.2118C53.1504 18.3739 52.9247 18.8655 50.8196 20.3026C48.1566 22.1203 47.7818 22.2448 46.8814 21.6095C45.4762 20.6178 43.3581 19.6824 41.565 19.2613C39.0872 18.6796 34.7565 18.8735 32.7549 19.656C31.0946 20.3052 28.6899 21.9746 28.9076 22.3269C28.9876 22.4564 30.333 22.5557 31.8975 22.5478C34.1591 22.5361 35.0942 22.6527 36.4634 23.1168C42.9435 25.3133 48.7563 33.4169 48.3301 39.6594C48.2385 40.9987 47.8907 41.9578 46.3087 45.233C43.792 50.4437 43.6155 51.0156 43.6155 53.9575C43.6155 57.4869 44.5768 60.3483 46.3082 61.9732C47.9926 63.5541 47.7781 63.5233 57.1251 63.5233C66.2562 63.5233 66.4438 63.5 67.5007 62.2309C68.445 61.0966 69.3104 58.3804 69.6008 55.6398C69.9658 52.1915 70.797 49.6326 72.6229 46.3365C75.7783 40.6405 77.0806 37.6785 77.2032 35.9185C77.2662 35.011 77.2387 33.846 77.142 33.33C76.7587 31.2869 74.3172 29.6445 71.1745 29.3161L69.5751 29.1489V28.1627C69.5751 27.5988 69.3618 26.9058 69.0768 26.5434C68.3113 25.57 65.3368 20.5791 65.3368 20.2676C65.3368 20.1158 65.7794 19.6271 66.3203 19.181C67.0559 18.5747 67.2276 18.2944 67.0019 18.0687C66.5669 17.6338 65.5259 17.9744 64.5742 18.8637C63.8831 19.5092 63.7763 19.7664 63.9138 20.4543L64.078 21.275L62.2121 20.1947C59.4628 18.603 59.4474 18.5768 59.1483 14.9146L58.8901 11.7531L58.0075 11.4617C57.0292 11.1388 56.9185 10.8194 57.545 10.1272C58.2591 9.3381 58.3219 7.68887 57.6872 6.37818C57.3781 5.73952 57.1251 4.90644 57.1251 4.52737C57.1251 3.39231 56.8536 3 56.0682 3C55.5294 3 55.2899 3.15947 55.1728 3.59601ZM56.474 3.5478C56.5701 3.70329 56.6576 4.26963 56.6682 4.80604C56.6787 5.34245 56.9052 6.06561 57.1712 6.41315C57.8451 7.29339 57.8093 9.08963 57.0997 9.99186C56.4388 10.8321 56.5815 11.3677 57.5812 11.7974C57.986 11.9714 58.3584 12.1407 58.409 12.174C58.4594 12.2072 58.5998 13.4691 58.7205 14.9785C58.8413 16.4881 59.0901 18.0518 59.2731 18.4539C59.494 18.9389 60.4196 19.6634 62.0248 20.608C63.3551 21.391 64.5842 22.201 64.7561 22.4082C65.2732 23.0315 65.4562 24.4309 65.038 24.5631C64.838 24.6264 61.2603 24.7522 57.0875 24.8428L49.5007 25.0076L48.8271 23.8026L48.1534 22.5976L50.3963 21.1205C51.6296 20.3081 52.8365 19.3421 53.0781 18.9733C53.4002 18.4819 53.5482 17.4968 53.633 15.2823C53.7474 12.2866 53.7549 12.258 54.5098 11.8119C55.3633 11.3076 55.4881 10.5664 54.8399 9.84987C54.2343 9.18102 54.2481 7.49232 54.8664 6.55566C55.1477 6.12971 55.4017 5.34192 55.4308 4.80472C55.5063 3.41085 56.0125 2.80107 56.474 3.5478ZM65.7903 18.8968C64.584 19.8456 64.6428 20.2665 66.3789 23.1245C67.2628 24.579 67.9857 25.8314 67.9857 25.9074C67.9857 25.9835 67.8321 26.0457 67.644 26.0457C67.3071 26.0457 65.6941 23.3115 64.6891 21.0366L64.1728 19.8681L65.1964 18.9837C65.7593 18.497 66.2777 18.1569 66.3484 18.2276C66.4194 18.2984 66.168 18.5996 65.7903 18.8968ZM42.8908 20.0824C46.5604 21.3417 48.603 23.2386 49.2096 25.9501C49.4077 26.8346 49.7444 27.5511 50.0686 27.7784C50.5285 28.1002 50.6381 28.616 50.8617 31.5052C51.1957 35.8234 50.841 39.1328 49.7944 41.4638L49.0459 43.1313L48.8689 39.9311C48.6467 35.9175 47.8777 33.4781 45.8833 30.4602C43.8359 27.362 42.7944 26.2436 40.5735 24.7581C37.6817 22.8238 36.0762 22.2898 32.6847 22.1346C30.2962 22.0252 29.8824 21.9444 30.137 21.6376C30.648 21.022 33.6627 19.7084 35.171 19.4443C37.2724 19.0761 40.8116 19.3688 42.8908 20.0824ZM59.1155 19.959C59.3658 20.3643 62.4206 21.8524 62.7657 21.7372C62.9302 21.6824 62.2391 21.199 61.2296 20.6628C59.3409 19.6599 58.8244 19.488 59.1155 19.959ZM63.2216 21.9494C63.229 22.4053 63.7133 22.9896 63.9159 22.7867C64.0245 22.6784 63.9117 22.3881 63.6653 22.1417C63.4192 21.8954 63.2195 21.8087 63.2216 21.9494ZM66.3572 25.1384C66.6652 25.8142 66.5733 26.3106 66.1407 26.3106C66.0173 26.3106 65.9786 26.0717 66.0552 25.7795C66.1315 25.4873 66.0462 25.0701 65.8655 24.8524C65.6846 24.6346 65.6515 24.4563 65.7916 24.4563C65.9317 24.4563 66.1863 24.7634 66.3572 25.1384ZM65.4692 25.5379C65.4692 26.0118 62.2895 26.2359 54.9397 26.2796C49.8877 26.3095 49.7081 26.2926 49.7081 25.7848C49.7081 25.2743 49.9282 25.2571 57.3238 25.188C66.2655 25.1043 65.4692 25.0701 65.4692 25.5379ZM65.2555 26.865C65.4647 27.0743 65.6944 27.0743 66.0856 26.865C66.8051 26.4799 68.3303 26.4963 68.7274 26.8934C68.9022 27.0682 69.0453 27.7678 69.0453 28.4478V29.6845L70.9832 29.8088C75.017 30.0678 77.1574 32.1311 76.9089 35.5215C76.8056 36.9328 76.4838 37.7895 74.7704 41.2167C73.6611 43.4352 72.237 46.2041 71.6057 47.3696C70.9745 48.5351 70.3056 49.906 70.1194 50.4159L69.7806 51.343L69.4569 50.1494C69.2789 49.493 68.9883 48.6856 68.8117 48.355C68.5237 47.8173 68.6832 47.4271 70.3258 44.6481C73.4552 39.3531 74.3432 37.2176 74.3432 34.9853C74.3432 33.343 73.722 32.245 72.4131 31.573C71.1003 30.8991 65.7943 30.56 64.5601 31.0713C63.7771 31.3955 63.7456 31.4718 63.6992 33.1637C63.5326 39.2252 64.0372 41.1367 67.1174 46.1124C68.7272 48.7129 69.3112 50.6991 69.3057 53.5519C69.2977 57.4053 68.2125 61.067 66.6623 62.4685C66.1021 62.9753 65.7045 62.9983 57.5611 62.9983C52.8778 62.9983 48.7203 62.9072 48.3222 62.7959C45.4828 62.0012 43.384 56.7063 44.0953 52.1319C44.331 50.6159 44.8333 49.3081 46.4001 46.1326C48.1272 42.6317 48.3871 42.2288 48.2843 43.2118C48.1285 44.7032 48.5304 44.57 49.6162 42.7705C51.0508 40.3928 51.3833 38.3669 51.222 32.983C51.0712 27.954 50.9332 27.0584 50.3441 27.2843C50.1401 27.3628 49.973 27.2994 49.973 27.144C49.973 26.6396 64.7601 26.3697 65.2555 26.865ZM72.4044 32.023C72.815 32.3237 73.3797 33.0307 73.6595 33.5938C74.1093 34.5003 74.1323 34.7864 73.8597 36.0852C73.4862 37.8658 72.2039 40.6162 70.0352 44.2878L68.4114 47.0372L67.8255 46.3023C66.5534 44.7072 65.0547 41.6914 64.5466 39.7055C63.8237 36.8785 63.7813 32.0397 64.4759 31.6185C64.7559 31.4487 66.27 31.3648 68.2986 31.4066C71.2081 31.4667 71.7575 31.5491 72.4044 32.023ZM30.8917 39.489C31.6034 40.4556 31.6408 41.3083 31.0482 43.0521C30.747 43.9379 30.6249 44.7739 30.7335 45.2062C31.0027 46.279 31.3984 46.0502 31.2456 44.9098C31.1637 44.2998 31.2774 43.5091 31.5356 42.8908C32.1131 41.5091 32.0691 40.2948 31.4111 39.4586C30.6805 38.5296 30.2053 38.5574 30.8917 39.489ZM28.5659 42.9326C28.5511 43.3332 28.4637 44.1485 28.3717 44.7443C28.2435 45.5731 28.3105 45.9336 28.6568 46.2801C29.2533 46.8764 29.5243 46.5868 28.9566 45.9596C28.4136 45.3599 28.4062 44.9389 28.9206 43.952C29.3058 43.2137 29.2371 42.2042 28.8017 42.2042C28.6867 42.2042 28.5805 42.5321 28.5659 42.9326ZM33.4895 44.0394C33.877 44.7146 33.8895 44.9403 33.5854 45.781C33.1178 47.0743 33.4325 47.3174 33.9552 46.0663C34.3589 45.1003 34.2897 44.2701 33.7496 43.5949C33.2368 42.9536 33.0498 43.273 33.4895 44.0394ZM24.0227 50.1335C23.574 50.9722 23.707 51.6691 24.423 52.2323C25.0582 52.7318 25.1106 52.9628 25.3249 56.1956C25.561 59.7528 25.7554 60.4524 26.6897 61.107C27.0769 61.378 27.1914 61.6564 27.0714 62.0341C26.9569 62.3949 27.0804 62.7541 27.4436 63.1172C27.9378 63.6115 28.3103 63.6605 31.5804 63.6605C33.5568 63.6605 35.3903 63.5448 35.655 63.4031C36.2958 63.06 36.5204 62.4079 36.2025 61.8137C36.0123 61.4582 36.0436 61.2911 36.3204 61.1848C37.221 60.8392 37.5558 59.7309 37.8186 56.2255C38.0621 52.9795 38.1291 52.6836 38.7293 52.2116C39.421 51.6675 39.5476 50.9639 39.1031 50.1335C38.8422 49.6461 38.4753 49.6212 31.5629 49.6212C24.6505 49.6212 24.2836 49.6461 24.0227 50.1335ZM38.715 51.0781V51.8728H31.5666C24.881 51.8728 24.4121 51.8418 24.3258 51.3939C24.0836 50.1359 24.0728 50.1377 31.6225 50.213L38.715 50.2834V51.0781ZM37.4388 55.8096C37.2414 59.7038 37.0279 60.3835 35.8481 60.8768C34.8071 61.3117 29.1993 61.3859 27.6576 60.9851C26.233 60.6148 25.9257 59.823 25.6754 55.8785L25.4629 52.535H31.5338H37.6049L37.4388 55.8096ZM35.9336 55.4316C35.9336 57.4726 35.6513 58.4509 34.7901 59.3923C34.4407 59.7746 34.3626 59.9775 34.593 59.9054C35.2306 59.7059 35.9816 58.4851 36.2173 57.2655C36.5273 55.6613 36.5167 53.5946 36.1985 53.5946C36.0473 53.5946 35.9336 54.3834 35.9336 55.4316ZM35.6285 61.7758C35.825 61.9003 35.9426 62.2264 35.8902 62.5003C35.8023 62.9578 35.4664 63.0041 31.7526 63.0714C28.3135 63.1337 27.6873 63.0839 27.5543 62.7369C27.4682 62.5128 27.545 62.152 27.7249 61.9353C27.9853 61.6217 28.786 61.5422 31.6614 61.5454C33.6471 61.5477 35.4322 61.6513 35.6285 61.7758Z" stroke="#EFEFDF" stroke-width="1.05957" mask="url(#path-1-outside-1_4001_6)"/>
</svg>
