<svg width="17" height="11" viewBox="0 0 17 11" fill="none" xmlns="http://www.w3.org/2000/svg">
<path d="M15.9734 4.21642C16.1378 4.01475 16.1378 3.68777 15.9734 3.4861L13.2938 0.199597C13.1294 -0.00207908 12.8627 -0.00207908 12.6984 0.199597C12.5339 0.401272 12.5339 0.728254 12.6984 0.929926L15.0802 3.85126L12.6984 6.7726C12.5339 6.97427 12.5339 7.30125 12.6984 7.50292C12.8627 7.70461 13.1294 7.70461 13.2938 7.50292L15.9734 4.21642ZM3.88615 4.36768H15.6756V3.33484H3.88615V4.36768ZM0.0966797 7.98265V10.0483H0.938785V7.98265H0.0966797ZM3.88615 3.33484C1.79329 3.33484 0.0966797 5.41573 0.0966797 7.98265H0.938785C0.938785 5.98615 2.25836 4.36768 3.88615 4.36768V3.33484Z" fill="#EFEFDF"/>
</svg>
