<svg width="27" height="26" viewBox="0 0 27 26" fill="none" xmlns="http://www.w3.org/2000/svg">
<path d="M0.838904 12.7377C0.838904 10.4257 0.823373 8.11354 0.842723 5.80167C0.869458 2.61305 3.41086 0.0455477 6.58676 0.028998C11.1886 0.00506453 15.7907 0.00111787 20.3925 0.0240329C23.7117 0.0404553 26.2519 2.58033 26.2622 5.87041C26.2764 10.3882 26.276 14.9063 26.2545 19.4241C26.2373 23.0178 23.7761 25.4528 20.1969 25.4562C15.7857 25.4606 11.3746 25.4606 6.96345 25.4571C3.30889 25.4542 0.871365 23.0261 0.84845 19.3556C0.834701 17.1498 0.845905 14.9437 0.845905 12.7378C0.843359 12.7377 0.841069 12.7377 0.838904 12.7377ZM20.8556 8.51239C20.0351 8.51239 19.2562 8.51493 18.4774 8.51137C18.0252 8.50933 17.7119 8.73173 17.6895 9.16941C17.6477 9.98467 17.6775 10.8038 17.6775 11.6899C18.7648 11.6899 19.7709 11.6899 20.8441 11.6899C20.7398 12.8907 20.6423 14.0145 20.5398 15.1964C19.536 15.1964 18.615 15.1964 17.7051 15.1964C17.7051 17.906 17.7051 20.5493 17.7051 23.2176C18.8179 23.2176 19.9043 23.3217 20.963 23.1944C22.7896 22.9749 24.0423 21.5496 24.0549 19.7227C24.0868 15.098 24.0956 10.4728 24.0617 5.84826C24.0461 3.7052 22.5091 2.22387 20.369 2.21547C15.809 2.19765 11.2488 2.19918 6.68885 2.21394C4.59645 2.22069 3.02767 3.80081 3.02359 5.89104C3.01481 10.3674 3.01787 14.8437 3.03085 19.3199C3.03811 21.8082 4.51587 23.2718 6.99808 23.2775C9.18264 23.2826 11.3672 23.2788 13.5518 23.2789C13.7542 23.2789 13.9567 23.2789 14.1496 23.2789C14.1496 20.5196 14.1496 17.8587 14.1496 15.1251C13.1772 15.1251 12.2554 15.1251 11.3518 15.1251C11.3518 13.9415 11.3518 12.8319 11.3518 11.639C12.3279 11.639 13.2479 11.639 14.1933 11.639C14.1933 10.7696 14.1841 9.98557 14.1953 9.20175C14.2152 7.8187 14.7935 6.72056 15.8765 5.86036C17.4012 4.64917 19.1261 5.1104 20.8554 5.16196C20.8556 6.29854 20.8556 7.37147 20.8556 8.51239Z" fill="#9C5849"/>
</svg>
