<svg width="26" height="26" viewBox="0 0 26 26" fill="none" xmlns="http://www.w3.org/2000/svg">
<path d="M0.2768 12.6575C0.2768 10.4303 0.265727 8.20296 0.279349 5.97575C0.300736 2.49153 2.79261 0.0111044 6.27646 0.00575753C10.7938 -0.00111697 15.311 0.00206567 19.8283 0.00575753C23.1221 0.00843095 25.6824 2.54487 25.6948 5.84857C25.712 10.4516 25.7157 15.0547 25.7003 19.6575C25.6898 22.7845 23.2123 25.3794 20.0816 25.4198C15.3531 25.4807 10.6227 25.4834 5.89416 25.4201C2.73329 25.3779 0.277185 22.7551 0.273366 19.5936C0.270565 17.2815 0.272853 14.9695 0.272853 12.6574C0.273999 12.6575 0.2754 12.6575 0.2768 12.6575ZM12.9329 23.2512C15.2227 23.2512 17.5128 23.2638 19.8026 23.2475C21.9225 23.2325 23.4991 21.7299 23.513 19.6196C23.5431 15.0394 23.5396 10.4587 23.5017 5.87862C23.4835 3.67814 21.9292 2.19261 19.723 2.18637C15.2494 2.17352 10.7757 2.17415 6.30205 2.18536C3.99794 2.19121 2.47524 3.71162 2.46671 6.02184C2.45003 10.5176 2.448 15.0134 2.45615 19.5092C2.4601 21.683 4.0164 23.2342 6.1904 23.2467C8.43785 23.2596 10.6854 23.2496 12.9329 23.2512Z" fill="#9C5849"/>
<path d="M12.9788 20.886C11.7274 20.886 10.476 20.8923 9.22454 20.8846C6.82419 20.8698 4.86559 18.9956 4.82396 16.5996C4.7794 14.0334 4.77953 11.4656 4.80983 8.89914C4.83758 6.54869 6.67664 4.61225 9.0202 4.54949C11.6693 4.47858 14.3234 4.47641 16.9722 4.55038C19.313 4.61569 21.1478 6.57288 21.168 8.91428C21.1897 11.4386 21.1878 13.9636 21.1563 16.4878C21.1252 18.9752 19.2225 20.8508 16.7328 20.8855C15.4816 20.9029 14.2301 20.8885 12.9788 20.8885C12.9788 20.8878 12.9788 20.8869 12.9788 20.886ZM19.4257 12.7723C19.43 12.7723 19.4344 12.7723 19.4388 12.7723C19.4388 11.5421 19.457 10.3116 19.4343 9.08182C19.4044 7.45613 18.2947 6.28912 16.6821 6.26417C14.2227 6.22623 11.7617 6.22547 9.30231 6.26353C7.68502 6.28861 6.54946 7.46962 6.54017 9.07393C6.52617 11.4918 6.52667 13.9101 6.55252 16.3279C6.57072 18.023 7.72577 19.1448 9.42148 19.1516C11.7754 19.161 14.1295 19.1612 16.4834 19.1523C18.2729 19.1456 19.3927 18.0496 19.422 16.2717C19.4413 15.1057 19.4257 13.9388 19.4257 12.7723Z" fill="#9C5849"/>
<path d="M8.51481 12.6822C8.49381 10.2864 10.4929 8.27348 12.9155 8.25069C15.3943 8.2274 17.4465 10.189 17.4673 12.6016C17.4895 15.1536 15.5327 17.1812 13.0283 17.2013C10.5129 17.2215 8.53722 15.2435 8.51481 12.6822ZM15.7053 12.6574C15.6926 11.1673 14.47 9.98727 12.9569 10.0047C11.4532 10.022 10.2394 11.2435 10.2595 12.7195C10.2804 14.2511 11.5082 15.4651 13.0191 15.448C14.5356 15.431 15.7185 14.2021 15.7053 12.6574Z" fill="#9C5849"/>
<path d="M17.3724 7.39678C17.9109 7.43369 18.3621 7.94775 18.3174 8.4734C18.2715 9.01381 17.7536 9.45301 17.2262 9.39891C16.7091 9.34582 16.297 8.87072 16.3197 8.3536C16.3441 7.79766 16.8264 7.35922 17.3724 7.39678Z" fill="#9C5849"/>
</svg>
