<svg width="27" height="26" viewBox="0 0 27 26" fill="none" xmlns="http://www.w3.org/2000/svg">
<path d="M26.1526 12.7714C26.1526 15.0199 26.1635 17.2684 26.15 19.5167C26.1294 22.9584 23.6318 25.4551 20.1945 25.4621C15.6348 25.4714 11.075 25.4701 6.51528 25.4584C3.35428 25.4503 0.774172 22.9546 0.743619 19.7884C0.698425 15.101 0.702116 10.4127 0.734707 5.72519C0.755967 2.66069 3.23283 0.0958629 6.30803 0.051306C11.0574 -0.017439 15.8093 -0.0170586 20.5587 0.0521956C23.6957 0.0978983 26.1268 2.68055 26.1562 5.83518C26.1778 8.14705 26.1604 10.4593 26.1604 12.7714C26.1578 12.7714 26.1552 12.7714 26.1526 12.7714ZM13.4352 2.21868C11.1879 2.21868 8.94045 2.20875 6.69312 2.22148C4.46476 2.23409 2.91966 3.74228 2.91036 5.97662C2.89152 10.4932 2.89738 15.0098 2.92538 19.5264C2.93926 21.7642 4.47838 23.2768 6.70649 23.283C11.1801 23.2954 15.6538 23.2948 20.1274 23.2843C22.4301 23.279 23.9531 21.7623 23.9626 19.4487C23.9814 14.9529 23.9803 10.457 23.9761 5.96121C23.9741 3.79867 22.4067 2.23103 20.2411 2.22008C17.9727 2.20837 15.7039 2.21741 13.4352 2.21868Z" fill="#9C5849"/>
<path d="M14.7033 20.4865C13.4921 20.4865 12.3766 20.4865 11.2197 20.4865C11.2197 17.0508 11.2197 13.6474 11.2197 10.2087C12.2877 10.2087 13.3203 10.2087 14.4297 10.2087C14.4297 10.6737 14.4297 11.1437 14.4297 11.7844C14.6939 11.4896 14.8441 11.3276 14.9881 11.1603C15.8525 10.1562 16.9687 9.81065 18.2465 9.96558C19.533 10.1215 20.4704 11.0252 20.6638 12.4643C20.8182 13.6129 20.7973 14.7877 20.8148 15.9514C20.8372 17.451 20.8202 18.9513 20.8202 20.4856C19.6383 20.4856 18.5225 20.4856 17.3355 20.4856C17.3247 20.2814 17.3051 20.0784 17.3044 19.8753C17.3003 18.2842 17.302 16.6932 17.2968 15.1021C17.2958 14.7844 17.2958 14.4635 17.2544 14.1496C17.1781 13.5714 16.8968 13.144 16.2706 13.0701C15.6745 12.9998 15.1939 13.2577 14.9947 13.8041C14.8171 14.2909 14.7222 14.8311 14.7097 15.3506C14.6747 16.8133 14.7011 18.2776 14.7032 19.7413C14.7036 19.9709 14.7033 20.2006 14.7033 20.4865Z" fill="#9C5849"/>
<path d="M6.10303 10.2085C7.25693 10.2085 8.37174 10.2085 9.53061 10.2085C9.53061 13.6423 9.53061 17.0434 9.53061 20.484C8.37976 20.484 7.26635 20.484 6.10303 20.484C6.10303 17.0787 6.10303 13.68 6.10303 10.2085Z" fill="#9C5849"/>
<path d="M7.74438 8.94481C6.81365 8.93322 6.05363 8.16353 6.05567 7.23471C6.05783 6.28297 6.85209 5.5003 7.80574 5.5101C8.81082 5.52041 9.59235 6.31696 9.55848 7.29671C9.52564 8.25048 8.74755 8.95728 7.74438 8.94481Z" fill="#9C5849"/>
</svg>
